G04*
G04 #@! TF.GenerationSoftware,Altium Limited,Altium Designer,24.7.2 (38)*
G04*
G04 Layer_Color=32896*
%FSLAX44Y44*%
%MOMM*%
G71*
G04*
G04 #@! TF.SameCoordinates,83C183C4-3B18-41F5-843C-3348C90CF240*
G04*
G04*
G04 #@! TF.FilePolarity,Positive*
G04*
G01*
G75*
%ADD10C,0.2500*%
%ADD11C,0.1000*%
%ADD12C,0.2000*%
%ADD13C,0.1500*%
%ADD15C,0.2540*%
%ADD80C,0.1524*%
D10*
X236000Y301250D02*
G03*
X236000Y301250I-1250J0D01*
G01*
X156600Y128500D02*
G03*
X156600Y128500I-1250J0D01*
G01*
X570900Y205250D02*
G03*
X570900Y205250I-1250J0D01*
G01*
X213881Y231450D02*
G03*
X213881Y231450I-1250J0D01*
G01*
X563781Y357500D02*
G03*
X563781Y357500I-1250J0D01*
G01*
X375000Y149960D02*
G03*
X375000Y149960I-1250J0D01*
G01*
D11*
X367450Y340598D02*
G03*
X368450Y340598I500J0D01*
G01*
D02*
G03*
X367450Y340598I-500J0D01*
G01*
D12*
X264000Y237500D02*
X274000D01*
X264000Y224000D02*
X274000D01*
X200000Y306250D02*
X231000D01*
X200000Y281250D02*
X231000D01*
X273750Y353000D02*
X283750D01*
X273750Y338890D02*
X283750D01*
X276000Y298500D02*
X287000D01*
X276000Y285000D02*
X287000D01*
X258750Y319640D02*
X268750D01*
X258750Y333750D02*
X268750D01*
X328000Y328350D02*
X338000D01*
X328000Y315650D02*
X338000D01*
X299138Y187888D02*
Y204612D01*
X313862Y187888D02*
Y204612D01*
X557000Y234750D02*
X581000D01*
X557000Y256250D02*
X581000D01*
X468969Y347531D02*
X494031D01*
X468969Y329469D02*
X494031D01*
X459750Y189423D02*
Y202148D01*
X446250Y189423D02*
Y202148D01*
X283000Y303140D02*
X293000D01*
X283000Y317250D02*
X293000D01*
X453000Y144000D02*
Y155000D01*
X439500Y144000D02*
Y155000D01*
X226000Y102439D02*
Y115561D01*
X212500Y102439D02*
Y115561D01*
X132350Y133750D02*
X145350D01*
X132350Y108250D02*
X145350D01*
X521750Y193500D02*
Y203500D01*
X535250Y193500D02*
Y203500D01*
X217750Y122439D02*
Y135561D01*
X231250Y122439D02*
Y135561D01*
X403500Y72750D02*
Y90750D01*
X421500Y72750D02*
Y90750D01*
X160443Y184231D02*
X178943D01*
X160443Y234269D02*
X178943D01*
X426888Y281612D02*
X443612D01*
X426888Y266888D02*
X443612D01*
X242500Y355000D02*
X252500D01*
X242500Y368500D02*
X252500D01*
X378250Y284750D02*
Y294750D01*
X391250Y284750D02*
Y294750D01*
X591750Y191250D02*
Y202250D01*
X578250Y191250D02*
Y202250D01*
X190888Y108388D02*
Y123112D01*
X204612Y108388D02*
Y123112D01*
X313811Y141690D02*
Y165811D01*
X296689Y141690D02*
Y165811D01*
X553000Y154500D02*
Y165500D01*
X566500Y154500D02*
Y165500D01*
X503500Y136500D02*
X515000D01*
X503500Y154500D02*
X515000D01*
X490000Y368000D02*
X502000D01*
X490000Y355150D02*
X502000D01*
X458500Y334000D02*
Y346000D01*
X445650Y334000D02*
Y346000D01*
X532470Y362750D02*
X552470D01*
X532470Y339250D02*
X552470D01*
X391750Y103500D02*
X415750D01*
X391750Y125000D02*
X415750D01*
X264000Y110750D02*
Y128750D01*
X282000Y110750D02*
Y128750D01*
X166638Y106852D02*
Y123577D01*
X181362Y106852D02*
Y123577D01*
X457350Y218650D02*
X463650D01*
X457350Y207850D02*
X463650D01*
X579000Y268750D02*
Y286750D01*
X561000Y268750D02*
Y286750D01*
X433500Y144500D02*
Y155500D01*
X420000Y144500D02*
Y155500D01*
X382000Y135500D02*
Y146500D01*
X395500Y135500D02*
Y146500D01*
X333112Y140137D02*
Y156862D01*
X318388Y140137D02*
Y156862D01*
X427500Y224388D02*
Y237112D01*
X441000Y224388D02*
Y237112D01*
X172250Y281388D02*
Y294112D01*
X185750Y281388D02*
Y294112D01*
X107500Y271887D02*
Y284612D01*
X121000Y271887D02*
Y284612D01*
X162500Y319015D02*
Y326985D01*
X180500Y319015D02*
Y326985D01*
X143388Y359852D02*
Y376577D01*
X158112Y359852D02*
Y376577D01*
X272000Y205750D02*
X282000D01*
X272000Y219250D02*
X282000D01*
X261469Y198531D02*
X286531D01*
X261469Y180469D02*
X286531D01*
X250500Y187250D02*
Y197250D01*
X237000Y187250D02*
Y197250D01*
X218674Y187686D02*
Y196314D01*
X229974Y187686D02*
Y196314D01*
X258750Y263890D02*
X268750D01*
X258750Y278000D02*
X268750D01*
X269500Y245750D02*
Y255750D01*
X255390Y245750D02*
Y255750D01*
X187686Y241936D02*
X198314D01*
X187686Y253564D02*
X198314D01*
X481281Y248969D02*
Y274031D01*
X463219Y248969D02*
Y274031D01*
X420531Y210213D02*
Y235275D01*
X402469Y210213D02*
Y235275D01*
X380638Y207388D02*
Y224112D01*
X395362Y207388D02*
Y224112D01*
X362138Y232250D02*
X374862D01*
X362138Y218750D02*
X374862D01*
X297388Y213888D02*
X314112D01*
X297388Y228612D02*
X314112D01*
X323479Y215500D02*
X349521D01*
X323479Y238000D02*
X349521D01*
X428969Y243969D02*
X454031D01*
X428969Y262031D02*
X454031D01*
X450638Y238362D02*
X467362D01*
X450638Y223638D02*
X467362D01*
X422638Y323517D02*
X439362D01*
X422638Y308792D02*
X439362D01*
X360500Y274250D02*
Y284250D01*
X373500Y274250D02*
Y284250D01*
X428638Y287750D02*
X441362D01*
X428638Y301250D02*
X441362D01*
X398750Y318923D02*
Y331648D01*
X412250Y318923D02*
Y331648D01*
X394388Y364250D02*
X407112D01*
X394388Y350750D02*
X407112D01*
D13*
X59500Y255000D02*
Y258500D01*
X42000D02*
X59500D01*
Y180500D02*
Y184000D01*
X42000Y180500D02*
X59500D01*
X69500Y202500D02*
X76500Y206500D01*
X69500Y210500D02*
X76500Y206500D01*
X69500Y202500D02*
Y210500D01*
X546650Y210500D02*
X559650D01*
X546650Y185000D02*
X559650D01*
X350750Y155210D02*
X363750D01*
X350750Y129710D02*
X363750D01*
D15*
X222937Y219618D02*
Y204382D01*
X230554D01*
X233093Y206922D01*
Y212000D01*
X230554Y214539D01*
X222937D01*
X228015D02*
X233093Y219618D01*
X238172Y206922D02*
X240711Y204382D01*
X245789D01*
X248328Y206922D01*
Y209461D01*
X245789Y212000D01*
X243250D01*
X245789D01*
X248328Y214539D01*
Y217078D01*
X245789Y219618D01*
X240711D01*
X238172Y217078D01*
X253407Y204382D02*
X263563D01*
Y206922D01*
X253407Y217078D01*
Y219618D01*
X410387Y276828D02*
X412926Y279368D01*
X418005D01*
X420544Y276828D01*
Y266672D01*
X418005Y264132D01*
X412926D01*
X410387Y266672D01*
X405309Y264132D02*
X400230D01*
X402770D01*
Y279368D01*
X405309Y276828D01*
X392613D02*
X390074Y279368D01*
X384995D01*
X382456Y276828D01*
Y274289D01*
X384995Y271750D01*
X387534D01*
X384995D01*
X382456Y269211D01*
Y266672D01*
X384995Y264132D01*
X390074D01*
X392613Y266672D01*
X313328Y242152D02*
X315868Y239613D01*
Y234535D01*
X313328Y231995D01*
X303172D01*
X300632Y234535D01*
Y239613D01*
X303172Y242152D01*
X300632Y247230D02*
Y252309D01*
Y249770D01*
X315868D01*
X313328Y247230D01*
X300632Y259926D02*
Y265005D01*
Y262465D01*
X315868D01*
X313328Y259926D01*
X257063Y223883D02*
Y239118D01*
X249446D01*
X246907Y236578D01*
Y231500D01*
X249446Y228961D01*
X257063D01*
X251985D02*
X246907Y223883D01*
X241828Y236578D02*
X239289Y239118D01*
X234211D01*
X231672Y236578D01*
Y234039D01*
X234211Y231500D01*
X236750D01*
X234211D01*
X231672Y228961D01*
Y226422D01*
X234211Y223883D01*
X239289D01*
X241828Y226422D01*
X216437Y239118D02*
X221515Y236578D01*
X226593Y231500D01*
Y226422D01*
X224054Y223883D01*
X218976D01*
X216437Y226422D01*
Y228961D01*
X218976Y231500D01*
X226593D01*
X17711Y156132D02*
X12632D01*
X15172D01*
Y168828D01*
X12632Y171367D01*
X10093D01*
X7554Y168828D01*
X32946Y171367D02*
X22789D01*
X32946Y161211D01*
Y158672D01*
X30407Y156132D01*
X25328D01*
X22789Y158672D01*
X385907Y362617D02*
Y360078D01*
X380828Y355000D01*
X375750Y360078D01*
Y362617D01*
X380828Y355000D02*
Y347382D01*
X370672D02*
X365593D01*
X368132D01*
Y362617D01*
X370672Y360078D01*
X566246Y228368D02*
Y215672D01*
X563707Y213132D01*
X558628D01*
X556089Y215672D01*
Y228368D01*
X540854D02*
X545933Y225828D01*
X551011Y220750D01*
Y215672D01*
X548472Y213132D01*
X543393D01*
X540854Y215672D01*
Y218211D01*
X543393Y220750D01*
X551011D01*
X367946Y173617D02*
Y160922D01*
X365407Y158383D01*
X360328D01*
X357789Y160922D01*
Y173617D01*
X342554D02*
X352711D01*
Y166000D01*
X347632Y168539D01*
X345093D01*
X342554Y166000D01*
Y160922D01*
X345093Y158383D01*
X350172D01*
X352711Y160922D01*
X245804Y298617D02*
Y283382D01*
X253422D01*
X255961Y285922D01*
Y291000D01*
X253422Y293539D01*
X245804D01*
X250882D02*
X255961Y298617D01*
X271196D02*
X261039D01*
X271196Y288461D01*
Y285922D01*
X268657Y283382D01*
X263578D01*
X261039Y285922D01*
X441446Y160133D02*
Y175368D01*
X433828D01*
X431289Y172828D01*
Y167750D01*
X433828Y165211D01*
X441446D01*
X436367D02*
X431289Y160133D01*
X418593D02*
Y175368D01*
X426211Y167750D01*
X416054D01*
X458633Y135054D02*
X473868D01*
Y142672D01*
X471328Y145211D01*
X466250D01*
X463711Y142672D01*
Y135054D01*
Y140132D02*
X458633Y145211D01*
X471328Y150289D02*
X473868Y152828D01*
Y157907D01*
X471328Y160446D01*
X468789D01*
X466250Y157907D01*
Y155367D01*
Y157907D01*
X463711Y160446D01*
X461172D01*
X458633Y157907D01*
Y152828D01*
X461172Y150289D01*
X484618Y218813D02*
X469383D01*
Y211196D01*
X471922Y208657D01*
X477000D01*
X479539Y211196D01*
Y218813D01*
Y213735D02*
X484618Y208657D01*
Y193422D02*
Y203578D01*
X474461Y193422D01*
X471922D01*
X469383Y195961D01*
Y201039D01*
X471922Y203578D01*
Y188343D02*
X469383Y185804D01*
Y180726D01*
X471922Y178187D01*
X474461D01*
X477000Y180726D01*
Y183265D01*
Y180726D01*
X479539Y178187D01*
X482078D01*
X484618Y180726D01*
Y185804D01*
X482078Y188343D01*
X156696Y255868D02*
Y243172D01*
X154157Y240632D01*
X149078D01*
X146539Y243172D01*
Y255868D01*
X141461Y253328D02*
X138922Y255868D01*
X133843D01*
X131304Y253328D01*
Y250789D01*
X133843Y248250D01*
X131304Y245711D01*
Y243172D01*
X133843Y240632D01*
X138922D01*
X141461Y243172D01*
Y245711D01*
X138922Y248250D01*
X141461Y250789D01*
Y253328D01*
X138922Y248250D02*
X133843D01*
X167313Y260882D02*
Y276117D01*
X159696D01*
X157157Y273578D01*
Y268500D01*
X159696Y265961D01*
X167313D01*
X162235D02*
X157157Y260882D01*
X152078Y273578D02*
X149539Y276117D01*
X144461D01*
X141922Y273578D01*
Y271039D01*
X144461Y268500D01*
X147000D01*
X144461D01*
X141922Y265961D01*
Y263422D01*
X144461Y260882D01*
X149539D01*
X152078Y263422D01*
X126687Y276117D02*
X136843D01*
Y268500D01*
X131765Y271039D01*
X129226D01*
X126687Y268500D01*
Y263422D01*
X129226Y260882D01*
X134304D01*
X136843Y263422D01*
X245618Y180563D02*
X230382D01*
Y172946D01*
X232922Y170407D01*
X238000D01*
X240539Y172946D01*
Y180563D01*
Y175485D02*
X245618Y170407D01*
X232922Y165328D02*
X230382Y162789D01*
Y157711D01*
X232922Y155172D01*
X235461D01*
X238000Y157711D01*
Y160250D01*
Y157711D01*
X240539Y155172D01*
X243078D01*
X245618Y157711D01*
Y162789D01*
X243078Y165328D01*
X232922Y150093D02*
X230382Y147554D01*
Y142476D01*
X232922Y139937D01*
X235461D01*
X238000Y142476D01*
Y145015D01*
Y142476D01*
X240539Y139937D01*
X243078D01*
X245618Y142476D01*
Y147554D01*
X243078Y150093D01*
X556166Y383868D02*
Y371172D01*
X553627Y368633D01*
X548548D01*
X546009Y371172D01*
Y383868D01*
X533313Y368633D02*
Y383868D01*
X540931Y376250D01*
X530774D01*
X229446Y326367D02*
Y313672D01*
X226907Y311133D01*
X221828D01*
X219289Y313672D01*
Y326367D01*
X214211Y323828D02*
X211672Y326367D01*
X206593D01*
X204054Y323828D01*
Y321289D01*
X206593Y318750D01*
X209132D01*
X206593D01*
X204054Y316211D01*
Y313672D01*
X206593Y311133D01*
X211672D01*
X214211Y313672D01*
X140446Y153868D02*
Y141172D01*
X137907Y138632D01*
X132828D01*
X130289Y141172D01*
Y153868D01*
X115054Y138632D02*
X125211D01*
X115054Y148789D01*
Y151328D01*
X117593Y153868D01*
X122672D01*
X125211Y151328D01*
X317687Y192367D02*
Y177132D01*
X325304D01*
X327843Y179672D01*
Y184750D01*
X325304Y187289D01*
X317687D01*
X322765D02*
X327843Y192367D01*
X343078D02*
X332922D01*
X343078Y182211D01*
Y179672D01*
X340539Y177132D01*
X335461D01*
X332922Y179672D01*
X348157Y177132D02*
X358313D01*
Y179672D01*
X348157Y189828D01*
Y192367D01*
X190437Y98118D02*
Y82882D01*
X198054D01*
X200593Y85422D01*
Y90500D01*
X198054Y93039D01*
X190437D01*
X195515D02*
X200593Y98118D01*
X215828D02*
X205672D01*
X215828Y87961D01*
Y85422D01*
X213289Y82882D01*
X208211D01*
X205672Y85422D01*
X231063Y82882D02*
X225985Y85422D01*
X220907Y90500D01*
Y95578D01*
X223446Y98118D01*
X228524D01*
X231063Y95578D01*
Y93039D01*
X228524Y90500D01*
X220907D01*
X210382Y140436D02*
X225618D01*
Y148054D01*
X223078Y150593D01*
X218000D01*
X215461Y148054D01*
Y140436D01*
Y145515D02*
X210382Y150593D01*
Y165828D02*
Y155672D01*
X220539Y165828D01*
X223078D01*
X225618Y163289D01*
Y158211D01*
X223078Y155672D01*
X225618Y181063D02*
Y170907D01*
X218000D01*
X220539Y175985D01*
Y178524D01*
X218000Y181063D01*
X212922D01*
X210382Y178524D01*
Y173446D01*
X212922Y170907D01*
X571632Y133437D02*
X586867D01*
Y141054D01*
X584328Y143593D01*
X579250D01*
X576711Y141054D01*
Y133437D01*
Y138515D02*
X571632Y143593D01*
Y158828D02*
Y148672D01*
X581789Y158828D01*
X584328D01*
X586867Y156289D01*
Y151211D01*
X584328Y148672D01*
X571632Y174063D02*
Y163907D01*
X581789Y174063D01*
X584328D01*
X586867Y171524D01*
Y166446D01*
X584328Y163907D01*
X520882Y212476D02*
X536118D01*
Y220093D01*
X533578Y222633D01*
X528500D01*
X525961Y220093D01*
Y212476D01*
Y217554D02*
X520882Y222633D01*
Y237868D02*
Y227711D01*
X531039Y237868D01*
X533578D01*
X536118Y235328D01*
Y230250D01*
X533578Y227711D01*
X520882Y242946D02*
Y248024D01*
Y245485D01*
X536118D01*
X533578Y242946D01*
X599883Y171437D02*
X615118D01*
Y179054D01*
X612578Y181593D01*
X607500D01*
X604961Y179054D01*
Y171437D01*
Y176515D02*
X599883Y181593D01*
Y196828D02*
Y186672D01*
X610039Y196828D01*
X612578D01*
X615118Y194289D01*
Y189211D01*
X612578Y186672D01*
Y201907D02*
X615118Y204446D01*
Y209524D01*
X612578Y212063D01*
X602422D01*
X599883Y209524D01*
Y204446D01*
X602422Y201907D01*
X612578D01*
X411794Y155632D02*
Y170868D01*
X404176D01*
X401637Y168328D01*
Y163250D01*
X404176Y160711D01*
X411794D01*
X406716D02*
X401637Y155632D01*
X396559D02*
X391480D01*
X394020D01*
Y170868D01*
X396559Y168328D01*
X383863Y170868D02*
X373706D01*
Y168328D01*
X383863Y158172D01*
Y155632D01*
X266294Y337383D02*
Y352617D01*
X258676D01*
X256137Y350078D01*
Y345000D01*
X258676Y342461D01*
X266294D01*
X261215D02*
X256137Y337383D01*
X251059D02*
X245980D01*
X248520D01*
Y352617D01*
X251059Y350078D01*
X230745Y337383D02*
Y352617D01*
X238363Y345000D01*
X228206D01*
X251794Y243382D02*
Y258617D01*
X244176D01*
X241637Y256078D01*
Y251000D01*
X244176Y248461D01*
X251794D01*
X246715D02*
X241637Y243382D01*
X236559D02*
X231480D01*
X234019D01*
Y258617D01*
X236559Y256078D01*
X223863D02*
X221324Y258617D01*
X216245D01*
X213706Y256078D01*
Y253539D01*
X216245Y251000D01*
X218784D01*
X216245D01*
X213706Y248461D01*
Y245922D01*
X216245Y243382D01*
X221324D01*
X223863Y245922D01*
X277956Y335617D02*
Y320382D01*
X285574D01*
X288113Y322922D01*
Y328000D01*
X285574Y330539D01*
X277956D01*
X283034D02*
X288113Y335617D01*
X293191D02*
X298270D01*
X295730D01*
Y320382D01*
X293191Y322922D01*
X316044Y335617D02*
X305887D01*
X316044Y325461D01*
Y322922D01*
X313505Y320382D01*
X308426D01*
X305887Y322922D01*
X249755Y261632D02*
Y276868D01*
X242137D01*
X239598Y274328D01*
Y269250D01*
X242137Y266711D01*
X249755D01*
X244676D02*
X239598Y261632D01*
X234520D02*
X229441D01*
X231980D01*
Y276868D01*
X234520Y274328D01*
X221824Y261632D02*
X216745D01*
X219284D01*
Y276868D01*
X221824Y274328D01*
X238706Y317367D02*
Y302132D01*
X246324D01*
X248863Y304672D01*
Y309750D01*
X246324Y312289D01*
X238706D01*
X243785D02*
X248863Y317367D01*
X253941D02*
X259020D01*
X256480D01*
Y302132D01*
X253941Y304672D01*
X266637D02*
X269176Y302132D01*
X274255D01*
X276794Y304672D01*
Y314828D01*
X274255Y317367D01*
X269176D01*
X266637Y314828D01*
Y304672D01*
X272633Y246054D02*
X287868D01*
Y253672D01*
X285328Y256211D01*
X280250D01*
X277711Y253672D01*
Y246054D01*
Y251132D02*
X272633Y256211D01*
X275172Y261289D02*
X272633Y263828D01*
Y268907D01*
X275172Y271446D01*
X285328D01*
X287868Y268907D01*
Y263828D01*
X285328Y261289D01*
X282789D01*
X280250Y263828D01*
Y271446D01*
X372446Y291133D02*
Y306367D01*
X364828D01*
X362289Y303828D01*
Y298750D01*
X364828Y296211D01*
X372446D01*
X367368D02*
X362289Y291133D01*
X357211Y303828D02*
X354672Y306367D01*
X349593D01*
X347054Y303828D01*
Y301289D01*
X349593Y298750D01*
X347054Y296211D01*
Y293672D01*
X349593Y291133D01*
X354672D01*
X357211Y293672D01*
Y296211D01*
X354672Y298750D01*
X357211Y301289D01*
Y303828D01*
X354672Y298750D02*
X349593D01*
X259196Y371382D02*
Y386618D01*
X251578D01*
X249039Y384078D01*
Y379000D01*
X251578Y376461D01*
X259196D01*
X254118D02*
X249039Y371382D01*
X243961Y386618D02*
X233804D01*
Y384078D01*
X243961Y373922D01*
Y371382D01*
X293633Y360804D02*
X308868D01*
Y368422D01*
X306328Y370961D01*
X301250D01*
X298711Y368422D01*
Y360804D01*
Y365882D02*
X293633Y370961D01*
X308868Y386196D02*
Y376039D01*
X301250D01*
X303789Y381118D01*
Y383657D01*
X301250Y386196D01*
X296172D01*
X293633Y383657D01*
Y378578D01*
X296172Y376039D01*
X587804Y239132D02*
Y254368D01*
X597961D01*
X603039Y241672D02*
X605578Y239132D01*
X610657D01*
X613196Y241672D01*
Y244211D01*
X610657Y246750D01*
X608117D01*
X610657D01*
X613196Y249289D01*
Y251828D01*
X610657Y254368D01*
X605578D01*
X603039Y251828D01*
X385157Y119117D02*
Y103883D01*
X375000D01*
X369922D02*
X364843D01*
X367383D01*
Y119117D01*
X369922Y116578D01*
X183093Y262922D02*
X180554Y260382D01*
X175476D01*
X172937Y262922D01*
Y273078D01*
X175476Y275618D01*
X180554D01*
X183093Y273078D01*
X198328Y260382D02*
X188172D01*
Y268000D01*
X193250Y265461D01*
X195789D01*
X198328Y268000D01*
Y273078D01*
X195789Y275618D01*
X190711D01*
X188172Y273078D01*
X213563Y260382D02*
X208485Y262922D01*
X203407Y268000D01*
Y273078D01*
X205946Y275618D01*
X211024D01*
X213563Y273078D01*
Y270539D01*
X211024Y268000D01*
X203407D01*
X577828Y304843D02*
X580368Y302304D01*
Y297226D01*
X577828Y294687D01*
X567672D01*
X565132Y297226D01*
Y302304D01*
X567672Y304843D01*
X580368Y320078D02*
Y309922D01*
X572750D01*
X575289Y315000D01*
Y317539D01*
X572750Y320078D01*
X567672D01*
X565132Y317539D01*
Y312461D01*
X567672Y309922D01*
X577828Y325157D02*
X580368Y327696D01*
Y332774D01*
X577828Y335313D01*
X575289D01*
X572750Y332774D01*
Y330235D01*
Y332774D01*
X570211Y335313D01*
X567672D01*
X565132Y332774D01*
Y327696D01*
X567672Y325157D01*
X390907Y95828D02*
X393446Y98368D01*
X398524D01*
X401063Y95828D01*
Y85672D01*
X398524Y83132D01*
X393446D01*
X390907Y85672D01*
X378211Y83132D02*
Y98368D01*
X385828Y90750D01*
X375672D01*
X370593Y98368D02*
X360437D01*
Y95828D01*
X370593Y85672D01*
Y83132D01*
X324407Y128328D02*
X326946Y130868D01*
X332024D01*
X334563Y128328D01*
Y118172D01*
X332024Y115632D01*
X326946D01*
X324407Y118172D01*
X311711Y115632D02*
Y130868D01*
X319328Y123250D01*
X309172D01*
X293937Y130868D02*
X299015Y128328D01*
X304093Y123250D01*
Y118172D01*
X301554Y115632D01*
X296476D01*
X293937Y118172D01*
Y120711D01*
X296476Y123250D01*
X304093D01*
X282907Y168078D02*
X285446Y170618D01*
X290524D01*
X293063Y168078D01*
Y157922D01*
X290524Y155382D01*
X285446D01*
X282907Y157922D01*
X270211Y155382D02*
Y170618D01*
X277828Y163000D01*
X267672D01*
X252437Y170618D02*
X262593D01*
Y163000D01*
X257515Y165539D01*
X254976D01*
X252437Y163000D01*
Y157922D01*
X254976Y155382D01*
X260054D01*
X262593Y157922D01*
X283657Y149078D02*
X286196Y151617D01*
X291274D01*
X293813Y149078D01*
Y138922D01*
X291274Y136383D01*
X286196D01*
X283657Y138922D01*
X270961Y136383D02*
Y151617D01*
X278578Y144000D01*
X268422D01*
X255726Y136383D02*
Y151617D01*
X263343Y144000D01*
X253187D01*
X499343Y160172D02*
X496804Y157633D01*
X491726D01*
X489187Y160172D01*
Y170328D01*
X491726Y172868D01*
X496804D01*
X499343Y170328D01*
X512039Y172868D02*
Y157633D01*
X504422Y165250D01*
X514578D01*
X519657Y160172D02*
X522196Y157633D01*
X527274D01*
X529813Y160172D01*
Y162711D01*
X527274Y165250D01*
X524735D01*
X527274D01*
X529813Y167789D01*
Y170328D01*
X527274Y172868D01*
X522196D01*
X519657Y170328D01*
X501407Y386328D02*
X503946Y388867D01*
X509024D01*
X511563Y386328D01*
Y376172D01*
X509024Y373633D01*
X503946D01*
X501407Y376172D01*
X488711Y373633D02*
Y388867D01*
X496328Y381250D01*
X486172D01*
X470937Y373633D02*
X481093D01*
X470937Y383789D01*
Y386328D01*
X473476Y388867D01*
X478554D01*
X481093Y386328D01*
X449172Y377118D02*
X446632Y379657D01*
Y384735D01*
X449172Y387274D01*
X459328D01*
X461867Y384735D01*
Y379657D01*
X459328Y377118D01*
X461867Y364422D02*
X446632D01*
X454250Y372039D01*
Y361882D01*
X461867Y356804D02*
Y351726D01*
Y354265D01*
X446632D01*
X449172Y356804D01*
X157657Y295328D02*
X160196Y297868D01*
X165274D01*
X167813Y295328D01*
Y285172D01*
X165274Y282633D01*
X160196D01*
X157657Y285172D01*
X144961Y282633D02*
Y297868D01*
X152578Y290250D01*
X142422D01*
X137343Y295328D02*
X134804Y297868D01*
X129726D01*
X127187Y295328D01*
Y285172D01*
X129726Y282633D01*
X134804D01*
X137343Y285172D01*
Y295328D01*
X90922Y278657D02*
X88382Y281196D01*
Y286274D01*
X90922Y288813D01*
X101078D01*
X103617Y286274D01*
Y281196D01*
X101078Y278657D01*
X90922Y273578D02*
X88382Y271039D01*
Y265961D01*
X90922Y263422D01*
X93461D01*
X96000Y265961D01*
Y268500D01*
Y265961D01*
X98539Y263422D01*
X101078D01*
X103617Y265961D01*
Y271039D01*
X101078Y273578D01*
Y258343D02*
X103617Y255804D01*
Y250726D01*
X101078Y248186D01*
X90922D01*
X88382Y250726D01*
Y255804D01*
X90922Y258343D01*
X93461D01*
X96000Y255804D01*
Y248186D01*
X213672Y171907D02*
X211133Y174446D01*
Y179524D01*
X213672Y182063D01*
X223828D01*
X226367Y179524D01*
Y174446D01*
X223828Y171907D01*
X213672Y166828D02*
X211133Y164289D01*
Y159211D01*
X213672Y156672D01*
X216211D01*
X218750Y159211D01*
Y161750D01*
Y159211D01*
X221289Y156672D01*
X223828D01*
X226367Y159211D01*
Y164289D01*
X223828Y166828D01*
X213672Y151593D02*
X211133Y149054D01*
Y143976D01*
X213672Y141437D01*
X216211D01*
X218750Y143976D01*
X221289Y141437D01*
X223828D01*
X226367Y143976D01*
Y149054D01*
X223828Y151593D01*
X221289D01*
X218750Y149054D01*
X216211Y151593D01*
X213672D01*
X218750Y149054D02*
Y143976D01*
X194657Y359828D02*
X197196Y362368D01*
X202274D01*
X204813Y359828D01*
Y349672D01*
X202274Y347132D01*
X197196D01*
X194657Y349672D01*
X189578Y359828D02*
X187039Y362368D01*
X181961D01*
X179422Y359828D01*
Y357289D01*
X181961Y354750D01*
X184500D01*
X181961D01*
X179422Y352211D01*
Y349672D01*
X181961Y347132D01*
X187039D01*
X189578Y349672D01*
X174343Y359828D02*
X171804Y362368D01*
X166726D01*
X164187Y359828D01*
Y357289D01*
X166726Y354750D01*
X169265D01*
X166726D01*
X164187Y352211D01*
Y349672D01*
X166726Y347132D01*
X171804D01*
X174343Y349672D01*
X175843Y370172D02*
X173304Y367632D01*
X168226D01*
X165687Y370172D01*
Y380328D01*
X168226Y382868D01*
X173304D01*
X175843Y380328D01*
X191078Y382868D02*
X180922D01*
X191078Y372711D01*
Y370172D01*
X188539Y367632D01*
X183461D01*
X180922Y370172D01*
X196157Y367632D02*
X206313D01*
Y370172D01*
X196157Y380328D01*
Y382868D01*
X179578Y140093D02*
X182118Y137554D01*
Y132476D01*
X179578Y129937D01*
X169422D01*
X166882Y132476D01*
Y137554D01*
X169422Y140093D01*
X166882Y155328D02*
Y145172D01*
X177039Y155328D01*
X179578D01*
X182118Y152789D01*
Y147711D01*
X179578Y145172D01*
X166882Y170563D02*
Y160407D01*
X177039Y170563D01*
X179578D01*
X182118Y168024D01*
Y162946D01*
X179578Y160407D01*
X202328Y138632D02*
X204868Y136093D01*
Y131015D01*
X202328Y128476D01*
X192172D01*
X189632Y131015D01*
Y136093D01*
X192172Y138632D01*
X189632Y153868D02*
Y143711D01*
X199789Y153868D01*
X202328D01*
X204868Y151328D01*
Y146250D01*
X202328Y143711D01*
X189632Y158946D02*
Y164024D01*
Y161485D01*
X204868D01*
X202328Y158946D01*
X428172Y209907D02*
X425633Y212446D01*
Y217524D01*
X428172Y220063D01*
X438328D01*
X440868Y217524D01*
Y212446D01*
X438328Y209907D01*
X440868Y194672D02*
Y204828D01*
X430711Y194672D01*
X428172D01*
X425633Y197211D01*
Y202289D01*
X428172Y204828D01*
Y189593D02*
X425633Y187054D01*
Y181976D01*
X428172Y179436D01*
X438328D01*
X440868Y181976D01*
Y187054D01*
X438328Y189593D01*
X428172D01*
X501672Y334887D02*
X499132Y337426D01*
Y342505D01*
X501672Y345044D01*
X511828D01*
X514367Y342505D01*
Y337426D01*
X511828Y334887D01*
X514367Y329809D02*
Y324730D01*
Y327270D01*
X499132D01*
X501672Y329809D01*
X511828Y317113D02*
X514367Y314574D01*
Y309495D01*
X511828Y306956D01*
X501672D01*
X499132Y309495D01*
Y314574D01*
X501672Y317113D01*
X504211D01*
X506750Y314574D01*
Y306956D01*
X474637Y322578D02*
X477176Y325117D01*
X482255D01*
X484794Y322578D01*
Y312422D01*
X482255Y309883D01*
X477176D01*
X474637Y312422D01*
X469559Y309883D02*
X464480D01*
X467020D01*
Y325117D01*
X469559Y322578D01*
X456863D02*
X454324Y325117D01*
X449245D01*
X446706Y322578D01*
Y320039D01*
X449245Y317500D01*
X446706Y314961D01*
Y312422D01*
X449245Y309883D01*
X454324D01*
X456863Y312422D01*
Y314961D01*
X454324Y317500D01*
X456863Y320039D01*
Y322578D01*
X454324Y317500D02*
X449245D01*
X329113Y243922D02*
X326574Y241382D01*
X321495D01*
X318956Y243922D01*
Y254078D01*
X321495Y256618D01*
X326574D01*
X329113Y254078D01*
X334191Y256618D02*
X339270D01*
X336730D01*
Y241382D01*
X334191Y243922D01*
X346887Y241382D02*
X357044D01*
Y243922D01*
X346887Y254078D01*
Y256618D01*
X497328Y253113D02*
X499868Y250574D01*
Y245495D01*
X497328Y242956D01*
X487172D01*
X484632Y245495D01*
Y250574D01*
X487172Y253113D01*
X484632Y258191D02*
Y263270D01*
Y260730D01*
X499868D01*
X497328Y258191D01*
X499868Y281044D02*
X497328Y275965D01*
X492250Y270887D01*
X487172D01*
X484632Y273426D01*
Y278505D01*
X487172Y281044D01*
X489711D01*
X492250Y278505D01*
Y270887D01*
X501887Y235828D02*
X504426Y238368D01*
X509505D01*
X512044Y235828D01*
Y225672D01*
X509505Y223132D01*
X504426D01*
X501887Y225672D01*
X496809Y223132D02*
X491730D01*
X494270D01*
Y238368D01*
X496809Y235828D01*
X473956Y238368D02*
X484113D01*
Y230750D01*
X479035Y233289D01*
X476495D01*
X473956Y230750D01*
Y225672D01*
X476495Y223132D01*
X481574D01*
X484113Y225672D01*
X410387Y257078D02*
X412926Y259618D01*
X418004D01*
X420544Y257078D01*
Y246922D01*
X418004Y244382D01*
X412926D01*
X410387Y246922D01*
X405309Y244382D02*
X400230D01*
X402769D01*
Y259618D01*
X405309Y257078D01*
X384995Y244382D02*
Y259618D01*
X392613Y252000D01*
X382456D01*
X330863Y198422D02*
X328324Y195882D01*
X323245D01*
X320706Y198422D01*
Y208578D01*
X323245Y211117D01*
X328324D01*
X330863Y208578D01*
X335941Y211117D02*
X341020D01*
X338480D01*
Y195882D01*
X335941Y198422D01*
X358794Y211117D02*
X348637D01*
X358794Y200961D01*
Y198422D01*
X356255Y195882D01*
X351176D01*
X348637Y198422D01*
X413137Y383578D02*
X415676Y386118D01*
X420755D01*
X423294Y383578D01*
Y373422D01*
X420755Y370882D01*
X415676D01*
X413137Y373422D01*
X408059Y370882D02*
X402980D01*
X405520D01*
Y386118D01*
X408059Y383578D01*
X395363D02*
X392824Y386118D01*
X387745D01*
X385206Y383578D01*
Y373422D01*
X387745Y370882D01*
X392824D01*
X395363Y373422D01*
Y383578D01*
X423211Y337672D02*
X420672Y335132D01*
X415593D01*
X413054Y337672D01*
Y347828D01*
X415593Y350368D01*
X420672D01*
X423211Y347828D01*
X428289D02*
X430828Y350368D01*
X435907D01*
X438446Y347828D01*
Y337672D01*
X435907Y335132D01*
X430828D01*
X428289Y337672D01*
Y340211D01*
X430828Y342750D01*
X438446D01*
X359539Y326578D02*
X362078Y329118D01*
X367157D01*
X369696Y326578D01*
Y316422D01*
X367157Y313883D01*
X362078D01*
X359539Y316422D01*
X354461Y326578D02*
X351922Y329118D01*
X346843D01*
X344304Y326578D01*
Y324039D01*
X346843Y321500D01*
X344304Y318961D01*
Y316422D01*
X346843Y313883D01*
X351922D01*
X354461Y316422D01*
Y318961D01*
X351922Y321500D01*
X354461Y324039D01*
Y326578D01*
X351922Y321500D02*
X346843D01*
X397672Y297539D02*
X395132Y300078D01*
Y305157D01*
X397672Y307696D01*
X407828D01*
X410368Y305157D01*
Y300078D01*
X407828Y297539D01*
X395132Y292461D02*
Y282304D01*
X397672D01*
X407828Y292461D01*
X410368D01*
X346289Y285078D02*
X348828Y287617D01*
X353907D01*
X356446Y285078D01*
Y274922D01*
X353907Y272382D01*
X348828D01*
X346289Y274922D01*
X331054Y287617D02*
X336132Y285078D01*
X341211Y280000D01*
Y274922D01*
X338672Y272382D01*
X333593D01*
X331054Y274922D01*
Y277461D01*
X333593Y280000D01*
X341211D01*
X458461Y288672D02*
X455922Y286133D01*
X450843D01*
X448304Y288672D01*
Y298828D01*
X450843Y301367D01*
X455922D01*
X458461Y298828D01*
X473696Y286133D02*
X463539D01*
Y293750D01*
X468618Y291211D01*
X471157D01*
X473696Y293750D01*
Y298828D01*
X471157Y301367D01*
X466078D01*
X463539Y298828D01*
X411539Y200828D02*
X414078Y203368D01*
X419157D01*
X421696Y200828D01*
Y190672D01*
X419157Y188132D01*
X414078D01*
X411539Y190672D01*
X398843Y188132D02*
Y203368D01*
X406461Y195750D01*
X396304D01*
X380922Y191789D02*
X378382Y194328D01*
Y199407D01*
X380922Y201946D01*
X391078D01*
X393618Y199407D01*
Y194328D01*
X391078Y191789D01*
X380922Y186711D02*
X378382Y184172D01*
Y179093D01*
X380922Y176554D01*
X383461D01*
X386000Y179093D01*
Y181632D01*
Y179093D01*
X388539Y176554D01*
X391078D01*
X393618Y179093D01*
Y184172D01*
X391078Y186711D01*
X374328Y246211D02*
X376867Y243672D01*
Y238593D01*
X374328Y236054D01*
X364172D01*
X361632Y238593D01*
Y243672D01*
X364172Y246211D01*
X361632Y261446D02*
Y251289D01*
X371789Y261446D01*
X374328D01*
X376867Y258907D01*
Y253828D01*
X374328Y251289D01*
X449672Y174500D02*
X447132Y177039D01*
Y182118D01*
X449672Y184657D01*
X459828D01*
X462368Y182118D01*
Y177039D01*
X459828Y174500D01*
X462368Y169422D02*
Y164343D01*
Y166882D01*
X447132D01*
X449672Y169422D01*
D80*
X15000Y258500D02*
X17000D01*
X15000Y180500D02*
X17000D01*
M02*
