G04*
G04 #@! TF.GenerationSoftware,Altium Limited,Altium Designer,24.7.2 (38)*
G04*
G04 Layer_Color=8421504*
%FSLAX44Y44*%
%MOMM*%
G71*
G04*
G04 #@! TF.SameCoordinates,83C183C4-3B18-41F5-843C-3348C90CF240*
G04*
G04*
G04 #@! TF.FilePolarity,Positive*
G04*
G01*
G75*
%ADD16R,1.8001X0.8000*%
%ADD17R,0.8000X1.8001*%
%ADD18C,0.2500*%
%ADD19R,0.5000X0.6000*%
%ADD20R,0.4000X0.6000*%
%ADD21R,0.6000X0.5000*%
%ADD22R,0.3000X0.2500*%
%ADD23R,0.6725X0.7154*%
%ADD24R,0.5153X0.4725*%
%ADD25R,1.0062X1.1051*%
%ADD26R,0.4725X0.5153*%
%ADD27R,1.1051X1.0062*%
%ADD28R,0.7154X0.6725*%
%ADD29R,0.5393X0.4725*%
%ADD30R,0.4500X0.5000*%
%ADD31R,0.6000X0.4000*%
%ADD32R,0.2500X0.3000*%
%ADD33R,0.7561X0.2925*%
%ADD34R,0.4500X0.6000*%
G04:AMPARAMS|DCode=35|XSize=0.7561mm|YSize=0.2925mm|CornerRadius=0.1462mm|HoleSize=0mm|Usage=FLASHONLY|Rotation=180.000|XOffset=0mm|YOffset=0mm|HoleType=Round|Shape=RoundedRectangle|*
%AMROUNDEDRECTD35*
21,1,0.7561,0.0000,0,0,180.0*
21,1,0.4636,0.2925,0,0,180.0*
1,1,0.2925,-0.2318,0.0000*
1,1,0.2925,0.2318,0.0000*
1,1,0.2925,0.2318,0.0000*
1,1,0.2925,-0.2318,0.0000*
%
%ADD35ROUNDEDRECTD35*%
%ADD36R,0.9000X0.7500*%
%ADD37R,1.0500X1.6000*%
%ADD38R,0.8000X1.4000*%
%ADD39R,0.6700X0.3000*%
%ADD40R,0.6000X0.6000*%
%ADD41R,1.0000X1.2000*%
%ADD42R,0.5500X0.5500*%
%ADD43R,0.7000X0.5000*%
%ADD44R,0.6153X0.5725*%
%ADD45R,0.3302X0.4064*%
G04:AMPARAMS|DCode=46|XSize=0.3mm|YSize=0.49mm|CornerRadius=0.0495mm|HoleSize=0mm|Usage=FLASHONLY|Rotation=270.000|XOffset=0mm|YOffset=0mm|HoleType=Round|Shape=RoundedRectangle|*
%AMROUNDEDRECTD46*
21,1,0.3000,0.3910,0,0,270.0*
21,1,0.2010,0.4900,0,0,270.0*
1,1,0.0990,-0.1955,-0.1005*
1,1,0.0990,-0.1955,0.1005*
1,1,0.0990,0.1955,0.1005*
1,1,0.0990,0.1955,-0.1005*
%
%ADD46ROUNDEDRECTD46*%
%ADD47R,1.3500X0.4000*%
%ADD48R,0.8582X0.8563*%
%ADD49R,0.9121X0.9587*%
%ADD50R,0.6000X0.4500*%
G04:AMPARAMS|DCode=51|XSize=2.2mm|YSize=0.345mm|CornerRadius=0.1725mm|HoleSize=0mm|Usage=FLASHONLY|Rotation=180.000|XOffset=0mm|YOffset=0mm|HoleType=Round|Shape=RoundedRectangle|*
%AMROUNDEDRECTD51*
21,1,2.2000,0.0000,0,0,180.0*
21,1,1.8550,0.3450,0,0,180.0*
1,1,0.3450,-0.9275,0.0000*
1,1,0.3450,0.9275,0.0000*
1,1,0.3450,0.9275,0.0000*
1,1,0.3450,-0.9275,0.0000*
%
%ADD51ROUNDEDRECTD51*%
%ADD52R,0.2627X0.3541*%
%ADD53R,0.4725X0.5596*%
%ADD54R,0.5725X0.6153*%
%ADD55R,0.4725X0.2725*%
%ADD56R,1.7062X1.1546*%
%ADD57R,1.0000X1.9300*%
%ADD58R,0.5200X0.5200*%
%ADD59R,0.5541X0.4627*%
%ADD60R,0.3541X0.2627*%
%ADD61R,0.6500X0.6400*%
%ADD62R,0.5000X0.4000*%
%ADD63R,0.6121X0.6596*%
D16*
X623000Y315250D02*
D03*
Y299250D02*
D03*
D17*
X485998Y113500D02*
D03*
X469999D02*
D03*
D18*
X402766Y306250D02*
D03*
X320266Y301250D02*
D03*
X325266D02*
D03*
X402766D02*
D03*
X310266Y296250D02*
D03*
X397766D02*
D03*
X320266Y291250D02*
D03*
X397766D02*
D03*
X315266Y286250D02*
D03*
Y281250D02*
D03*
X407766D02*
D03*
X412766D02*
D03*
X320266Y271250D02*
D03*
X397766D02*
D03*
X402766D02*
D03*
X412766D02*
D03*
X397766Y261250D02*
D03*
X402766D02*
D03*
X407766D02*
D03*
X412766D02*
D03*
X310266Y256250D02*
D03*
X315266D02*
D03*
X325266Y251250D02*
D03*
X397766D02*
D03*
X402766D02*
D03*
X407766D02*
D03*
X412766D02*
D03*
X392766Y246250D02*
D03*
X397766D02*
D03*
X402766D02*
D03*
X407766D02*
D03*
X412766D02*
D03*
X320266Y251250D02*
D03*
D19*
X274000Y230750D02*
D03*
X252500Y361750D02*
D03*
X283750Y346000D02*
D03*
X242500Y361750D02*
D03*
X272000Y212500D02*
D03*
D20*
X286000Y291750D02*
D03*
D21*
X262500Y255750D02*
D03*
X528500Y193500D02*
D03*
X243750Y197250D02*
D03*
Y187250D02*
D03*
X429500Y118750D02*
D03*
D22*
X227500Y291250D02*
D03*
Y301250D02*
D03*
X203500D02*
D03*
D23*
X306500Y191464D02*
D03*
X388000Y220536D02*
D03*
X64000Y278464D02*
D03*
X325750Y153286D02*
D03*
X150750Y373000D02*
D03*
X64000Y288036D02*
D03*
X629250Y201786D02*
D03*
D24*
X372286Y225500D02*
D03*
D25*
X411500Y229750D02*
D03*
X472250Y254494D02*
D03*
D26*
X434250Y234536D02*
D03*
X114250Y274465D02*
D03*
D27*
X434494Y253000D02*
D03*
X149000Y77250D02*
D03*
D28*
X430464Y274250D02*
D03*
X463786Y231000D02*
D03*
D29*
X431334Y294500D02*
D03*
D30*
X338250Y297000D02*
D03*
Y304500D02*
D03*
X304000Y349000D02*
D03*
D31*
X446250Y154000D02*
D03*
X426750Y154500D02*
D03*
X559750Y164500D02*
D03*
X388750Y136500D02*
D03*
Y145500D02*
D03*
X585000Y192250D02*
D03*
Y201250D02*
D03*
X375250Y103250D02*
D03*
D32*
X463500Y213250D02*
D03*
D33*
X553250Y357500D02*
D03*
D34*
X500750Y361500D02*
D03*
D35*
X531689Y357500D02*
D03*
D36*
X585000Y204500D02*
D03*
X412500Y89500D02*
D03*
X273000Y127500D02*
D03*
X451750Y90250D02*
D03*
D37*
X494500Y145500D02*
D03*
D38*
X411750Y114250D02*
D03*
D39*
X364650Y134960D02*
D03*
Y139960D02*
D03*
X545750Y190250D02*
D03*
X560550D02*
D03*
Y195250D02*
D03*
Y200250D02*
D03*
Y205250D02*
D03*
X364650Y144960D02*
D03*
X146250Y123500D02*
D03*
X131450D02*
D03*
Y118500D02*
D03*
Y128500D02*
D03*
X364650Y149960D02*
D03*
D40*
X613750Y71000D02*
D03*
X561000Y70750D02*
D03*
D41*
X610500Y47750D02*
D03*
X560500D02*
D03*
X585500D02*
D03*
D42*
X247750Y72750D02*
D03*
X238750D02*
D03*
D43*
X263250Y72250D02*
D03*
D44*
X168929Y78000D02*
D03*
D45*
X122500Y191175D02*
D03*
D46*
X108600Y208500D02*
D03*
Y213500D02*
D03*
D47*
X56250Y219500D02*
D03*
Y206500D02*
D03*
D48*
X41250Y305240D02*
D03*
D49*
X607500Y204017D02*
D03*
X305250Y161017D02*
D03*
D50*
X452000Y335250D02*
D03*
X122750Y328500D02*
D03*
D51*
X193692Y212425D02*
D03*
Y218775D02*
D03*
X145693Y199725D02*
D03*
Y193375D02*
D03*
Y206075D02*
D03*
D52*
X224324Y194543D02*
D03*
X123750Y221293D02*
D03*
D53*
X224500Y125238D02*
D03*
Y132762D02*
D03*
X592250Y70750D02*
D03*
D54*
X112500Y115964D02*
D03*
D55*
X179000Y282750D02*
D03*
D56*
X171500Y335758D02*
D03*
D57*
X121750Y374000D02*
D03*
X77750D02*
D03*
D58*
X168250Y96000D02*
D03*
D59*
X74250Y113500D02*
D03*
D60*
X74543Y130250D02*
D03*
D61*
X76250Y144000D02*
D03*
D62*
X103250Y327250D02*
D03*
D63*
X82750Y327762D02*
D03*
M02*
