M48
;Layer_Color=9474304
;FILE_FORMAT=2:4
INCH,TZ
;TYPE=PLATED
T01F00S00C0.0118
T03F00S00C0.0280
T04F00S00C0.0335
T05F00S00C0.0413
;TYPE=NON_PLATED
T06F00S00C0.0335
%
T01
X18844Y6333
X14468Y13179
T03
X13917Y2657
X13238Y3839
X13514Y4311
X13484Y4783
X22707Y2539
X21875Y5742
X15938Y7375
X14360Y7808
X14754Y8337
X15146Y9222
X15670Y9224
X11545Y9488
X11270Y9016
X11476Y8071
X11211Y10959
X13967Y13189
X8366Y8632
T04
X2224Y7657
Y9626
T05
X984Y866
Y1850
X1969
Y866
X2953
Y1850
X3937
Y866
X4921
Y1850
X5906
Y866
X6890
Y1850
X7874
Y866
X8858
Y1850
X9843
Y866
X10827
Y1850
X11811
Y866
X12795
Y1850
X13780
Y866
X14764
Y1850
X15748
Y866
X16732
Y1850
X17717
Y866
X18701
Y1850
X19685
Y866
T06
X22461Y856
X23642
M30
