G04*
G04 #@! TF.GenerationSoftware,Altium Limited,Altium Designer,24.7.2 (38)*
G04*
G04 Layer_Color=32768*
%FSLAX25Y25*%
%MOIN*%
G70*
G04*
G04 #@! TF.SameCoordinates,AE13ACC6-ACDC-44EC-B660-6A6B6F5FC903*
G04*
G04*
G04 #@! TF.FilePolarity,Positive*
G04*
G01*
G75*
%ADD11C,0.00394*%
%ADD12C,0.00787*%
%ADD13C,0.00591*%
%ADD111C,0.00512*%
%ADD114C,0.00100*%
%ADD116C,0.00820*%
D11*
X114764Y98917D02*
X116929D01*
X114764Y103051D02*
X116929D01*
Y98917D02*
Y103051D01*
X114764Y98917D02*
Y103051D01*
X132087Y120472D02*
X134252D01*
X132087Y116339D02*
X134252D01*
X132087D02*
Y120472D01*
X134252Y116339D02*
Y120472D01*
X52106Y51968D02*
X57225D01*
X52106Y43307D02*
Y51968D01*
Y43307D02*
X57225D01*
Y51968D01*
X118602Y137992D02*
X120768D01*
X118602Y133858D02*
X120768D01*
X118602D02*
Y137992D01*
X120768Y133858D02*
Y137992D01*
D12*
X103839Y91929D02*
X107972D01*
X103839Y89764D02*
Y91929D01*
Y89764D02*
X107972D01*
Y91929D01*
X78740Y119784D02*
X90945D01*
X78740Y111516D02*
Y119784D01*
Y111516D02*
X90945D01*
Y119784D01*
X107579Y137303D02*
X111909D01*
X107579Y135138D02*
Y137303D01*
Y135138D02*
X111909D01*
Y137303D01*
X108661Y115945D02*
X112992D01*
X108661Y113779D02*
Y115945D01*
Y113779D02*
X112992D01*
Y115945D01*
X106004Y127559D02*
Y129725D01*
X101673Y127559D02*
X106004D01*
X101673D02*
Y129725D01*
X106004D01*
X129035Y125689D02*
Y127854D01*
X133169D01*
Y125689D02*
Y127854D01*
X129035Y125689D02*
X133169D01*
X119685Y79232D02*
X121653D01*
Y75295D02*
Y79232D01*
X119685Y75295D02*
X121653D01*
X119685D02*
Y79232D01*
X228346Y93898D02*
Y99410D01*
X219685Y93898D02*
X228346D01*
X219685D02*
Y99410D01*
X228346D01*
X186417Y131693D02*
X192717D01*
Y134843D01*
X186417D02*
X192717D01*
X186417Y131693D02*
Y134843D01*
X177362Y75112D02*
Y79049D01*
Y75112D02*
X179331D01*
Y79049D01*
X177362D02*
X179331D01*
X115551Y121063D02*
Y123228D01*
X111221Y121063D02*
X115551D01*
X111221D02*
Y123228D01*
X115551D01*
X174606Y61024D02*
X176772D01*
Y56693D02*
Y61024D01*
X174606Y56693D02*
X176772D01*
X174606D02*
Y61024D01*
X85335Y40945D02*
X87303D01*
X85335D02*
Y44882D01*
X87303D01*
Y40945D02*
Y44882D01*
X206988Y76083D02*
X209154D01*
X206988D02*
Y80216D01*
X209154D01*
Y76083D02*
Y80216D01*
X89370Y48819D02*
Y52756D01*
X87402D02*
X89370D01*
X87402Y48819D02*
Y52756D01*
Y48819D02*
X89370D01*
X160433Y28642D02*
Y35728D01*
Y28642D02*
X164370D01*
Y35728D01*
X160433D02*
X164370D01*
X74658Y72532D02*
Y92232D01*
X58958Y72532D02*
X74658D01*
X58958D02*
Y92232D01*
X74658D01*
X169390Y106988D02*
X173327D01*
Y108957D01*
X169390D02*
X173327D01*
X169390Y106988D02*
Y108957D01*
X99508Y141339D02*
Y143504D01*
X95374Y141339D02*
X99508D01*
X95374D02*
Y143504D01*
X99508D01*
X150394Y112008D02*
X152559D01*
X150394D02*
Y116142D01*
X152559D01*
Y112008D02*
Y116142D01*
X229232Y79626D02*
X231398D01*
Y75295D02*
Y79626D01*
X229232Y75295D02*
X231398D01*
X229232D02*
Y79626D01*
X76870Y47539D02*
X78839D01*
Y43602D02*
Y47539D01*
X76870Y43602D02*
X78839D01*
X76870D02*
Y47539D01*
X118602Y57382D02*
Y63681D01*
Y57382D02*
X121752D01*
Y63681D01*
X118602D02*
X121752D01*
X219291Y60827D02*
Y65158D01*
Y60827D02*
X221457D01*
Y65158D01*
X219291D02*
X221457D01*
X193799Y53740D02*
X207185D01*
Y60827D01*
X193799D02*
X207185D01*
X193799Y53740D02*
Y60827D01*
X192913Y143701D02*
X197638D01*
X192913Y140945D02*
Y143701D01*
Y140945D02*
X197638D01*
Y143701D01*
X179331Y131496D02*
Y136220D01*
X176575D02*
X179331D01*
X176575Y131496D02*
Y136220D01*
Y131496D02*
X179331D01*
X209634Y142126D02*
X217508D01*
X209634Y134252D02*
Y142126D01*
Y134252D02*
X217508D01*
Y142126D01*
X154626Y42224D02*
X163287D01*
Y47736D01*
X154626D02*
X163287D01*
X154626Y42224D02*
Y47736D01*
X105512Y43602D02*
Y50689D01*
Y43602D02*
X109449D01*
Y50689D01*
X105512D02*
X109449D01*
X67520Y47328D02*
X69488D01*
Y43391D02*
Y47328D01*
X67520Y43391D02*
X69488D01*
X67520D02*
Y47328D01*
X180059Y83307D02*
Y84606D01*
X182539D01*
Y83307D02*
Y84606D01*
X180059Y83307D02*
X182539D01*
X226378Y105807D02*
Y112894D01*
X222441D02*
X226378D01*
X222441Y105807D02*
Y112894D01*
Y105807D02*
X226378D01*
X166929Y61221D02*
X169095D01*
Y56890D02*
Y61221D01*
X166929Y56890D02*
X169095D01*
X166929D02*
Y61221D01*
X151969Y53347D02*
Y57677D01*
Y53347D02*
X154134D01*
Y57677D01*
X151969D02*
X154134D01*
X127264Y56496D02*
Y60433D01*
Y56496D02*
X129232D01*
Y60433D01*
X127264D02*
X129232D01*
X169980Y92815D02*
X171949D01*
Y88878D02*
Y92815D01*
X169980Y88878D02*
X171949D01*
X169980D02*
Y92815D01*
X71457Y111319D02*
Y115256D01*
X69488D02*
X71457D01*
X69488Y111319D02*
Y115256D01*
Y111319D02*
X71457D01*
X45965Y107579D02*
Y111516D01*
X43996D02*
X45965D01*
X43996Y107579D02*
Y111516D01*
Y107579D02*
X45965D01*
X64370Y133465D02*
X70669D01*
Y120866D02*
Y133465D01*
X64370Y120866D02*
X70669D01*
X64370D02*
Y133465D01*
X58366Y146935D02*
X60335D01*
Y142998D02*
Y146935D01*
X58366Y142998D02*
X60335D01*
X58366D02*
Y146935D01*
X111122Y82579D02*
Y84744D01*
X106988Y82579D02*
X111122D01*
X106988D02*
Y84744D01*
X111122D01*
X111024Y73032D02*
Y76181D01*
X104724Y73032D02*
X111024D01*
X104724D02*
Y76181D01*
X111024D01*
X94882Y77756D02*
X97047D01*
Y73622D02*
Y77756D01*
X94882Y73622D02*
X97047D01*
X94882D02*
Y77756D01*
X87726Y76772D02*
X88907D01*
Y74410D02*
Y76772D01*
X87726Y74410D02*
X88907D01*
X87726D02*
Y76772D01*
X106004Y105610D02*
Y107775D01*
X101673Y105610D02*
X106004D01*
X101673D02*
Y107775D01*
X106004D01*
X104429Y96555D02*
Y100886D01*
X102264D02*
X104429D01*
X102264Y96555D02*
Y100886D01*
Y96555D02*
X104429D01*
X74803Y96949D02*
Y98130D01*
X77165D01*
Y96949D02*
Y98130D01*
X74803Y96949D02*
X77165D01*
X184350Y99803D02*
X187500D01*
X184350D02*
Y106102D01*
X187500D01*
Y99803D02*
Y106102D01*
X160433Y84545D02*
Y90844D01*
Y84545D02*
X163583D01*
Y90844D01*
X160433D02*
X163583D01*
X151772Y86909D02*
X153740D01*
Y82972D02*
Y86909D01*
X151772Y82972D02*
X153740D01*
X151772D02*
Y86909D01*
X147047Y87795D02*
Y89764D01*
X143110Y87795D02*
X147047D01*
X143110D02*
Y89764D01*
X147047D01*
X118405Y86122D02*
Y88090D01*
X122343D01*
Y86122D02*
Y88090D01*
X118405Y86122D02*
X122343D01*
X128543Y86811D02*
Y91732D01*
X136417D01*
Y86811D02*
Y91732D01*
X128543Y86811D02*
X136417D01*
X170669Y98032D02*
Y101181D01*
X176969D01*
Y98032D02*
Y101181D01*
X170669Y98032D02*
X176969D01*
X182677Y89961D02*
Y91929D01*
X178740Y89961D02*
X182677D01*
X178740D02*
Y91929D01*
X182677D01*
X167717Y123486D02*
X171653D01*
Y125455D01*
X167717D02*
X171653D01*
X167717Y123486D02*
Y125455D01*
X143405Y107874D02*
X145571D01*
X143405D02*
Y112008D01*
X145571D01*
Y107874D02*
Y112008D01*
X169291Y114961D02*
Y116929D01*
X173228D01*
Y114961D02*
Y116929D01*
X169291Y114961D02*
X173228D01*
X160630Y126097D02*
Y130034D01*
X158661D02*
X160630D01*
X158661Y126097D02*
Y130034D01*
Y126097D02*
X160630D01*
X155807Y139764D02*
X159744D01*
Y141732D01*
X155807D02*
X159744D01*
X155807Y139764D02*
Y141732D01*
D13*
X215216Y82185D02*
X220335D01*
X215216Y73524D02*
Y82185D01*
Y73524D02*
X220335D01*
Y82185D01*
X138091Y60417D02*
X143209D01*
X138091Y51756D02*
Y60417D01*
Y51756D02*
X143209D01*
Y60417D01*
D111*
X27362Y79724D02*
X30118Y81299D01*
X27362Y82874D02*
X30118Y81299D01*
X27362Y79724D02*
Y82874D01*
X3150Y71653D02*
X5906D01*
Y129724D01*
X3150Y101181D02*
Y102165D01*
Y101181D02*
X22835D01*
X5906Y71653D02*
X22835D01*
X3150Y70669D02*
Y71653D01*
X1575Y70669D02*
X3150D01*
X1575D02*
Y102165D01*
X3150D01*
X22835Y71653D02*
Y101181D01*
D114*
X64695Y97283D02*
Y98583D01*
Y97283D02*
X67195D01*
Y98583D01*
X64695D02*
X67195D01*
X66395Y97283D02*
X67195D01*
Y98583D01*
X66395D02*
X67195D01*
X66395Y97283D02*
Y98583D01*
X64695D02*
X65495D01*
X64695Y97283D02*
Y98583D01*
Y97283D02*
X65495D01*
Y98583D01*
D116*
X6693Y104134D02*
X10629D01*
Y106102D01*
X9973Y106758D01*
X8661D01*
X8005Y106102D01*
Y104134D01*
X9973Y110693D02*
X10629Y110038D01*
Y108726D01*
X9973Y108070D01*
X7349D01*
X6693Y108726D01*
Y110038D01*
X7349Y110693D01*
X10629Y112005D02*
X6693D01*
Y113973D01*
X7349Y114629D01*
X8005D01*
X8661Y113973D01*
Y112005D01*
Y113973D01*
X9317Y114629D01*
X9973D01*
X10629Y113973D01*
Y112005D01*
Y122501D02*
Y119877D01*
X6693D01*
Y122501D01*
X8661Y119877D02*
Y121189D01*
X10629Y126436D02*
X6693D01*
Y124469D01*
X7349Y123813D01*
X8661D01*
X9317Y124469D01*
Y126436D01*
X5381Y129060D02*
Y129716D01*
X6037Y130372D01*
X9317D01*
Y128404D01*
X8661Y127748D01*
X7349D01*
X6693Y128404D01*
Y130372D01*
Y133652D02*
Y132340D01*
X7349Y131684D01*
X8661D01*
X9317Y132340D01*
Y133652D01*
X8661Y134308D01*
X8005D01*
Y131684D01*
M02*
