G04*
G04 #@! TF.GenerationSoftware,Altium Limited,Altium Designer,24.7.2 (38)*
G04*
G04 Layer_Physical_Order=1*
G04 Layer_Color=255*
%FSLAX25Y25*%
%MOIN*%
G70*
G04*
G04 #@! TF.SameCoordinates,98F62D9F-8C32-4B21-931F-99D976C78984*
G04*
G04*
G04 #@! TF.FilePolarity,Positive*
G04*
G01*
G75*
%ADD15C,0.01000*%
%ADD18R,0.02362X0.01575*%
%ADD19C,0.00984*%
%ADD20R,0.02648X0.02816*%
%ADD21R,0.02165X0.02165*%
%ADD22R,0.01860X0.02203*%
%ADD23R,0.03543X0.02953*%
%ADD24R,0.02362X0.01968*%
%ADD25R,0.02423X0.02254*%
%ADD26R,0.02047X0.02047*%
%ADD27R,0.01968X0.02362*%
%ADD28R,0.01034X0.01394*%
%ADD29R,0.03591X0.03775*%
%ADD30R,0.01575X0.02362*%
%ADD31R,0.01181X0.00984*%
%ADD32R,0.02029X0.01860*%
%ADD33R,0.03961X0.04351*%
%ADD34R,0.01860X0.02029*%
%ADD35R,0.04351X0.03961*%
%ADD36R,0.02816X0.02648*%
%ADD37R,0.02123X0.01860*%
%ADD38R,0.01772X0.01968*%
%ADD39R,0.00984X0.01181*%
%ADD40R,0.02977X0.01152*%
%ADD41R,0.01772X0.02362*%
G04:AMPARAMS|DCode=42|XSize=29.77mil|YSize=11.52mil|CornerRadius=5.76mil|HoleSize=0mil|Usage=FLASHONLY|Rotation=180.000|XOffset=0mil|YOffset=0mil|HoleType=Round|Shape=RoundedRectangle|*
%AMROUNDEDRECTD42*
21,1,0.02977,0.00000,0,0,180.0*
21,1,0.01825,0.01152,0,0,180.0*
1,1,0.01152,-0.00913,0.00000*
1,1,0.01152,0.00913,0.00000*
1,1,0.01152,0.00913,0.00000*
1,1,0.01152,-0.00913,0.00000*
%
%ADD42ROUNDEDRECTD42*%
%ADD43R,0.04134X0.06299*%
%ADD44R,0.03150X0.05512*%
%ADD45R,0.02638X0.01181*%
%ADD46R,0.02362X0.02362*%
%ADD47R,0.03937X0.04724*%
%ADD48R,0.02756X0.01968*%
%ADD49R,0.01300X0.01600*%
G04:AMPARAMS|DCode=50|XSize=11.81mil|YSize=19.29mil|CornerRadius=1.95mil|HoleSize=0mil|Usage=FLASHONLY|Rotation=270.000|XOffset=0mil|YOffset=0mil|HoleType=Round|Shape=RoundedRectangle|*
%AMROUNDEDRECTD50*
21,1,0.01181,0.01539,0,0,270.0*
21,1,0.00791,0.01929,0,0,270.0*
1,1,0.00390,-0.00770,-0.00396*
1,1,0.00390,-0.00770,0.00396*
1,1,0.00390,0.00770,0.00396*
1,1,0.00390,0.00770,-0.00396*
%
%ADD50ROUNDEDRECTD50*%
%ADD51R,0.05315X0.01575*%
%ADD52R,0.03379X0.03371*%
%ADD53R,0.02362X0.01772*%
G04:AMPARAMS|DCode=54|XSize=86.61mil|YSize=13.58mil|CornerRadius=6.79mil|HoleSize=0mil|Usage=FLASHONLY|Rotation=180.000|XOffset=0mil|YOffset=0mil|HoleType=Round|Shape=RoundedRectangle|*
%AMROUNDEDRECTD54*
21,1,0.08661,0.00000,0,0,180.0*
21,1,0.07303,0.01358,0,0,180.0*
1,1,0.01358,-0.03652,0.00000*
1,1,0.01358,0.03652,0.00000*
1,1,0.01358,0.03652,0.00000*
1,1,0.01358,-0.03652,0.00000*
%
%ADD54ROUNDEDRECTD54*%
%ADD55R,0.02254X0.02423*%
%ADD56R,0.01860X0.01073*%
%ADD57R,0.06717X0.04546*%
%ADD58R,0.03937X0.07598*%
%ADD59R,0.02182X0.01822*%
%ADD60R,0.01394X0.01034*%
%ADD61R,0.02559X0.02520*%
%ADD62R,0.01968X0.01575*%
%ADD63R,0.02410X0.02597*%
%ADD78R,0.03150X0.09449*%
%ADD79C,0.01800*%
%ADD80C,0.02000*%
%ADD81C,0.00600*%
%ADD82C,0.00402*%
%ADD83C,0.01500*%
%ADD84C,0.06201*%
%ADD85R,0.06201X0.06201*%
%ADD86O,0.07480X0.04724*%
%ADD87C,0.05709*%
%ADD88C,0.03347*%
%ADD89C,0.02800*%
%ADD90C,0.01968*%
G36*
X7874Y77362D02*
Y72244D01*
X7878Y72142D01*
X7886Y72039D01*
X7898Y71937D01*
X7917Y71835D01*
X7941Y71736D01*
X7969Y71634D01*
X8004Y71539D01*
X8043Y71445D01*
X8087Y71350D01*
X8138Y71260D01*
X8193Y71173D01*
X8248Y71087D01*
X8311Y71004D01*
X8378Y70925D01*
X8449Y70850D01*
X8524Y70780D01*
X8602Y70713D01*
X8685Y70650D01*
X8772Y70595D01*
X8858Y70539D01*
X8949Y70488D01*
X9043Y70445D01*
X9138Y70406D01*
X9232Y70370D01*
X9335Y70342D01*
X9433Y70319D01*
X9535Y70299D01*
X9638Y70287D01*
X9740Y70280D01*
X9843Y70276D01*
X13386D01*
X13488Y70280D01*
X13590Y70287D01*
X13693Y70299D01*
X13795Y70319D01*
X13894Y70342D01*
X13996Y70370D01*
X14090Y70406D01*
X14185Y70445D01*
X14279Y70488D01*
X14370Y70539D01*
X14457Y70595D01*
X14543Y70650D01*
X14626Y70713D01*
X14705Y70780D01*
X14780Y70850D01*
X14850Y70925D01*
X14917Y71004D01*
X14980Y71087D01*
X15035Y71173D01*
X15090Y71260D01*
X15142Y71350D01*
X15185Y71445D01*
X15224Y71539D01*
X15260Y71634D01*
X15287Y71736D01*
X15311Y71835D01*
X15331Y71937D01*
X15342Y72039D01*
X15350Y72142D01*
X15354Y72244D01*
Y77362D01*
X7874D01*
D02*
G37*
G36*
X15350Y100693D02*
X15342Y100795D01*
X15331Y100898D01*
X15311Y101000D01*
X15287Y101098D01*
X15260Y101201D01*
X15224Y101295D01*
X15185Y101390D01*
X15142Y101484D01*
X15090Y101575D01*
X15035Y101661D01*
X14980Y101748D01*
X14917Y101831D01*
X14850Y101909D01*
X14780Y101984D01*
X14705Y102055D01*
X14626Y102122D01*
X14543Y102185D01*
X14457Y102240D01*
X14370Y102295D01*
X14279Y102347D01*
X14185Y102390D01*
X14090Y102429D01*
X13996Y102465D01*
X13894Y102492D01*
X13795Y102516D01*
X13693Y102535D01*
X13590Y102547D01*
X13488Y102555D01*
X13386Y102559D01*
X9843D01*
X9740Y102555D01*
X9638Y102547D01*
X9535Y102535D01*
X9433Y102516D01*
X9335Y102492D01*
X9232Y102465D01*
X9138Y102429D01*
X9043Y102390D01*
X8949Y102347D01*
X8858Y102295D01*
X8772Y102240D01*
X8685Y102185D01*
X8602Y102122D01*
X8524Y102055D01*
X8449Y101984D01*
X8378Y101909D01*
X8311Y101831D01*
X8248Y101748D01*
X8193Y101661D01*
X8138Y101575D01*
X8087Y101484D01*
X8043Y101390D01*
X8004Y101295D01*
X7969Y101201D01*
X7941Y101098D01*
X7917Y101000D01*
X7898Y100898D01*
X7886Y100795D01*
X7878Y100693D01*
X7874Y100591D01*
Y95472D01*
X15354D01*
Y100591D01*
X15350Y100693D01*
D02*
G37*
D15*
X210138Y24606D02*
X218701Y33169D01*
Y57371D02*
X218746Y57417D01*
X218701Y33169D02*
Y57371D01*
X128057Y106791D02*
X129422D01*
X124120Y110728D02*
X128057Y106791D01*
X156591Y102854D02*
X160528D01*
X159305Y104991D02*
X160360Y106046D01*
Y107189D02*
X162107Y108936D01*
X156591Y102854D02*
X158728Y104991D01*
X160360Y106046D02*
Y107189D01*
X158728Y104991D02*
X159305D01*
X129422Y106791D02*
X143996Y92217D01*
X132947Y43110D02*
X135138D01*
X110112Y23104D02*
X134843Y47835D01*
X132382Y22933D02*
Y38386D01*
X108340Y18504D02*
X132947Y43110D01*
X112598Y114862D02*
X120669Y106791D01*
X126080D01*
X129134Y19685D02*
X132382Y22933D01*
X108268Y18504D02*
X108340D01*
X98425D02*
X103517D01*
X103667Y18654D01*
Y20410D01*
X106362Y23104D01*
X110112D01*
X143996Y92217D02*
X151459D01*
X152805Y87733D02*
X152806Y87752D01*
X120669Y75380D02*
X154007D01*
X170965Y92337D01*
X125231Y100886D02*
X125254Y100909D01*
X124111Y100886D02*
X125231D01*
X187008Y18504D02*
Y24371D01*
X187243Y24606D02*
X210138D01*
X132255Y78080D02*
X143602D01*
X115453Y94882D02*
X132255Y78080D01*
X107874Y90847D02*
X111909Y94882D01*
X115453D01*
X156591Y116457D02*
X164842D01*
X166043Y115256D01*
Y111740D02*
Y115256D01*
X163239Y108936D02*
X166043Y111740D01*
X162107Y108936D02*
X163239D01*
X169817Y113251D02*
Y115945D01*
X163357Y106791D02*
X169817Y113251D01*
X162497Y106791D02*
X163357D01*
X162497Y98917D02*
X164384D01*
X170965Y92337D01*
X160528Y102854D02*
X162497D01*
X162673Y102678D02*
X163794D01*
X166865Y99606D01*
X171061D01*
X169474Y101193D02*
Y107972D01*
D18*
X168012Y60827D02*
D03*
X145276Y38189D02*
D03*
X175689Y60630D02*
D03*
X220374Y64764D02*
D03*
X153051Y53740D02*
D03*
Y57284D02*
D03*
X230315Y75689D02*
D03*
Y79232D02*
D03*
D19*
X126089Y98917D02*
D03*
X162506Y96949D02*
D03*
X160538D02*
D03*
X158569D02*
D03*
X156601D02*
D03*
X154632D02*
D03*
X162506Y98917D02*
D03*
X160538D02*
D03*
X158569D02*
D03*
X156601D02*
D03*
X128057D02*
D03*
X124120Y100886D02*
D03*
X122152D02*
D03*
X162506Y102854D02*
D03*
X160538D02*
D03*
X158569D02*
D03*
X156601D02*
D03*
X162506Y106791D02*
D03*
X158569D02*
D03*
X156601D02*
D03*
X126089D02*
D03*
X162506Y110728D02*
D03*
X160538D02*
D03*
X124120D02*
D03*
Y112697D02*
D03*
X156601Y114665D02*
D03*
X126089D02*
D03*
X156601Y116634D02*
D03*
X122152D02*
D03*
X158569Y118602D02*
D03*
X128057D02*
D03*
X126089D02*
D03*
X158569Y120571D02*
D03*
D20*
X120669Y75380D02*
D03*
X128248Y60349D02*
D03*
X152756Y86825D02*
D03*
X25197Y109632D02*
D03*
X59350Y146850D02*
D03*
X25197Y113400D02*
D03*
X247736Y79443D02*
D03*
D21*
X93996Y28642D02*
D03*
X97539D02*
D03*
D22*
X88386Y52269D02*
D03*
Y49306D02*
D03*
X233169Y27854D02*
D03*
D23*
X107480Y50197D02*
D03*
X230315Y80512D02*
D03*
X162402Y35236D02*
D03*
X177854Y35531D02*
D03*
D24*
X97244Y73425D02*
D03*
Y77362D02*
D03*
X103347Y100689D02*
D03*
X208071Y76181D02*
D03*
X169095Y46752D02*
D03*
D25*
X66507Y30709D02*
D03*
D26*
X66240Y37795D02*
D03*
D27*
X107087Y83661D02*
D03*
X107874Y90847D02*
D03*
X99409Y142421D02*
D03*
X111713Y136221D02*
D03*
X95472Y142421D02*
D03*
D28*
X88317Y76592D02*
D03*
X48720Y87123D02*
D03*
D29*
X119095Y59364D02*
D03*
X239173Y80322D02*
D03*
D30*
X112598Y114862D02*
D03*
D31*
X89567Y114665D02*
D03*
Y118602D02*
D03*
X80118D02*
D03*
D32*
X146569Y88779D02*
D03*
D33*
X162008Y90453D02*
D03*
X185925Y100195D02*
D03*
D34*
X170965Y92337D02*
D03*
X44980Y108057D02*
D03*
D35*
X171061Y99606D02*
D03*
X58661Y30413D02*
D03*
D36*
X169474Y107972D02*
D03*
X182593Y90945D02*
D03*
D37*
X169817Y115945D02*
D03*
D38*
X133169Y116929D02*
D03*
Y119882D02*
D03*
X119685Y137402D02*
D03*
D39*
X182480Y83957D02*
D03*
D40*
X217815Y140748D02*
D03*
D41*
X197146Y142323D02*
D03*
D42*
X209327Y140748D02*
D03*
D43*
X194685Y57283D02*
D03*
D44*
X162106Y44980D02*
D03*
D45*
X143563Y53134D02*
D03*
Y55102D02*
D03*
X214862Y74902D02*
D03*
X220689D02*
D03*
Y76870D02*
D03*
Y78839D02*
D03*
Y80807D02*
D03*
X143563Y57071D02*
D03*
X57579Y48622D02*
D03*
X51752D02*
D03*
Y46654D02*
D03*
Y50590D02*
D03*
X143563Y59039D02*
D03*
D46*
X241634Y27953D02*
D03*
X220866Y27854D02*
D03*
D47*
X240354Y18799D02*
D03*
X220669D02*
D03*
X230512D02*
D03*
D48*
X103642Y28445D02*
D03*
D49*
X48228Y75266D02*
D03*
D50*
X42756Y82087D02*
D03*
Y84055D02*
D03*
D51*
X22146Y86417D02*
D03*
Y81299D02*
D03*
D52*
X16240Y120173D02*
D03*
D53*
X177953Y131988D02*
D03*
X48327Y129331D02*
D03*
D54*
X76257Y83632D02*
D03*
Y86132D02*
D03*
X57359Y78632D02*
D03*
Y76132D02*
D03*
Y81132D02*
D03*
D55*
X44291Y45655D02*
D03*
D56*
X70472Y111319D02*
D03*
D57*
X67520Y132188D02*
D03*
D58*
X47933Y147244D02*
D03*
X30610D02*
D03*
D59*
X29232Y44685D02*
D03*
D60*
X29348Y51279D02*
D03*
D61*
X30020Y56693D02*
D03*
D62*
X40650Y128839D02*
D03*
D63*
X32579Y129040D02*
D03*
D78*
X185039Y44685D02*
D03*
X191339D02*
D03*
D79*
X146569Y88779D02*
X148524Y86825D01*
X152756D01*
X140841Y131698D02*
X154799Y117740D01*
X139857Y131698D02*
X140841D01*
X139665Y131890D02*
X139857Y131698D01*
X144672Y88779D02*
X146569D01*
X154599Y100909D02*
Y104799D01*
X156591Y106791D01*
X154599Y100909D02*
X156591Y98917D01*
X154799Y115892D02*
Y117740D01*
Y115892D02*
X156026Y114665D01*
X132542Y100909D02*
X144672Y88779D01*
X125254Y100909D02*
X132542D01*
X158560Y108760D02*
X160528Y110728D01*
X158560Y106791D02*
Y108760D01*
X156591Y114665D02*
X160528Y110728D01*
X162497D01*
X156591Y106791D02*
X158560D01*
X122143Y100886D02*
X124111D01*
X156591Y98917D02*
X160528D01*
X156591Y96949D02*
Y98917D01*
X154623Y96949D02*
X156591D01*
X162008D01*
Y90453D02*
Y96460D01*
X153740Y86909D02*
X158465D01*
X162008Y90453D01*
X209350Y74902D02*
X214862D01*
X208071Y76181D02*
X209350Y74902D01*
X44291Y46575D02*
X51674D01*
D80*
X229675Y79872D02*
X230315Y80512D01*
X128248Y60349D02*
X142254D01*
X126591D02*
X128248D01*
X119982Y60251D02*
X126591Y60349D01*
X119095Y59364D02*
X119890Y60159D01*
X119982Y60251D01*
X107704Y50420D02*
X110748D01*
X118804Y58477D02*
X119382D01*
X110748Y50420D02*
X118804Y58477D01*
X107480Y50197D02*
X107704Y50420D01*
X209327Y136835D02*
X220689Y125472D01*
X209327Y136835D02*
Y140748D01*
X220689Y80807D02*
Y125472D01*
X209826Y144804D02*
X213882Y140748D01*
X194369Y144804D02*
X209826D01*
X213882Y140748D02*
X217815D01*
X198721D02*
X209327D01*
X210794Y78875D02*
X216965D01*
X217551Y79461D02*
X220689D01*
X216965Y78875D02*
X217551Y79461D01*
X206061Y79165D02*
X210504D01*
X210794Y78875D01*
X220689Y79461D02*
Y80807D01*
X204890Y77994D02*
X206061Y79165D01*
X48720Y87123D02*
X75266D01*
X72736Y111319D02*
X79828Y118410D01*
X122319Y116810D02*
X133169D01*
Y116929D02*
X136024D01*
X136024Y116929D02*
Y118831D01*
X45989Y72466D02*
X49417D01*
X31176Y57653D02*
X45989Y72466D01*
X29740Y56433D02*
X30000Y56693D01*
X30020D01*
X29348Y51279D02*
Y55261D01*
X29740Y55654D01*
Y56433D01*
X18441Y81299D02*
X22146D01*
X18090Y81651D02*
X18441Y81299D01*
X18090Y81651D02*
Y102525D01*
X175689Y60630D02*
X186116D01*
X188444Y62958D01*
X189686Y60328D02*
X190619Y61261D01*
Y61262D01*
X153051Y57284D02*
X186640D01*
X189685Y60328D01*
X190619Y61262D02*
X192743Y63386D01*
X189685Y60328D02*
X189686D01*
X212310Y72602D02*
X213482Y71430D01*
X204890Y74369D02*
Y77994D01*
X182480Y69291D02*
X188444Y63328D01*
X207094Y63386D02*
X213482Y69773D01*
Y71430D01*
X192743Y63386D02*
X207094D01*
X206657Y72602D02*
X212310D01*
X204890Y74369D02*
X206657Y72602D01*
X44145Y83977D02*
X46990Y81132D01*
X51181D01*
X134114Y136024D02*
X144095D01*
X173917D02*
X177953Y131988D01*
X134114Y136024D02*
X135925Y134213D01*
X144095Y136024D02*
X173917D01*
X144095Y132752D02*
Y136024D01*
X132830Y137308D02*
X134114Y136024D01*
X144095Y132752D02*
X144685Y132162D01*
X182593Y83957D02*
Y90945D01*
X119685Y137303D02*
X124705D01*
X76257Y86132D02*
X83474D01*
X124709Y137308D02*
X132830D01*
X185925Y100195D02*
Y113836D01*
X177953Y121808D02*
X185925Y113836D01*
X177953Y121808D02*
Y131988D01*
X185925Y94277D02*
Y100195D01*
X168012Y60827D02*
X175492D01*
X182480Y69291D02*
Y83844D01*
X95472Y142618D02*
X97757Y144902D01*
X112184D01*
X119001Y138086D01*
X80409Y118893D02*
X95472Y133957D01*
Y142421D01*
X135925Y118929D02*
Y134213D01*
X70472Y111319D02*
X72736D01*
X67211Y108057D02*
X70472Y111319D01*
X182593Y90945D02*
X185925Y94277D01*
X177953Y131988D02*
X181201D01*
X194193Y144980D01*
X197146Y142323D02*
X198721Y140748D01*
X91188Y73721D02*
X95965D01*
X88317Y76592D02*
X91188Y73721D01*
X87857Y76132D02*
X88317Y76592D01*
X57359Y76132D02*
X87857D01*
X143563Y57071D02*
X152838D01*
X228642Y78839D02*
X229675Y79872D01*
X220689Y78839D02*
X228642D01*
X230505Y80322D02*
X239173D01*
X246858D01*
X143563Y57071D02*
Y59039D01*
X142254Y60349D02*
X143563Y59039D01*
X54665Y34410D02*
Y48622D01*
Y34410D02*
X58661Y30413D01*
X88386Y49306D02*
X106589D01*
X88386D02*
X93996Y43696D01*
Y28642D02*
Y43696D01*
X91929Y30709D02*
X93996Y28642D01*
X66507Y30709D02*
X91929D01*
X66507D02*
Y37528D01*
X58661Y30413D02*
X66212D01*
X54665Y48622D02*
X57579D01*
X51752D02*
X54665D01*
X51181Y81132D02*
X57359D01*
X49417Y72466D02*
X51181Y74230D01*
Y81132D01*
X29232Y44685D02*
X43321D01*
X29232D02*
Y51164D01*
X47933Y147244D02*
X58957D01*
X48327Y129331D02*
Y146850D01*
X64662Y129331D02*
X67520Y132188D01*
X48327Y129331D02*
X64662D01*
X40650Y128839D02*
X47835D01*
X32579Y129040D02*
X40448D01*
X32579Y94232D02*
Y129040D01*
Y94232D02*
X42756Y84055D01*
X44980Y108057D02*
X67211D01*
X44980D02*
X48720Y104317D01*
Y87123D02*
Y104317D01*
X75266Y87123D02*
X76257Y86132D01*
X16240Y118588D02*
X21624D01*
X16240D02*
Y120173D01*
X21624Y118588D02*
X22573Y117640D01*
Y111453D02*
Y117640D01*
Y111453D02*
X24395Y109632D01*
X18090Y102525D02*
X25197Y109632D01*
D81*
X79828Y118410D02*
X79843Y118426D01*
X79942D01*
X79828Y118410D02*
Y118410D01*
X135925Y118929D02*
X136024Y118831D01*
X136024Y116929D02*
X136024Y116929D01*
X30020Y56693D02*
X30979Y57653D01*
X31176D01*
X188444Y62958D02*
Y63328D01*
X42756Y84055D02*
X42834Y83977D01*
X44145D01*
X154146Y94905D02*
X156697Y92353D01*
Y92238D02*
Y92353D01*
X154018Y95032D02*
X154146Y94905D01*
X154012Y95032D02*
X154018D01*
X227067Y19028D02*
Y25394D01*
X222213Y14173D02*
X227067Y19028D01*
X172736Y14173D02*
X222213D01*
X167819Y19000D02*
X167909D01*
X167138D02*
X167819D01*
X167864Y19045D01*
X167323Y18504D02*
X167819Y19000D01*
X230512Y19193D02*
X232180Y20861D01*
X232574D02*
X233169Y21457D01*
Y27854D01*
X230512Y18799D02*
Y19193D01*
X232180Y20861D02*
X232574D01*
X128048Y118602D02*
X129327Y119882D01*
X129331Y119882D02*
X133169D01*
X129327Y119882D02*
X129331D01*
X129331Y119882D01*
X126080Y118602D02*
X128048D01*
X144685Y131791D02*
Y132162D01*
X182480Y83844D02*
X182593Y83957D01*
X83474Y86132D02*
X83661Y86319D01*
X116590Y118602D02*
X120351Y114842D01*
X125903D01*
X89567Y118602D02*
X116590D01*
X124705Y137303D02*
X124709Y137308D01*
X119685Y137402D02*
Y137500D01*
X139173Y23349D02*
Y26575D01*
X134646Y112697D02*
X154012Y95032D01*
X124111Y112697D02*
X134646D01*
X167909Y19000D02*
X172736Y14173D01*
X143563Y53134D02*
X147362Y49335D01*
Y41024D02*
X147736Y40650D01*
X147362Y41024D02*
Y49335D01*
X167864Y19045D02*
Y20561D01*
X139173Y23349D02*
X142223Y20299D01*
Y10322D02*
X143589Y8957D01*
X142223Y10322D02*
Y20299D01*
X143589Y8957D02*
X147343D01*
X156026Y114665D02*
X156591D01*
X162008Y96949D02*
X162497D01*
X175492Y60827D02*
X175689Y60630D01*
X128247Y98822D02*
X132083D01*
X128152Y98917D02*
X128247Y98822D01*
X126080Y98917D02*
X128152D01*
X132083Y98822D02*
X147539Y83366D01*
X89567Y114665D02*
X89665D01*
X89858Y114375D02*
Y114473D01*
X89665Y114665D02*
X89858Y114473D01*
X102465Y101373D02*
X103150Y100689D01*
X102465Y101373D02*
Y101767D01*
X89858Y114375D02*
X102465Y101767D01*
X103150Y100689D02*
X103347D01*
X147343Y8957D02*
X147638Y8661D01*
X125903Y114842D02*
X126080Y114665D01*
X95472Y142421D02*
Y142618D01*
X89567Y125588D02*
X98725Y134746D01*
X89567Y118602D02*
Y125588D01*
X98725Y134746D02*
Y141737D01*
X99409Y142421D01*
X119001Y138086D02*
X119099D01*
X119685Y137500D01*
X111713Y136024D02*
X112397Y135339D01*
X112594D02*
X126080Y121853D01*
Y118602D02*
Y121853D01*
X111713Y136024D02*
Y136221D01*
X112397Y135339D02*
X112594D01*
X80409Y118795D02*
Y118893D01*
X80118Y118602D02*
X80216D01*
X79942Y118426D02*
X80118Y118602D01*
X80216D02*
X80409Y118795D01*
X162008Y96460D02*
X162497Y96949D01*
X153656Y86825D02*
X153740Y86909D01*
X152756Y86825D02*
X153656D01*
X156591Y116457D02*
Y116634D01*
X162497Y102854D02*
X162673Y102678D01*
X169474Y101193D02*
X171061Y99606D01*
X122143Y116634D02*
X122319Y116810D01*
X133169D02*
Y116929D01*
X194193Y144980D02*
X194369Y144804D01*
X107057Y83632D02*
X107087Y83661D01*
X76257Y83632D02*
X107057D01*
X53430Y52269D02*
X88386D01*
X51752Y50590D02*
X53430Y52269D01*
X94990Y78632D02*
X95965Y77658D01*
X57359Y78632D02*
X94990D01*
X229134Y76870D02*
X230315Y75689D01*
X220689Y76870D02*
X229134D01*
X220374Y64764D02*
X220689Y65079D01*
Y74902D01*
X162106Y44980D02*
X162402Y44685D01*
Y35236D02*
X162697Y35531D01*
X151689Y55102D02*
X153051Y53740D01*
X143563Y55102D02*
X151689D01*
X220669Y27657D02*
X220866Y27854D01*
X220669Y18799D02*
Y27657D01*
X240354Y18799D02*
X241634Y20079D01*
Y27953D01*
X152838Y57071D02*
X153051Y57284D01*
X230315Y80512D02*
X230505Y80322D01*
X246858D02*
X247736Y79443D01*
X103445Y28642D02*
X103642Y28445D01*
X97539Y28642D02*
X103445D01*
X106589Y49306D02*
X107480Y50197D01*
X66240Y37795D02*
X66507Y37528D01*
X66212Y30413D02*
X66507Y30709D01*
X40813Y82165D02*
X42678D01*
X36560Y86417D02*
X40813Y82165D01*
X22146Y86417D02*
X36560D01*
X51674Y46575D02*
X51752Y46654D01*
X44291Y45655D02*
Y46575D01*
X43321Y44685D02*
X44291Y45655D01*
X29232Y51164D02*
X29348Y51279D01*
X58957Y147244D02*
X59350Y146850D01*
X47933Y147244D02*
X48327Y146850D01*
X47835Y128839D02*
X48327Y129331D01*
X40448Y129040D02*
X40650Y128839D01*
X25197Y141831D02*
X30610Y147244D01*
X25197Y113400D02*
Y141831D01*
X24395Y109632D02*
X25197D01*
X48228Y75566D02*
Y76614D01*
X42756Y82087D02*
X48228Y76614D01*
X42678Y82165D02*
X42756Y82087D01*
D82*
X118981Y72638D02*
X157661D01*
X158774Y73751D01*
X118145Y73474D02*
X118981Y72638D01*
X158774Y73751D02*
X159380D01*
X127953Y18504D02*
X129134Y19685D01*
X187008Y24371D02*
X187243Y24606D01*
X118145Y73474D02*
Y77328D01*
X114764Y80709D02*
X118145Y77328D01*
D83*
X177854Y37500D02*
X185039Y44685D01*
X177854Y35531D02*
Y37500D01*
X194685Y48031D02*
Y57283D01*
X191339Y44685D02*
X194685Y48031D01*
X167323Y44980D02*
X169095Y46752D01*
X162106Y44980D02*
X167323D01*
X162402Y35236D02*
Y44685D01*
X162697Y35531D02*
X177854D01*
D84*
X9843Y8661D02*
D03*
Y18504D02*
D03*
X19685Y8661D02*
D03*
Y18504D02*
D03*
X29528Y8661D02*
D03*
Y18504D02*
D03*
X39370Y8661D02*
D03*
Y18504D02*
D03*
X49213Y8661D02*
D03*
Y18504D02*
D03*
X59055Y8661D02*
D03*
Y18504D02*
D03*
X68898Y8661D02*
D03*
Y18504D02*
D03*
X78740Y8661D02*
D03*
Y18504D02*
D03*
X88583Y8661D02*
D03*
Y18504D02*
D03*
X98425Y8661D02*
D03*
Y18504D02*
D03*
X108268Y8661D02*
D03*
Y18504D02*
D03*
X118110Y8661D02*
D03*
Y18504D02*
D03*
X127953Y8661D02*
D03*
Y18504D02*
D03*
X137795Y8661D02*
D03*
Y18504D02*
D03*
X147638Y8661D02*
D03*
Y18504D02*
D03*
X157480Y8661D02*
D03*
Y18504D02*
D03*
X167323Y8661D02*
D03*
Y18504D02*
D03*
X177165Y8661D02*
D03*
Y18504D02*
D03*
X187008Y8661D02*
D03*
Y18504D02*
D03*
X196850Y8661D02*
D03*
D85*
Y18504D02*
D03*
D86*
X11614Y100197D02*
D03*
Y72638D02*
D03*
D87*
X22244Y96260D02*
D03*
Y76575D02*
D03*
D88*
X224606Y8563D02*
D03*
X236417D02*
D03*
D89*
X139665Y131890D02*
D03*
X218746Y57417D02*
D03*
X156697Y92238D02*
D03*
X227067Y25394D02*
D03*
X112697Y90158D02*
D03*
X83661Y86319D02*
D03*
X135138Y43110D02*
D03*
X134843Y47835D02*
D03*
X132382Y38386D02*
D03*
X112106Y109593D02*
D03*
X139173Y26575D02*
D03*
X151459Y92217D02*
D03*
X159380Y73751D02*
D03*
X114764Y80709D02*
D03*
X143602Y78080D02*
D03*
X147539Y83366D02*
D03*
X115453Y94882D02*
D03*
D90*
X188444Y63328D02*
D03*
X144685Y131791D02*
D03*
M02*
