G04*
G04 #@! TF.GenerationSoftware,Altium Limited,Altium Designer,24.7.2 (38)*
G04*
G04 Layer_Physical_Order=4*
G04 Layer_Color=16711680*
%FSLAX25Y25*%
%MOIN*%
G70*
G04*
G04 #@! TF.SameCoordinates,98F62D9F-8C32-4B21-931F-99D976C78984*
G04*
G04*
G04 #@! TF.FilePolarity,Positive*
G04*
G01*
G75*
%ADD15C,0.01000*%
%ADD18R,0.02362X0.01575*%
%ADD19C,0.00984*%
%ADD20R,0.02648X0.02816*%
%ADD22R,0.01860X0.02203*%
%ADD23R,0.03543X0.02953*%
%ADD24R,0.02362X0.01968*%
%ADD26R,0.02047X0.02047*%
%ADD27R,0.01968X0.02362*%
%ADD31R,0.01181X0.00984*%
%ADD32R,0.02029X0.01860*%
%ADD34R,0.01860X0.02029*%
%ADD35R,0.04351X0.03961*%
%ADD36R,0.02816X0.02648*%
%ADD38R,0.01772X0.01968*%
%ADD39R,0.00984X0.01181*%
G04:AMPARAMS|DCode=42|XSize=29.77mil|YSize=11.52mil|CornerRadius=5.76mil|HoleSize=0mil|Usage=FLASHONLY|Rotation=180.000|XOffset=0mil|YOffset=0mil|HoleType=Round|Shape=RoundedRectangle|*
%AMROUNDEDRECTD42*
21,1,0.02977,0.00000,0,0,180.0*
21,1,0.01825,0.01152,0,0,180.0*
1,1,0.01152,-0.00913,0.00000*
1,1,0.01152,0.00913,0.00000*
1,1,0.01152,0.00913,0.00000*
1,1,0.01152,-0.00913,0.00000*
%
%ADD42ROUNDEDRECTD42*%
%ADD44R,0.03150X0.05512*%
%ADD45R,0.02638X0.01181*%
%ADD46R,0.02362X0.02362*%
%ADD49R,0.01300X0.01600*%
G04:AMPARAMS|DCode=50|XSize=11.81mil|YSize=19.29mil|CornerRadius=1.95mil|HoleSize=0mil|Usage=FLASHONLY|Rotation=270.000|XOffset=0mil|YOffset=0mil|HoleType=Round|Shape=RoundedRectangle|*
%AMROUNDEDRECTD50*
21,1,0.01181,0.01539,0,0,270.0*
21,1,0.00791,0.01929,0,0,270.0*
1,1,0.00390,-0.00770,-0.00396*
1,1,0.00390,-0.00770,0.00396*
1,1,0.00390,0.00770,0.00396*
1,1,0.00390,0.00770,-0.00396*
%
%ADD50ROUNDEDRECTD50*%
%ADD51R,0.05315X0.01575*%
G04:AMPARAMS|DCode=54|XSize=86.61mil|YSize=13.58mil|CornerRadius=6.79mil|HoleSize=0mil|Usage=FLASHONLY|Rotation=180.000|XOffset=0mil|YOffset=0mil|HoleType=Round|Shape=RoundedRectangle|*
%AMROUNDEDRECTD54*
21,1,0.08661,0.00000,0,0,180.0*
21,1,0.07303,0.01358,0,0,180.0*
1,1,0.01358,-0.03652,0.00000*
1,1,0.01358,0.03652,0.00000*
1,1,0.01358,0.03652,0.00000*
1,1,0.01358,-0.03652,0.00000*
%
%ADD54ROUNDEDRECTD54*%
%ADD55R,0.02254X0.02423*%
%ADD62R,0.01968X0.01575*%
%ADD79C,0.01800*%
%ADD80C,0.02000*%
%ADD81C,0.00600*%
%ADD82C,0.00402*%
%ADD83C,0.01500*%
%ADD84C,0.06201*%
%ADD85R,0.06201X0.06201*%
%ADD86O,0.07480X0.04724*%
%ADD87C,0.05709*%
%ADD88C,0.03347*%
%ADD89C,0.02800*%
%ADD90C,0.01968*%
%ADD91R,0.01843X0.01860*%
%ADD92R,0.04541X0.05339*%
%ADD95R,0.02953X0.02756*%
%ADD96R,0.01788X0.01428*%
%ADD98R,0.04546X0.06717*%
%ADD99R,0.02953X0.03543*%
%ADD101C,0.00400*%
%ADD102R,0.09449X0.03150*%
G04:AMPARAMS|DCode=103|XSize=11.81mil|YSize=20.47mil|CornerRadius=1.95mil|HoleSize=0mil|Usage=FLASHONLY|Rotation=270.000|XOffset=0mil|YOffset=0mil|HoleType=Round|Shape=RoundedRectangle|*
%AMROUNDEDRECTD103*
21,1,0.01181,0.01658,0,0,270.0*
21,1,0.00791,0.02047,0,0,270.0*
1,1,0.00390,-0.00829,-0.00396*
1,1,0.00390,-0.00829,0.00396*
1,1,0.00390,0.00829,0.00396*
1,1,0.00390,0.00829,-0.00396*
%
%ADD103ROUNDEDRECTD103*%
%ADD104R,0.08661X0.01358*%
%ADD105R,0.01600X0.01300*%
%ADD106C,0.01600*%
G36*
X7874Y77362D02*
Y72244D01*
X7878Y72142D01*
X7886Y72039D01*
X7898Y71937D01*
X7917Y71835D01*
X7941Y71736D01*
X7969Y71634D01*
X8004Y71539D01*
X8043Y71445D01*
X8087Y71350D01*
X8138Y71260D01*
X8193Y71173D01*
X8248Y71087D01*
X8311Y71004D01*
X8378Y70925D01*
X8449Y70850D01*
X8524Y70780D01*
X8602Y70713D01*
X8685Y70650D01*
X8772Y70595D01*
X8858Y70539D01*
X8949Y70488D01*
X9043Y70445D01*
X9138Y70406D01*
X9232Y70370D01*
X9335Y70342D01*
X9433Y70319D01*
X9535Y70299D01*
X9638Y70287D01*
X9740Y70280D01*
X9843Y70276D01*
X13386D01*
X13488Y70280D01*
X13590Y70287D01*
X13693Y70299D01*
X13795Y70319D01*
X13894Y70342D01*
X13996Y70370D01*
X14090Y70406D01*
X14185Y70445D01*
X14279Y70488D01*
X14370Y70539D01*
X14457Y70595D01*
X14543Y70650D01*
X14626Y70713D01*
X14705Y70780D01*
X14780Y70850D01*
X14850Y70925D01*
X14917Y71004D01*
X14980Y71087D01*
X15035Y71173D01*
X15090Y71260D01*
X15142Y71350D01*
X15185Y71445D01*
X15224Y71539D01*
X15260Y71634D01*
X15287Y71736D01*
X15311Y71835D01*
X15331Y71937D01*
X15342Y72039D01*
X15350Y72142D01*
X15354Y72244D01*
Y77362D01*
X7874D01*
D02*
G37*
G36*
X15350Y100693D02*
X15342Y100795D01*
X15331Y100898D01*
X15311Y101000D01*
X15287Y101098D01*
X15260Y101201D01*
X15224Y101295D01*
X15185Y101390D01*
X15142Y101484D01*
X15090Y101575D01*
X15035Y101661D01*
X14980Y101748D01*
X14917Y101831D01*
X14850Y101909D01*
X14780Y101984D01*
X14705Y102055D01*
X14626Y102122D01*
X14543Y102185D01*
X14457Y102240D01*
X14370Y102295D01*
X14279Y102347D01*
X14185Y102390D01*
X14090Y102429D01*
X13996Y102465D01*
X13894Y102492D01*
X13795Y102516D01*
X13693Y102535D01*
X13590Y102547D01*
X13488Y102555D01*
X13386Y102559D01*
X9843D01*
X9740Y102555D01*
X9638Y102547D01*
X9535Y102535D01*
X9433Y102516D01*
X9335Y102492D01*
X9232Y102465D01*
X9138Y102429D01*
X9043Y102390D01*
X8949Y102347D01*
X8858Y102295D01*
X8772Y102240D01*
X8685Y102185D01*
X8602Y102122D01*
X8524Y102055D01*
X8449Y101984D01*
X8378Y101909D01*
X8311Y101831D01*
X8248Y101748D01*
X8193Y101661D01*
X8138Y101575D01*
X8087Y101484D01*
X8043Y101390D01*
X8004Y101295D01*
X7969Y101201D01*
X7941Y101098D01*
X7917Y101000D01*
X7898Y100898D01*
X7886Y100795D01*
X7878Y100693D01*
X7874Y100591D01*
Y95472D01*
X15354D01*
Y100591D01*
X15350Y100693D01*
D02*
G37*
D15*
X196359Y8170D02*
X196850Y8661D01*
X196850D02*
X197462Y8050D01*
X132382Y38386D02*
Y58563D01*
X134917Y51922D02*
X141859Y44980D01*
X126508Y39240D02*
X139173Y26575D01*
X124508Y37139D02*
X137972Y23675D01*
X112492Y109593D02*
X119685Y116786D01*
X112106Y109593D02*
X112492D01*
X119685Y116786D02*
Y134449D01*
X132382Y58563D02*
X139665Y65847D01*
X141859Y44980D02*
X155807D01*
X134917Y51922D02*
Y56472D01*
X126508Y39240D02*
Y63246D01*
X137972Y23675D02*
X139130D01*
X141048Y21757D01*
X141758Y20971D02*
Y21047D01*
Y20971D02*
X142223Y20506D01*
Y20375D02*
Y20506D01*
X124508Y37139D02*
Y64075D01*
X141048Y21757D02*
X141758Y21047D01*
X142223Y20375D02*
X143623Y18975D01*
X147167D01*
X147638Y18504D01*
X159402Y57284D02*
X168012D01*
X143602Y73083D02*
X159402Y57284D01*
X143602Y73083D02*
Y78080D01*
X130864Y108783D02*
X131079Y108569D01*
X131079D02*
X139665Y99982D01*
Y65847D02*
Y99982D01*
X134917Y56472D02*
X135638Y57193D01*
X137736D01*
X105807Y106693D02*
X114170D01*
X105807Y106693D02*
X105807Y106693D01*
X114170D02*
X124087Y116610D01*
X128048Y103714D02*
Y104823D01*
Y103714D02*
X134677Y97085D01*
X162081Y32652D02*
X171850Y42421D01*
Y53445D01*
X162081Y16598D02*
Y32652D01*
X161192Y78571D02*
X178347D01*
X156398Y83366D02*
X161192Y78571D01*
X147539Y83366D02*
X156398D01*
X157480Y8661D02*
Y13753D01*
X157631Y13904D01*
X159386D01*
X162081Y16598D01*
X168012Y57284D02*
X171850Y53445D01*
X113091Y96752D02*
X115847Y99508D01*
X103347Y96752D02*
X113091D01*
X134677Y71416D02*
Y97085D01*
X126508Y63246D02*
X134677Y71416D01*
X132677Y72244D02*
Y96257D01*
X124508Y64075D02*
X132677Y72244D01*
X126080Y102854D02*
X132677Y96257D01*
X178347Y82185D02*
X180118Y83957D01*
X178347Y78571D02*
Y82185D01*
X103937Y114665D02*
X111417Y122146D01*
X80118Y114665D02*
X103937D01*
X101575Y128642D02*
X101870D01*
X89567Y116634D02*
X101575Y128642D01*
X95866Y112697D02*
X101870Y106693D01*
X80118Y112697D02*
X95866D01*
X103642Y136221D02*
X107775D01*
X84055Y116634D02*
X103642Y136221D01*
X80118Y116634D02*
X84055D01*
X162497Y114665D02*
X164567D01*
X164665Y114764D01*
Y121555D01*
X159646Y126575D02*
X164665Y121555D01*
X157204Y126575D02*
X159646D01*
X153622Y130157D02*
X157204Y126575D01*
X124111Y118626D02*
Y121355D01*
X129528Y126772D01*
X115378Y99976D02*
X115847Y99508D01*
X124087Y98917D02*
X124111D01*
X124087Y96972D02*
X124111Y96949D01*
X129624Y88103D02*
Y89272D01*
X120669Y79148D02*
X129624Y88103D01*
X150646Y128157D02*
X151575Y127228D01*
X150646Y128157D02*
Y129295D01*
X151575Y124768D02*
Y127228D01*
Y124768D02*
X157740Y118602D01*
X148307Y131633D02*
X150646Y129295D01*
X148867Y133775D02*
Y134476D01*
X150484Y134892D02*
X155771Y140179D01*
X148867Y134476D02*
X149284Y134892D01*
X148307Y131633D02*
Y134094D01*
X149284Y134892D02*
X150484D01*
X155771Y140318D02*
X156147Y140694D01*
X155771Y140179D02*
Y140318D01*
X156147Y140694D02*
X156285D01*
X157740Y118602D02*
X162497D01*
X209327Y135630D02*
X220768D01*
X231496Y146358D01*
X103652Y91132D02*
X103937Y90847D01*
X76257Y91132D02*
X103652D01*
X247641Y132382D02*
Y133166D01*
X231496Y149311D02*
X247641Y133166D01*
X245276Y130017D02*
X247641Y132382D01*
X245276Y124114D02*
Y130017D01*
X237402Y105709D02*
X245276Y113583D01*
Y117815D01*
X57579Y44563D02*
X60710Y41432D01*
X86319D01*
X86511Y41240D01*
X91133D01*
X236811Y106299D02*
X237402Y105709D01*
X224410Y106299D02*
X236811D01*
X220866Y102756D02*
X224410Y106299D01*
X220866Y96653D02*
Y102756D01*
Y93183D02*
Y96653D01*
X208071Y80388D02*
X220866Y93183D01*
X208071Y80118D02*
Y80388D01*
X214862Y84350D02*
X227165Y96653D01*
X214862Y78839D02*
Y84350D01*
X77854Y47258D02*
X80116D01*
X77840Y47244D02*
X77854Y47258D01*
X67913Y46654D02*
X68504Y47244D01*
X67695Y83968D02*
Y97933D01*
X67195D02*
X67695D01*
X74392D02*
X74786Y97539D01*
X57359Y73632D02*
X67695Y83968D01*
X29872Y79996D02*
X42756D01*
X51529Y92035D02*
X57427Y97933D01*
X51529Y88891D02*
Y92035D01*
X42756Y80118D02*
X51529Y88891D01*
X42717Y72266D02*
X51992D01*
X52805Y71453D01*
X74078D01*
X76257Y73632D01*
X42717Y72266D02*
Y72638D01*
X26010Y83858D02*
X29872Y79996D01*
X22146Y83858D02*
X26010D01*
X34984Y88976D02*
X39783Y84177D01*
X22146Y88976D02*
X34984D01*
D18*
X168012Y57284D02*
D03*
X175689Y57087D02*
D03*
D19*
X126089Y102854D02*
D03*
X128057Y104823D02*
D03*
Y106791D02*
D03*
X126089Y108760D02*
D03*
Y110728D02*
D03*
X122152Y118602D02*
D03*
X162506Y114665D02*
D03*
X128057Y116634D02*
D03*
X124120Y96949D02*
D03*
Y98917D02*
D03*
X122152D02*
D03*
X124120Y102854D02*
D03*
Y120571D02*
D03*
Y118602D02*
D03*
X156601Y110728D02*
D03*
X158569Y108760D02*
D03*
X162506Y118602D02*
D03*
X124120Y116634D02*
D03*
X162506Y100886D02*
D03*
X160538D02*
D03*
X156601D02*
D03*
X158569D02*
D03*
X122152Y104823D02*
D03*
D20*
X120669Y79148D02*
D03*
X68504Y47244D02*
D03*
D22*
X86319Y44395D02*
D03*
Y41432D02*
D03*
X233169Y30817D02*
D03*
D23*
X237402Y105709D02*
D03*
X224410Y106299D02*
D03*
D24*
X103347Y96752D02*
D03*
X169095Y50689D02*
D03*
X208071Y80118D02*
D03*
D26*
X129528Y126772D02*
D03*
D27*
X111024Y83661D02*
D03*
X202362Y74508D02*
D03*
X103937Y90847D02*
D03*
X111417Y122146D02*
D03*
X101870Y106693D02*
D03*
X101870Y128642D02*
D03*
X107775Y136221D02*
D03*
X105807Y106693D02*
D03*
D31*
X80118Y114665D02*
D03*
Y112697D02*
D03*
X89567Y116634D02*
D03*
X80118D02*
D03*
D32*
X156285Y140748D02*
D03*
D34*
X178347Y78571D02*
D03*
X159646Y126575D02*
D03*
D35*
X110632Y74606D02*
D03*
X186809Y133268D02*
D03*
D36*
X118490Y87106D02*
D03*
X167801Y124470D02*
D03*
D38*
X88779Y62992D02*
D03*
Y60039D02*
D03*
X77165Y63484D02*
D03*
X115847Y99508D02*
D03*
Y102461D02*
D03*
X231496Y146358D02*
D03*
Y149311D02*
D03*
X119685Y134449D02*
D03*
D39*
X180118Y83957D02*
D03*
D42*
X217815Y138189D02*
D03*
X209327Y135630D02*
D03*
Y138189D02*
D03*
D44*
X220866Y96653D02*
D03*
X227165D02*
D03*
X155807Y44980D02*
D03*
D45*
X214862Y78839D02*
D03*
X51752Y44685D02*
D03*
X57579Y46654D02*
D03*
Y44685D02*
D03*
X214862Y76870D02*
D03*
X137736Y57071D02*
D03*
Y55102D02*
D03*
Y53134D02*
D03*
D46*
X220866Y31988D02*
D03*
D49*
X48228Y72766D02*
D03*
D50*
X42756Y80118D02*
D03*
D51*
X22146Y83858D02*
D03*
Y88976D02*
D03*
D54*
X76257Y73632D02*
D03*
X57359Y91132D02*
D03*
Y88632D02*
D03*
Y86132D02*
D03*
Y73632D02*
D03*
X76257Y76132D02*
D03*
Y78632D02*
D03*
Y88632D02*
D03*
D55*
X77854Y47258D02*
D03*
D62*
X151476Y112500D02*
D03*
X144488Y108366D02*
D03*
D79*
X122143Y118602D02*
Y123422D01*
X130610Y131890D02*
X139665D01*
X122143Y123422D02*
X130610Y131890D01*
X122143Y104823D02*
Y109249D01*
X118209Y104823D02*
X122143D01*
D80*
X103667Y32160D02*
Y35452D01*
X94724Y44395D02*
X103667Y35452D01*
X196359Y4647D02*
Y8170D01*
X195773Y4061D02*
X196359Y4647D01*
X116205Y4061D02*
X195773D01*
X202461Y8636D02*
Y29724D01*
X197462Y8050D02*
X201875D01*
X202461Y8636D01*
X188444Y63328D02*
X188444D01*
X203636Y48136D01*
X103667Y16598D02*
Y32160D01*
X113325Y6941D02*
Y10110D01*
X109531Y13904D02*
X113325Y10110D01*
X106362Y13904D02*
X109531D01*
X103667Y16598D02*
X106362Y13904D01*
X203636Y46364D02*
Y48136D01*
Y46364D02*
X218012Y31988D01*
X220866D01*
X122143Y109249D02*
X127431Y114538D01*
X142786D01*
X144685Y116437D01*
X115847Y102461D02*
X118209Y104823D01*
X144685Y116437D02*
Y131791D01*
X113325Y6941D02*
X116205Y4061D01*
X86319Y44395D02*
X94724D01*
X82980D02*
X86319D01*
X80116Y47258D02*
X82980Y44395D01*
X68504Y47244D02*
X77840D01*
X53842Y46775D02*
X57579D01*
Y46654D02*
X67913D01*
X51752Y44685D02*
X53842Y46775D01*
D81*
X221446Y57437D02*
G03*
X221381Y58005I-2700J-20D01*
G01*
X221562Y41927D02*
X232921Y30568D01*
X221446Y57437D02*
X221562Y41927D01*
X232921Y30568D02*
X233169Y30817D01*
X227746Y25394D02*
X232921Y30568D01*
X227067Y25394D02*
X227746D01*
X112697Y89338D02*
Y90158D01*
X90965Y67607D02*
X112697Y89338D01*
X90965Y61469D02*
Y67607D01*
X89535Y60039D02*
X90965Y61469D01*
X88779Y60039D02*
X89535D01*
X118110Y8661D02*
Y12281D01*
X113710Y16681D02*
X118110Y12281D01*
X113710Y16681D02*
Y35109D01*
X88779Y60039D02*
X113710Y35109D01*
X83661Y68265D02*
Y72146D01*
X83310Y67913D02*
X83661Y68265D01*
X78051Y67913D02*
X83310D01*
X77165Y67028D02*
X78051Y67913D01*
X77165Y63484D02*
Y67028D01*
X88779Y62992D02*
Y67027D01*
Y62598D02*
Y62992D01*
X83661Y72146D02*
X88779Y67027D01*
X83661Y72146D02*
Y86319D01*
X220374Y62520D02*
X221381Y58005D01*
X208386Y74508D02*
X220374Y62520D01*
X202362Y74508D02*
X208386D01*
X67695Y97933D02*
X74392D01*
X57427D02*
X64195D01*
D82*
X158695Y93903D02*
G03*
X158439Y94169I-1998J-1665D01*
G01*
X119882Y101378D02*
G03*
X118053Y96964I4414J-4414D01*
G01*
X217147Y58936D02*
X217382Y58701D01*
X218746Y57417D01*
X144902Y106378D02*
X158439Y94169D01*
X165698Y85748D02*
X181108D01*
X165532Y85748D02*
X165698Y85748D01*
X158695Y93903D02*
X165296Y85983D01*
X143007Y106378D02*
X144902D01*
X165296Y85983D02*
X165532Y85748D01*
X159380Y73751D02*
X167401Y65730D01*
X168128D01*
X175689Y58169D01*
Y57087D02*
Y58169D01*
X207677Y68405D02*
X217147Y58936D01*
X126080Y110728D02*
X138656D01*
X127890Y106791D02*
X128048D01*
X127622Y106524D02*
X127890Y106791D01*
X127343Y106524D02*
X127622D01*
X126347Y105527D02*
X127343Y106524D01*
X126079Y104823D02*
X126347Y105091D01*
X124111Y104823D02*
X126079D01*
X120666Y101378D02*
X124111Y104823D01*
X126347Y105091D02*
Y105527D01*
X138656Y110728D02*
X143007Y106378D01*
X131079Y108569D02*
X131124Y108614D01*
X119882Y101378D02*
X120666D01*
X118053Y93805D02*
Y96964D01*
X196161Y68405D02*
X207677D01*
X181819Y82748D02*
X196161Y68405D01*
X181819Y82748D02*
Y85037D01*
X181108Y85748D02*
X181819Y85037D01*
X175689Y23110D02*
Y57087D01*
X172864Y14203D02*
Y20286D01*
X167323Y8661D02*
X172864Y14203D01*
Y20286D02*
X175689Y23110D01*
X113976Y80709D02*
X114764D01*
X111024Y83661D02*
X113976Y80709D01*
X115881Y91632D02*
X118053Y93805D01*
X115881Y88519D02*
Y91632D01*
X111024Y83661D02*
X115881Y88519D01*
D83*
X124111Y102854D02*
X129624Y97341D01*
X117771Y81103D02*
X118490Y81822D01*
X117771Y78204D02*
Y81103D01*
X114173Y74606D02*
X117771Y78204D01*
X110632Y74606D02*
X114173D01*
X118490Y81822D02*
Y87106D01*
Y91328D01*
X124111Y96949D01*
X124087Y96972D02*
Y98917D01*
X122143D02*
X124087D01*
X129624Y89272D02*
Y97341D01*
X156591Y100886D02*
X158560D01*
X160528D01*
X162497D01*
X167801Y106190D01*
Y124470D01*
X176598Y133268D01*
X186809D01*
X166650Y53134D02*
X169095Y50689D01*
X137736Y53134D02*
X166650D01*
D84*
X9843Y8661D02*
D03*
Y18504D02*
D03*
X19685Y8661D02*
D03*
Y18504D02*
D03*
X29528Y8661D02*
D03*
Y18504D02*
D03*
X39370Y8661D02*
D03*
Y18504D02*
D03*
X49213Y8661D02*
D03*
Y18504D02*
D03*
X59055Y8661D02*
D03*
Y18504D02*
D03*
X68898Y8661D02*
D03*
Y18504D02*
D03*
X78740Y8661D02*
D03*
Y18504D02*
D03*
X88583Y8661D02*
D03*
Y18504D02*
D03*
X98425Y8661D02*
D03*
Y18504D02*
D03*
X108268Y8661D02*
D03*
Y18504D02*
D03*
X118110Y8661D02*
D03*
Y18504D02*
D03*
X127953Y8661D02*
D03*
Y18504D02*
D03*
X137795Y8661D02*
D03*
Y18504D02*
D03*
X147638Y8661D02*
D03*
Y18504D02*
D03*
X157480Y8661D02*
D03*
Y18504D02*
D03*
X167323Y8661D02*
D03*
Y18504D02*
D03*
X177165Y8661D02*
D03*
Y18504D02*
D03*
X187008Y8661D02*
D03*
Y18504D02*
D03*
X196850Y8661D02*
D03*
D85*
Y18504D02*
D03*
D86*
X11614Y100197D02*
D03*
Y72638D02*
D03*
D87*
X22244Y96260D02*
D03*
Y76575D02*
D03*
D88*
X224606Y8563D02*
D03*
X236417D02*
D03*
D89*
X139665Y131890D02*
D03*
X218746Y57417D02*
D03*
X156697Y92238D02*
D03*
X227067Y25394D02*
D03*
X112697Y90158D02*
D03*
X83661Y86319D02*
D03*
X135138Y43110D02*
D03*
X134843Y47835D02*
D03*
X132382Y38386D02*
D03*
X112106Y109593D02*
D03*
X139173Y26575D02*
D03*
X151459Y92217D02*
D03*
X159380Y73751D02*
D03*
X114764Y80709D02*
D03*
X143602Y78080D02*
D03*
X147539Y83366D02*
D03*
X115453Y94882D02*
D03*
D90*
X188444Y63328D02*
D03*
X144685Y131791D02*
D03*
D91*
X91133Y41240D02*
D03*
D92*
X129624Y89272D02*
D03*
D95*
X148307Y134094D02*
D03*
X153622Y130157D02*
D03*
D96*
X42717Y72638D02*
D03*
X74786Y97539D02*
D03*
D98*
X247641Y132382D02*
D03*
D99*
X202461Y29724D02*
D03*
D101*
X126103Y108783D02*
X130864D01*
X126080Y108760D02*
X126103Y108783D01*
X114951Y104645D02*
X126940Y116634D01*
X114464Y104645D02*
X114951D01*
X126940Y116634D02*
X128048D01*
X113761Y100979D02*
Y103942D01*
X114464Y104645D01*
X128069Y116634D02*
X128072Y116631D01*
X128048Y116634D02*
X128069D01*
X114228Y100088D02*
X114317Y99999D01*
X114204Y100536D02*
X114228Y100088D01*
X113761Y100979D02*
X114204Y100536D01*
X114317Y99999D02*
X114339Y99976D01*
X115378D01*
D102*
X245276Y124114D02*
D03*
Y117815D02*
D03*
D103*
X39783Y84055D02*
D03*
D104*
X76257Y91132D02*
D03*
D105*
X67195Y97933D02*
D03*
X64695D02*
D03*
D106*
X144488Y108366D02*
X157382D01*
X158071Y109055D01*
X154626Y112500D02*
X156102Y111024D01*
X151969Y112500D02*
X154626D01*
M02*
