G04*
G04 #@! TF.GenerationSoftware,Altium Limited,Altium Designer,24.7.2 (38)*
G04*
G04 Layer_Color=8388736*
%FSLAX25Y25*%
%MOIN*%
G70*
G04*
G04 #@! TF.SameCoordinates,AE13ACC6-ACDC-44EC-B660-6A6B6F5FC903*
G04*
G04*
G04 #@! TF.FilePolarity,Negative*
G04*
G01*
G75*
%ADD16R,0.07087X0.03150*%
%ADD17R,0.03150X0.07087*%
%ADD19R,0.01968X0.02362*%
%ADD20R,0.01575X0.02362*%
%ADD21R,0.02362X0.01968*%
%ADD22R,0.01181X0.00984*%
%ADD23R,0.02648X0.02816*%
%ADD24R,0.02029X0.01860*%
%ADD25R,0.03961X0.04351*%
%ADD26R,0.01860X0.02029*%
%ADD27R,0.04351X0.03961*%
%ADD28R,0.02816X0.02648*%
%ADD29R,0.02123X0.01860*%
%ADD31R,0.02362X0.01575*%
%ADD32R,0.00984X0.01181*%
%ADD33R,0.02977X0.01152*%
%ADD34R,0.01772X0.02362*%
G04:AMPARAMS|DCode=35|XSize=29.77mil|YSize=11.52mil|CornerRadius=5.76mil|HoleSize=0mil|Usage=FLASHONLY|Rotation=180.000|XOffset=0mil|YOffset=0mil|HoleType=Round|Shape=RoundedRectangle|*
%AMROUNDEDRECTD35*
21,1,0.02977,0.00000,0,0,180.0*
21,1,0.01825,0.01152,0,0,180.0*
1,1,0.01152,-0.00913,0.00000*
1,1,0.01152,0.00913,0.00000*
1,1,0.01152,0.00913,0.00000*
1,1,0.01152,-0.00913,0.00000*
%
%ADD35ROUNDEDRECTD35*%
%ADD36R,0.03543X0.02953*%
%ADD37R,0.04134X0.06299*%
%ADD38R,0.03150X0.05512*%
%ADD39R,0.02638X0.01181*%
%ADD40R,0.02362X0.02362*%
%ADD43R,0.02756X0.01968*%
%ADD44R,0.02423X0.02254*%
%ADD45R,0.01300X0.01600*%
%ADD48R,0.03379X0.03371*%
%ADD49R,0.03591X0.03775*%
%ADD50R,0.02362X0.01772*%
G04:AMPARAMS|DCode=51|XSize=86.61mil|YSize=13.58mil|CornerRadius=6.79mil|HoleSize=0mil|Usage=FLASHONLY|Rotation=180.000|XOffset=0mil|YOffset=0mil|HoleType=Round|Shape=RoundedRectangle|*
%AMROUNDEDRECTD51*
21,1,0.08661,0.00000,0,0,180.0*
21,1,0.07303,0.01358,0,0,180.0*
1,1,0.01358,-0.03652,0.00000*
1,1,0.01358,0.03652,0.00000*
1,1,0.01358,0.03652,0.00000*
1,1,0.01358,-0.03652,0.00000*
%
%ADD51ROUNDEDRECTD51*%
%ADD52R,0.01034X0.01394*%
%ADD53R,0.01860X0.02203*%
%ADD54R,0.02254X0.02423*%
%ADD55R,0.01860X0.01073*%
%ADD56R,0.06717X0.04546*%
%ADD58R,0.02047X0.02047*%
%ADD59R,0.02182X0.01822*%
%ADD60R,0.01394X0.01034*%
%ADD62R,0.01968X0.01575*%
%ADD63R,0.02410X0.02597*%
%ADD64C,0.01384*%
%ADD65R,0.02572X0.02769*%
%ADD66R,0.04737X0.05524*%
%ADD67R,0.02965X0.02965*%
G04:AMPARAMS|DCode=68|XSize=19.81mil|YSize=27.29mil|CornerRadius=5.95mil|HoleSize=0mil|Usage=FLASHONLY|Rotation=270.000|XOffset=0mil|YOffset=0mil|HoleType=Round|Shape=RoundedRectangle|*
%AMROUNDEDRECTD68*
21,1,0.01981,0.01539,0,0,270.0*
21,1,0.00791,0.02729,0,0,270.0*
1,1,0.01190,-0.00770,-0.00396*
1,1,0.01190,-0.00770,0.00396*
1,1,0.01190,0.00770,0.00396*
1,1,0.01190,0.00770,-0.00396*
%
%ADD68ROUNDEDRECTD68*%
%ADD69R,0.05815X0.02075*%
%ADD70R,0.04737X0.08398*%
%ADD71R,0.03359X0.03320*%
%ADD72C,0.07001*%
%ADD73R,0.07001X0.07001*%
%ADD74C,0.06209*%
%ADD75C,0.04147*%
%ADD76C,0.02769*%
%ADD77C,0.03600*%
G36*
X7622Y77614D02*
Y72244D01*
X7626Y72130D01*
X7638Y72012D01*
X7650Y71898D01*
X7673Y71784D01*
X7701Y71669D01*
X7732Y71559D01*
X7772Y71449D01*
X7815Y71342D01*
X7866Y71236D01*
X7921Y71134D01*
X7980Y71035D01*
X8047Y70941D01*
X8118Y70846D01*
X8193Y70760D01*
X8276Y70677D01*
X8358Y70595D01*
X8445Y70520D01*
X8539Y70449D01*
X8634Y70382D01*
X8732Y70323D01*
X8835Y70268D01*
X8941Y70217D01*
X9047Y70173D01*
X9157Y70134D01*
X9268Y70102D01*
X9382Y70075D01*
X9496Y70051D01*
X9610Y70039D01*
X9728Y70028D01*
X13500D01*
X13618Y70039D01*
X13732Y70051D01*
X13846Y70075D01*
X13961Y70102D01*
X14071Y70134D01*
X14181Y70173D01*
X14287Y70217D01*
X14394Y70268D01*
X14496Y70323D01*
X14594Y70382D01*
X14689Y70449D01*
X14784Y70520D01*
X14870Y70595D01*
X15035Y70760D01*
X15110Y70846D01*
X15181Y70941D01*
X15248Y71035D01*
X15307Y71134D01*
X15362Y71236D01*
X15413Y71342D01*
X15457Y71449D01*
X15496Y71559D01*
X15528Y71669D01*
X15555Y71784D01*
X15579Y71898D01*
X15590Y72012D01*
X15602Y72130D01*
Y77614D01*
X7622D01*
D02*
G37*
G36*
X15590Y100823D02*
X15579Y100937D01*
X15555Y101051D01*
X15528Y101165D01*
X15496Y101276D01*
X15457Y101386D01*
X15413Y101492D01*
X15362Y101598D01*
X15307Y101701D01*
X15248Y101799D01*
X15181Y101894D01*
X15110Y101988D01*
X15035Y102075D01*
X14870Y102240D01*
X14784Y102315D01*
X14689Y102386D01*
X14594Y102453D01*
X14496Y102512D01*
X14394Y102567D01*
X14287Y102618D01*
X14181Y102661D01*
X14071Y102701D01*
X13961Y102732D01*
X13846Y102760D01*
X13732Y102784D01*
X13618Y102795D01*
X13500Y102807D01*
X9728D01*
X9610Y102795D01*
X9496Y102784D01*
X9382Y102760D01*
X9268Y102732D01*
X9157Y102701D01*
X9047Y102661D01*
X8941Y102618D01*
X8835Y102567D01*
X8732Y102512D01*
X8634Y102453D01*
X8539Y102386D01*
X8445Y102315D01*
X8358Y102240D01*
X8276Y102157D01*
X8193Y102075D01*
X8118Y101988D01*
X8047Y101894D01*
X7980Y101799D01*
X7921Y101701D01*
X7866Y101598D01*
X7815Y101492D01*
X7772Y101386D01*
X7732Y101276D01*
X7701Y101165D01*
X7673Y101051D01*
X7650Y100937D01*
X7638Y100823D01*
X7626Y100705D01*
X7622Y100591D01*
X7624Y95222D01*
X15602Y95221D01*
Y100705D01*
X15590Y100823D01*
D02*
G37*
D16*
X245276Y124114D02*
D03*
Y117815D02*
D03*
D17*
X191338Y44685D02*
D03*
X185039D02*
D03*
D19*
X107874Y90847D02*
D03*
X99409Y142421D02*
D03*
X111713Y136221D02*
D03*
X95472Y142421D02*
D03*
X107087Y83661D02*
D03*
D20*
X112598Y114862D02*
D03*
D21*
X103347Y100689D02*
D03*
X208071Y76181D02*
D03*
X95965Y77658D02*
D03*
Y73721D02*
D03*
X169095Y46752D02*
D03*
D22*
X89567Y114665D02*
D03*
Y118602D02*
D03*
X80118D02*
D03*
D23*
X120669Y75380D02*
D03*
X152756Y86825D02*
D03*
X25197Y109632D02*
D03*
X128248Y60349D02*
D03*
X59350Y146850D02*
D03*
X25197Y113400D02*
D03*
X247736Y79443D02*
D03*
D24*
X146569Y88779D02*
D03*
D25*
X162008Y90453D02*
D03*
X185925Y100195D02*
D03*
D26*
X170965Y92337D02*
D03*
X44980Y108057D02*
D03*
D27*
X171061Y99606D02*
D03*
X58661Y30413D02*
D03*
D28*
X169474Y107972D02*
D03*
X182593Y90945D02*
D03*
D29*
X169817Y115945D02*
D03*
D31*
X175689Y60630D02*
D03*
X168012Y60827D02*
D03*
X220374Y64764D02*
D03*
X153051Y53740D02*
D03*
Y57284D02*
D03*
X230315Y75689D02*
D03*
Y79232D02*
D03*
X147736Y40650D02*
D03*
D32*
X182480Y83957D02*
D03*
D33*
X217815Y140748D02*
D03*
D34*
X197146Y142323D02*
D03*
D35*
X209327Y140748D02*
D03*
D36*
X230315Y80512D02*
D03*
X162402Y35236D02*
D03*
X107480Y50197D02*
D03*
X177854Y35531D02*
D03*
D37*
X194685Y57283D02*
D03*
D38*
X162106Y44980D02*
D03*
D39*
X143563Y53134D02*
D03*
Y55102D02*
D03*
X214862Y74902D02*
D03*
X220689D02*
D03*
Y76870D02*
D03*
Y78839D02*
D03*
Y80807D02*
D03*
X143563Y57071D02*
D03*
X57579Y48622D02*
D03*
X51752D02*
D03*
Y46654D02*
D03*
Y50590D02*
D03*
X143563Y59039D02*
D03*
D40*
X241634Y27953D02*
D03*
X220866Y27854D02*
D03*
D43*
X103642Y28445D02*
D03*
D44*
X66507Y30709D02*
D03*
D45*
X48228Y75266D02*
D03*
D48*
X16240Y120173D02*
D03*
D49*
X239173Y80322D02*
D03*
X120177Y63393D02*
D03*
D50*
X177953Y131988D02*
D03*
X48327Y129331D02*
D03*
D51*
X76257Y83632D02*
D03*
Y86132D02*
D03*
X57359Y78632D02*
D03*
Y76132D02*
D03*
Y81132D02*
D03*
D52*
X88317Y76592D02*
D03*
X48720Y87123D02*
D03*
D53*
X88386Y49306D02*
D03*
Y52269D02*
D03*
X233169Y27854D02*
D03*
D54*
X44291Y45655D02*
D03*
D55*
X70472Y111319D02*
D03*
D56*
X67520Y132188D02*
D03*
D58*
X66240Y37795D02*
D03*
D59*
X29232Y44685D02*
D03*
D60*
X29348Y51279D02*
D03*
D62*
X40650Y128839D02*
D03*
D63*
X32579Y129040D02*
D03*
D64*
X158569Y120571D02*
D03*
X126089Y118602D02*
D03*
X128057D02*
D03*
X158569D02*
D03*
X122152Y116634D02*
D03*
X156601D02*
D03*
X126089Y114665D02*
D03*
X156601D02*
D03*
X124120Y112697D02*
D03*
Y110728D02*
D03*
X160538D02*
D03*
X162506D02*
D03*
X126089Y106791D02*
D03*
X156601D02*
D03*
X158569D02*
D03*
X162506D02*
D03*
X156601Y102854D02*
D03*
X158569D02*
D03*
X160538D02*
D03*
X162506D02*
D03*
X122152Y100886D02*
D03*
X124120D02*
D03*
X128057Y98917D02*
D03*
X156601D02*
D03*
X158569D02*
D03*
X160538D02*
D03*
X162506D02*
D03*
X154632Y96949D02*
D03*
X156601D02*
D03*
X158569D02*
D03*
X160538D02*
D03*
X162506D02*
D03*
X126089Y98917D02*
D03*
D65*
X133169Y116929D02*
D03*
Y119882D02*
D03*
X119685Y137402D02*
D03*
D66*
X240354Y18799D02*
D03*
X220669D02*
D03*
X230512D02*
D03*
D67*
X97539Y28642D02*
D03*
X93996D02*
D03*
D68*
X42756Y82087D02*
D03*
Y84055D02*
D03*
D69*
X22146Y86417D02*
D03*
Y81299D02*
D03*
D70*
X47933Y147244D02*
D03*
X30610D02*
D03*
D71*
X30020Y56693D02*
D03*
D72*
X9843Y8661D02*
D03*
Y18504D02*
D03*
X19685Y8661D02*
D03*
Y18504D02*
D03*
X29528Y8661D02*
D03*
Y18504D02*
D03*
X39370Y8661D02*
D03*
Y18504D02*
D03*
X49213Y8661D02*
D03*
Y18504D02*
D03*
X59055Y8661D02*
D03*
Y18504D02*
D03*
X68898Y8661D02*
D03*
Y18504D02*
D03*
X78740Y8661D02*
D03*
Y18504D02*
D03*
X88583Y8661D02*
D03*
Y18504D02*
D03*
X98425Y8661D02*
D03*
Y18504D02*
D03*
X108268Y8661D02*
D03*
Y18504D02*
D03*
X118110Y8661D02*
D03*
Y18504D02*
D03*
X127953Y8661D02*
D03*
Y18504D02*
D03*
X137795Y8661D02*
D03*
Y18504D02*
D03*
X147638Y8661D02*
D03*
Y18504D02*
D03*
X157480Y8661D02*
D03*
Y18504D02*
D03*
X167323Y8661D02*
D03*
Y18504D02*
D03*
X177165Y8661D02*
D03*
Y18504D02*
D03*
X187008Y8661D02*
D03*
Y18504D02*
D03*
X196850Y8661D02*
D03*
D73*
Y18504D02*
D03*
D74*
X22244Y96260D02*
D03*
Y76575D02*
D03*
D75*
X224606Y8563D02*
D03*
X236417D02*
D03*
D76*
X188444Y63328D02*
D03*
X144685Y131791D02*
D03*
D77*
X218746Y57417D02*
D03*
X156697Y92238D02*
D03*
X227067Y25394D02*
D03*
X112697Y90158D02*
D03*
X83661Y86319D02*
D03*
X135138Y43110D02*
D03*
X134843Y47835D02*
D03*
X132382Y38386D02*
D03*
X112106Y109593D02*
D03*
X139173Y26575D02*
D03*
X151459Y92217D02*
D03*
X159380Y73751D02*
D03*
X139665Y131890D02*
D03*
X114764Y80709D02*
D03*
X143602Y78080D02*
D03*
X147539Y83366D02*
D03*
X115453Y94882D02*
D03*
M02*
