M48
;Layer_Color=9474304
;FILE_FORMAT=4:4
METRIC,LZ
;TYPE=PLATED
T01F00S00C0.3000
T03F00S00C0.7112
T04F00S00C0.8500
T05F00S00C1.0500
;TYPE=NON_PLATED
T06F00S00C0.8500
%
T01
X00478647Y00160853
X003675Y0033475
T03
X003535Y000675
X0033625Y000975
X0034325Y001095
X003425Y001215
X0057675Y000645
X00555615Y00145838
X00404826Y00187326
X0036475Y00198322
X0037475Y0021175
X00384706Y00234232
X00398011Y00234283
X0029325Y00241
X0028625Y00229
X002915Y00205
X0028475Y00278366
X0035475Y00335
X002125Y0021925
T04
X000565Y001945
Y002445
T05
X00025Y00022
Y00047
X0005
Y00022
X00075
Y00047
X001
Y00022
X00125
Y00047
X0015
Y00022
X00175
Y00047
X002
Y00022
X00225
Y00047
X0025
Y00022
X00275
Y00047
X003
Y00022
X00325
Y00047
X0035
Y00022
X00375
Y00047
X004
Y00022
X00425
Y00047
X0045
Y00022
X00475
Y00047
X005
Y00022
T06
X005705Y0002175
X006005
M30
