G04*
G04 #@! TF.GenerationSoftware,Altium Limited,Altium Designer,24.7.2 (38)*
G04*
G04 Layer_Physical_Order=3*
G04 Layer_Color=16440176*
%FSLAX25Y25*%
%MOIN*%
G70*
G04*
G04 #@! TF.SameCoordinates,AE13ACC6-ACDC-44EC-B660-6A6B6F5FC903*
G04*
G04*
G04 #@! TF.FilePolarity,Positive*
G04*
G01*
G75*
%ADD15C,0.01000*%
%ADD18C,0.00984*%
%ADD19R,0.01968X0.02362*%
%ADD30R,0.01772X0.01968*%
G04:AMPARAMS|DCode=46|XSize=11.81mil|YSize=19.29mil|CornerRadius=1.95mil|HoleSize=0mil|Usage=FLASHONLY|Rotation=270.000|XOffset=0mil|YOffset=0mil|HoleType=Round|Shape=RoundedRectangle|*
%AMROUNDEDRECTD46*
21,1,0.01181,0.01539,0,0,270.0*
21,1,0.00791,0.01929,0,0,270.0*
1,1,0.00390,-0.00770,-0.00396*
1,1,0.00390,-0.00770,0.00396*
1,1,0.00390,0.00770,0.00396*
1,1,0.00390,0.00770,-0.00396*
%
%ADD46ROUNDEDRECTD46*%
%ADD84C,0.06201*%
%ADD86O,0.07480X0.04724*%
%ADD87C,0.05709*%
%ADD88C,0.03347*%
%ADD89C,0.01968*%
%ADD90C,0.02800*%
%ADD100R,0.02559X0.02756*%
%ADD101C,0.00400*%
D15*
X165283Y82749D02*
Y83652D01*
X156697Y92238D02*
X165283Y83652D01*
Y82749D02*
X173524Y74508D01*
X198425D01*
X151459Y92217D02*
X177165Y66511D01*
Y18504D02*
Y66511D01*
X124111Y106791D02*
X127612D01*
X122088Y102539D02*
X124071Y104523D01*
X122088Y97415D02*
Y102539D01*
X116654Y91982D02*
X122088Y97415D01*
X114521Y91982D02*
X116654D01*
X112697Y90158D02*
X114521Y91982D01*
X89075Y18012D02*
X93825D01*
Y77781D01*
X77165Y60532D02*
X80807D01*
X83982Y57356D01*
Y16598D02*
Y57356D01*
Y16598D02*
X86677Y13904D01*
X88432D01*
X88583Y13753D01*
Y8661D02*
Y13753D01*
X143163Y29475D02*
X149533Y23104D01*
X149543D01*
X152559Y20089D01*
Y4061D02*
Y20089D01*
X93183Y4061D02*
X152559D01*
X88583Y8661D02*
X93183Y4061D01*
X137972Y29475D02*
X143163D01*
X137926Y29429D02*
X137972Y29475D01*
X136024Y29429D02*
X137926D01*
X129482Y35971D02*
X136024Y29429D01*
X129482Y35971D02*
Y46608D01*
X127482Y34165D02*
X138542Y23104D01*
X127482Y34165D02*
Y93624D01*
X131299Y97441D01*
X124088Y100061D02*
X125482Y98666D01*
Y30817D02*
Y98666D01*
Y30817D02*
X137795Y18504D01*
X129482Y46608D02*
X132677Y49803D01*
Y106099D01*
X129035Y113976D02*
X136122Y106890D01*
Y50787D02*
Y106890D01*
Y50787D02*
X139961Y46949D01*
X131299Y97441D02*
Y103105D01*
X127612Y106791D02*
X131299Y103105D01*
X135138Y43110D02*
X136122D01*
X134843Y47835D02*
Y105902D01*
X136122Y43110D02*
X139961Y46949D01*
X128048Y110728D02*
X132677Y106099D01*
X116674Y104151D02*
Y105025D01*
X112106Y109547D02*
X112152D01*
X112106Y109593D02*
X112593D01*
X113729Y110728D01*
X113256Y100733D02*
X116674Y104151D01*
X112152Y109547D02*
X116674Y105025D01*
X113729Y110728D02*
X122143D01*
X88583Y18504D02*
X89075Y18012D01*
X93825Y77781D02*
X113256Y97213D01*
Y100733D01*
X127359Y113976D02*
X129035D01*
X126080Y112697D02*
X127359Y113976D01*
X128048Y112697D02*
X134843Y105902D01*
X139059Y13262D02*
X142396Y16598D01*
Y20410D01*
X139701Y23104D02*
X142396Y20410D01*
X127953Y8661D02*
X133045D01*
X133195Y8812D01*
Y10567D01*
X135890Y13262D01*
X139059D01*
X124088Y100061D02*
Y101711D01*
X126080Y103703D01*
Y104823D01*
X138542Y23104D02*
X139701D01*
X115256Y99905D02*
X124111Y108760D01*
X115256Y95079D02*
Y99905D01*
Y95079D02*
X115453Y94882D01*
X105807Y128642D02*
X114072D01*
X32972Y73524D02*
Y75335D01*
X39724Y82087D01*
D18*
X126089Y100886D02*
D03*
X128057D02*
D03*
X126089Y116634D02*
D03*
X124120Y114665D02*
D03*
X126089Y112697D02*
D03*
X128057D02*
D03*
X122152Y110728D02*
D03*
X128057D02*
D03*
X124120Y108760D02*
D03*
Y106791D02*
D03*
Y104823D02*
D03*
X126089D02*
D03*
D19*
X198425Y74508D02*
D03*
X115354Y122146D02*
D03*
X105807Y128642D02*
D03*
D30*
X77165Y60532D02*
D03*
D46*
X39724Y82087D02*
D03*
D84*
X9843Y8661D02*
D03*
Y18504D02*
D03*
X19685Y8661D02*
D03*
Y18504D02*
D03*
X29528Y8661D02*
D03*
Y18504D02*
D03*
X39370Y8661D02*
D03*
Y18504D02*
D03*
X49213Y8661D02*
D03*
Y18504D02*
D03*
X59055Y8661D02*
D03*
Y18504D02*
D03*
X68898Y8661D02*
D03*
Y18504D02*
D03*
X78740Y8661D02*
D03*
Y18504D02*
D03*
X88583Y8661D02*
D03*
Y18504D02*
D03*
X98425Y8661D02*
D03*
Y18504D02*
D03*
X108268Y8661D02*
D03*
Y18504D02*
D03*
X118110Y8661D02*
D03*
Y18504D02*
D03*
X127953Y8661D02*
D03*
Y18504D02*
D03*
X137795Y8661D02*
D03*
Y18504D02*
D03*
X147638Y8661D02*
D03*
Y18504D02*
D03*
X157480Y8661D02*
D03*
Y18504D02*
D03*
X167323Y8661D02*
D03*
Y18504D02*
D03*
X177165Y8661D02*
D03*
Y18504D02*
D03*
X187008Y8661D02*
D03*
Y18504D02*
D03*
X196850Y8661D02*
D03*
Y18504D02*
D03*
D86*
X11614Y100197D02*
D03*
Y72638D02*
D03*
D87*
X22244Y96260D02*
D03*
Y76575D02*
D03*
D88*
X224606Y8563D02*
D03*
X236417D02*
D03*
D89*
X188444Y63328D02*
D03*
X144685Y131791D02*
D03*
D90*
X218746Y57417D02*
D03*
X156697Y92238D02*
D03*
X227067Y25394D02*
D03*
X112697Y90158D02*
D03*
X83661Y86319D02*
D03*
X135138Y43110D02*
D03*
X134843Y47835D02*
D03*
X132382Y38386D02*
D03*
X112106Y109593D02*
D03*
X139173Y26575D02*
D03*
X151459Y92217D02*
D03*
X159380Y73751D02*
D03*
X139665Y131890D02*
D03*
X114764Y80709D02*
D03*
X143602Y78080D02*
D03*
X147539Y83366D02*
D03*
X115453Y94882D02*
D03*
D100*
X32972Y73524D02*
D03*
D101*
X115354Y122146D02*
X122835Y114665D01*
X124111D01*
X114072Y128642D02*
X126080Y116634D01*
M02*
