G04*
G04 #@! TF.GenerationSoftware,Altium Limited,Altium Designer,24.7.2 (38)*
G04*
G04 Layer_Color=32896*
%FSLAX25Y25*%
%MOIN*%
G70*
G04*
G04 #@! TF.SameCoordinates,98F62D9F-8C32-4B21-931F-99D976C78984*
G04*
G04*
G04 #@! TF.FilePolarity,Positive*
G04*
G01*
G75*
%ADD112C,0.00410*%
D112*
X37992Y96653D02*
X39960D01*
Y97637D01*
X39632Y97965D01*
X38976D01*
X38648Y97637D01*
Y96653D01*
X39960Y98621D02*
Y99933D01*
Y99277D01*
X37992D01*
X39960Y100589D02*
X37992D01*
X38976D01*
Y101901D01*
X39960D01*
X37992D01*
X39632Y105837D02*
X39960Y105509D01*
Y104853D01*
X39632Y104525D01*
X39304D01*
X38976Y104853D01*
Y105509D01*
X38648Y105837D01*
X38320D01*
X37992Y105509D01*
Y104853D01*
X38320Y104525D01*
X37992Y106493D02*
Y107149D01*
Y106821D01*
X39960D01*
Y106493D01*
X37992Y108461D02*
Y109117D01*
X38320Y109445D01*
X38976D01*
X39304Y109117D01*
Y108461D01*
X38976Y108133D01*
X38320D01*
X37992Y108461D01*
X39632Y110429D02*
X39304D01*
Y110101D01*
Y110757D01*
Y110429D01*
X38320D01*
X37992Y110757D01*
Y113708D02*
Y114364D01*
Y114036D01*
X39960D01*
X39632Y113708D01*
X37992Y115348D02*
X38320D01*
Y115676D01*
X37992D01*
Y115348D01*
X39632Y116988D02*
X39960Y117316D01*
Y117972D01*
X39632Y118300D01*
X39304D01*
X38976Y117972D01*
Y117644D01*
Y117972D01*
X38648Y118300D01*
X38320D01*
X37992Y117972D01*
Y117316D01*
X38320Y116988D01*
X38976Y120924D02*
Y122236D01*
X39632Y121580D02*
X38320D01*
X37992Y122892D02*
X39304Y124204D01*
X38976Y124860D02*
Y126172D01*
X39632Y128795D02*
X39960Y129123D01*
Y129779D01*
X39632Y130107D01*
X38320D01*
X37992Y129779D01*
Y129123D01*
X38320Y128795D01*
X39632D01*
X37992Y130763D02*
X38320D01*
Y131091D01*
X37992D01*
Y130763D01*
X39632Y132403D02*
X39960Y132731D01*
Y133387D01*
X39632Y133715D01*
X38320D01*
X37992Y133387D01*
Y132731D01*
X38320Y132403D01*
X39632D01*
X39960Y135683D02*
Y134371D01*
X38976D01*
X39304Y135027D01*
Y135355D01*
X38976Y135683D01*
X38320D01*
X37992Y135355D01*
Y134699D01*
X38320Y134371D01*
X39960Y138307D02*
X37992Y139619D01*
X39960D02*
X37992Y138307D01*
X39632Y142242D02*
X39960Y142570D01*
Y143226D01*
X39632Y143554D01*
X38320D01*
X37992Y143226D01*
Y142570D01*
X38320Y142242D01*
X39632D01*
X37992Y144210D02*
X38320D01*
Y144538D01*
X37992D01*
Y144210D01*
X39960Y147162D02*
X39632Y146506D01*
X38976Y145850D01*
X38320D01*
X37992Y146178D01*
Y146834D01*
X38320Y147162D01*
X38648D01*
X38976Y146834D01*
Y145850D01*
Y149786D02*
Y151098D01*
X39632Y150442D02*
X38320D01*
X37992Y151754D02*
X39304Y153066D01*
X38976Y153721D02*
Y155033D01*
X39632Y157657D02*
X39960Y157985D01*
Y158641D01*
X39632Y158969D01*
X38320D01*
X37992Y158641D01*
Y157985D01*
X38320Y157657D01*
X39632D01*
X37992Y159625D02*
X38320D01*
Y159953D01*
X37992D01*
Y159625D01*
X39632Y161265D02*
X39960Y161593D01*
Y162249D01*
X39632Y162577D01*
X38320D01*
X37992Y162249D01*
Y161593D01*
X38320Y161265D01*
X39632D01*
X39960Y164545D02*
Y163233D01*
X38976D01*
X39304Y163889D01*
Y164217D01*
X38976Y164545D01*
X38320D01*
X37992Y164217D01*
Y163561D01*
X38320Y163233D01*
X41004Y68917D02*
X42972D01*
Y69901D01*
X42644Y70229D01*
X41988D01*
X41660Y69901D01*
Y68917D01*
X42972Y70885D02*
Y72197D01*
Y71541D01*
X41004D01*
X42972Y72853D02*
X41004D01*
X41988D01*
Y74165D01*
X42972D01*
X41004D01*
X42644Y76789D02*
X42972Y77117D01*
Y77773D01*
X42644Y78101D01*
X41332D01*
X41004Y77773D01*
Y77117D01*
X41332Y76789D01*
X42644D01*
X41004Y78757D02*
X41332D01*
Y79085D01*
X41004D01*
Y78757D01*
X42644Y80396D02*
X42972Y80725D01*
Y81380D01*
X42644Y81708D01*
X42316D01*
X41988Y81380D01*
X41660Y81708D01*
X41332D01*
X41004Y81380D01*
Y80725D01*
X41332Y80396D01*
X41660D01*
X41988Y80725D01*
X42316Y80396D01*
X42644D01*
X41988Y80725D02*
Y81380D01*
X42972Y83676D02*
Y82364D01*
X41988D01*
X42316Y83020D01*
Y83348D01*
X41988Y83676D01*
X41332D01*
X41004Y83348D01*
Y82692D01*
X41332Y82364D01*
X41988Y86300D02*
Y87612D01*
X42644Y86956D02*
X41332D01*
X41004Y88268D02*
X42316Y89580D01*
X41988Y90236D02*
Y91548D01*
X42644Y94172D02*
X42972Y94499D01*
Y95156D01*
X42644Y95483D01*
X41332D01*
X41004Y95156D01*
Y94499D01*
X41332Y94172D01*
X42644D01*
X41004Y96139D02*
X41332D01*
Y96467D01*
X41004D01*
Y96139D01*
X42644Y97779D02*
X42972Y98107D01*
Y98763D01*
X42644Y99091D01*
X41332D01*
X41004Y98763D01*
Y98107D01*
X41332Y97779D01*
X42644D01*
X42972Y101059D02*
Y99747D01*
X41988D01*
X42316Y100403D01*
Y100731D01*
X41988Y101059D01*
X41332D01*
X41004Y100731D01*
Y100075D01*
X41332Y99747D01*
M02*
