G04*
G04 #@! TF.GenerationSoftware,Altium Limited,Altium Designer,24.7.2 (38)*
G04*
G04 Layer_Color=128*
%FSLAX44Y44*%
%MOMM*%
G71*
G04*
G04 #@! TF.SameCoordinates,83C183C4-3B18-41F5-843C-3348C90CF240*
G04*
G04*
G04 #@! TF.FilePolarity,Positive*
G04*
G01*
G75*
%ADD18C,0.2500*%
%ADD19R,0.5000X0.6000*%
%ADD21R,0.6000X0.5000*%
%ADD22R,0.3000X0.2500*%
%ADD23R,0.6725X0.7154*%
%ADD24R,0.5153X0.4725*%
%ADD26R,0.4725X0.5153*%
%ADD27R,1.1051X1.0062*%
%ADD28R,0.7154X0.6725*%
%ADD30R,0.4500X0.5000*%
%ADD31R,0.6000X0.4000*%
%ADD32R,0.2500X0.3000*%
G04:AMPARAMS|DCode=35|XSize=0.7561mm|YSize=0.2925mm|CornerRadius=0.1462mm|HoleSize=0mm|Usage=FLASHONLY|Rotation=180.000|XOffset=0mm|YOffset=0mm|HoleType=Round|Shape=RoundedRectangle|*
%AMROUNDEDRECTD35*
21,1,0.7561,0.0000,0,0,180.0*
21,1,0.4636,0.2925,0,0,180.0*
1,1,0.2925,-0.2318,0.0000*
1,1,0.2925,0.2318,0.0000*
1,1,0.2925,0.2318,0.0000*
1,1,0.2925,-0.2318,0.0000*
%
%ADD35ROUNDEDRECTD35*%
%ADD36R,0.9000X0.7500*%
%ADD38R,0.8000X1.4000*%
%ADD39R,0.6700X0.3000*%
%ADD40R,0.6000X0.6000*%
%ADD45R,0.3302X0.4064*%
G04:AMPARAMS|DCode=46|XSize=0.3mm|YSize=0.49mm|CornerRadius=0.0495mm|HoleSize=0mm|Usage=FLASHONLY|Rotation=270.000|XOffset=0mm|YOffset=0mm|HoleType=Round|Shape=RoundedRectangle|*
%AMROUNDEDRECTD46*
21,1,0.3000,0.3910,0,0,270.0*
21,1,0.2010,0.4900,0,0,270.0*
1,1,0.0990,-0.1955,-0.1005*
1,1,0.0990,-0.1955,0.1005*
1,1,0.0990,0.1955,0.1005*
1,1,0.0990,0.1955,-0.1005*
%
%ADD46ROUNDEDRECTD46*%
%ADD47R,1.3500X0.4000*%
G04:AMPARAMS|DCode=51|XSize=2.2mm|YSize=0.345mm|CornerRadius=0.1725mm|HoleSize=0mm|Usage=FLASHONLY|Rotation=180.000|XOffset=0mm|YOffset=0mm|HoleType=Round|Shape=RoundedRectangle|*
%AMROUNDEDRECTD51*
21,1,2.2000,0.0000,0,0,180.0*
21,1,1.8550,0.3450,0,0,180.0*
1,1,0.3450,-0.9275,0.0000*
1,1,0.3450,0.9275,0.0000*
1,1,0.3450,0.9275,0.0000*
1,1,0.3450,-0.9275,0.0000*
%
%ADD51ROUNDEDRECTD51*%
%ADD53R,0.4725X0.5596*%
%ADD54R,0.5725X0.6153*%
%ADD58R,0.5200X0.5200*%
%ADD62R,0.5000X0.4000*%
%ADD92R,0.4682X0.4725*%
%ADD94R,0.7500X0.7000*%
%ADD95R,0.4541X0.3627*%
%ADD96R,1.1534X1.3562*%
%ADD98R,1.1546X1.7062*%
%ADD99R,0.7500X0.9000*%
G04:AMPARAMS|DCode=103|XSize=0.3mm|YSize=0.52mm|CornerRadius=0.0495mm|HoleSize=0mm|Usage=FLASHONLY|Rotation=270.000|XOffset=0mm|YOffset=0mm|HoleType=Round|Shape=RoundedRectangle|*
%AMROUNDEDRECTD103*
21,1,0.3000,0.4210,0,0,270.0*
21,1,0.2010,0.5200,0,0,270.0*
1,1,0.0990,-0.2105,-0.1005*
1,1,0.0990,-0.2105,0.1005*
1,1,0.0990,0.2105,0.1005*
1,1,0.0990,0.2105,-0.1005*
%
%ADD103ROUNDEDRECTD103*%
%ADD104R,2.2000X0.3450*%
%ADD105R,0.4064X0.3302*%
%ADD109R,0.6154X1.2154*%
D18*
X310266Y266250D02*
D03*
X402766Y256250D02*
D03*
X397766D02*
D03*
X407766D02*
D03*
X412766D02*
D03*
X315266Y296250D02*
D03*
X412766Y301250D02*
D03*
X402766Y276250D02*
D03*
X397766Y281250D02*
D03*
X315266Y301250D02*
D03*
Y306250D02*
D03*
Y261250D02*
D03*
X310266Y251250D02*
D03*
X315266D02*
D03*
Y246250D02*
D03*
X325266Y296250D02*
D03*
X412766Y291250D02*
D03*
X310266Y301250D02*
D03*
X320266Y281250D02*
D03*
Y276250D02*
D03*
X325266Y271250D02*
D03*
Y266250D02*
D03*
X320266Y261250D02*
D03*
D19*
X514000Y189250D02*
D03*
X264000Y230750D02*
D03*
X283000Y310250D02*
D03*
X258750Y271000D02*
D03*
X258750Y326750D02*
D03*
X273750Y346000D02*
D03*
X282000Y212500D02*
D03*
X268750Y271000D02*
D03*
D21*
X262500Y245750D02*
D03*
X429500Y128750D02*
D03*
X528500Y203500D02*
D03*
D22*
X203500Y291250D02*
D03*
Y286250D02*
D03*
X227500Y296250D02*
D03*
X203500D02*
D03*
D23*
X306500Y201036D02*
D03*
X174000Y120000D02*
D03*
D24*
X396965Y357500D02*
D03*
D26*
X453000Y199571D02*
D03*
X405500Y321500D02*
D03*
D27*
X281006Y189500D02*
D03*
X474494Y338500D02*
D03*
D28*
X300964Y221250D02*
D03*
X426214Y316155D02*
D03*
D30*
X225500Y152500D02*
D03*
Y160000D02*
D03*
X196000Y161250D02*
D03*
X294250Y252750D02*
D03*
Y260250D02*
D03*
X588000Y371750D02*
D03*
Y379250D02*
D03*
X304000Y341500D02*
D03*
D31*
X446250Y145000D02*
D03*
X426750Y145500D02*
D03*
D32*
X457500Y213250D02*
D03*
D35*
X553250Y351000D02*
D03*
X531689Y344500D02*
D03*
Y351000D02*
D03*
D36*
X603000Y268500D02*
D03*
X570000Y270000D02*
D03*
D38*
X561000Y245500D02*
D03*
X577000D02*
D03*
X395750Y114250D02*
D03*
D39*
X545750Y200250D02*
D03*
X131450Y113500D02*
D03*
X146250Y118500D02*
D03*
Y113500D02*
D03*
X545750Y195250D02*
D03*
X349850Y144960D02*
D03*
Y139960D02*
D03*
Y134960D02*
D03*
D40*
X561000Y81250D02*
D03*
D45*
X122500Y184825D02*
D03*
D46*
X108600Y203500D02*
D03*
D47*
X56250Y213000D02*
D03*
Y226000D02*
D03*
D51*
X193692Y187025D02*
D03*
X145693Y231475D02*
D03*
Y225125D02*
D03*
Y218775D02*
D03*
Y187025D02*
D03*
X193692Y193375D02*
D03*
Y199725D02*
D03*
Y225125D02*
D03*
D53*
X592250Y78275D02*
D03*
X219250Y105238D02*
D03*
Y112762D02*
D03*
D54*
X197750Y120036D02*
D03*
D58*
X329000Y322000D02*
D03*
D62*
X384750Y285750D02*
D03*
X367000Y275250D02*
D03*
D92*
X231479Y104750D02*
D03*
D94*
X376700Y340598D02*
D03*
X390200Y330598D02*
D03*
D95*
X108500Y184500D02*
D03*
X189957Y247750D02*
D03*
D96*
X329246Y226750D02*
D03*
D98*
X629008Y336250D02*
D03*
D99*
X514250Y75500D02*
D03*
D103*
X101050Y213500D02*
D03*
D104*
X193692Y231475D02*
D03*
D105*
X170675Y248750D02*
D03*
X164325D02*
D03*
D109*
X542470Y351000D02*
D03*
M02*
