G04*
G04 #@! TF.GenerationSoftware,Altium Limited,Altium Designer,24.7.2 (38)*
G04*
G04 Layer_Color=65535*
%FSLAX25Y25*%
%MOIN*%
G70*
G04*
G04 #@! TF.SameCoordinates,98F62D9F-8C32-4B21-931F-99D976C78984*
G04*
G04*
G04 #@! TF.FilePolarity,Positive*
G04*
G01*
G75*
%ADD10C,0.00984*%
%ADD11C,0.00394*%
%ADD12C,0.00787*%
%ADD13C,0.00591*%
%ADD14C,0.00500*%
%ADD15C,0.01000*%
D10*
X111221Y28346D02*
G03*
X111221Y28346I-492J0D01*
G01*
D11*
X37382Y84055D02*
G03*
X37382Y84055I-197J0D01*
G01*
D12*
X215433Y18799D02*
G03*
X215433Y18799I-669J0D01*
G01*
X147933Y34252D02*
Y38583D01*
X142618Y34252D02*
Y38583D01*
X90212Y43898D02*
X95221D01*
X90212Y38583D02*
X95221D01*
X65296Y33410D02*
X71093D01*
X65296Y28007D02*
X71093D01*
X65847Y35295D02*
X69784D01*
X65847Y40295D02*
X69784D01*
X203740Y3740D02*
Y18504D01*
X2953Y3740D02*
X203740D01*
X2953D02*
Y23425D01*
X196850D01*
X226772Y73917D02*
Y81004D01*
X233858Y73917D02*
Y81004D01*
X242544Y72712D02*
Y82209D01*
X235803Y72712D02*
Y82209D01*
X12795Y118488D02*
Y126591D01*
X19685Y118488D02*
Y126591D01*
X198425Y77264D02*
X202362D01*
X198425Y71709D02*
X202362D01*
X39426Y70349D02*
X43611D01*
X39426Y74927D02*
X43611D01*
X46993Y44444D02*
Y50241D01*
X41590Y44444D02*
Y50241D01*
X45827Y125098D02*
Y129823D01*
X50886Y125098D02*
Y129823D01*
X241049Y128839D02*
X244187D01*
X241049Y135925D02*
X244187D01*
X251181Y116634D02*
Y125295D01*
X239370Y116634D02*
Y125295D01*
X240945Y105217D02*
Y112303D01*
X233858Y105217D02*
Y112303D01*
X183858Y38780D02*
X192520D01*
X183858Y50591D02*
X192520D01*
X166437Y46752D02*
Y50689D01*
X171752Y46752D02*
Y50689D01*
X174311Y28937D02*
Y36024D01*
X181398Y28937D02*
Y36024D01*
X103290Y30931D02*
X107621D01*
X103248Y25886D02*
X107579D01*
X50970Y33969D02*
X60837D01*
X50970Y26858D02*
X60837D01*
X46496Y84424D02*
Y87820D01*
X50945Y84424D02*
Y87820D01*
X25352Y47171D02*
X30323D01*
X25352Y42199D02*
X30323D01*
X26648Y53504D02*
X30045D01*
X26648Y49055D02*
X30045D01*
X201969Y33268D02*
X209055D01*
X201969Y26181D02*
X209055D01*
X43209Y125197D02*
Y129331D01*
X38091Y125197D02*
Y129331D01*
X29799Y124385D02*
Y130339D01*
X35359Y124385D02*
Y130339D01*
X31791Y142323D02*
X49902D01*
X31791Y152165D02*
X46752D01*
X28095Y108223D02*
Y114808D01*
X22298Y108223D02*
Y114808D01*
X218110Y27854D02*
Y31988D01*
X223622Y27854D02*
Y31988D01*
X238878Y27953D02*
Y32087D01*
X244390Y27953D02*
Y32087D01*
X230512Y26753D02*
Y31919D01*
X235827Y26753D02*
Y31919D01*
X244838Y74267D02*
Y80851D01*
X250635Y74267D02*
Y80851D01*
X34684Y77457D02*
X28702D01*
Y80448D01*
X29699Y81445D01*
X31693D01*
X32690Y80448D01*
Y77457D01*
Y79451D02*
X34684Y81445D01*
X29699Y83439D02*
X28702Y84436D01*
Y86430D01*
X29699Y87427D01*
X30696D01*
X31693Y86430D01*
Y85433D01*
Y86430D01*
X32690Y87427D01*
X33687D01*
X34684Y86430D01*
Y84436D01*
X33687Y83439D01*
X34684Y93410D02*
Y89421D01*
X30696Y93410D01*
X29699D01*
X28702Y92413D01*
Y90418D01*
X29699Y89421D01*
D13*
X131994Y95374D02*
X152664D01*
X131994Y122146D02*
X152664D01*
D14*
X216339Y14469D02*
X217520D01*
X216339Y2657D02*
Y14469D01*
Y2657D02*
X244685D01*
Y14469D01*
X243504D02*
X244685D01*
D15*
X136857Y129574D02*
Y124575D01*
X137857Y123576D01*
X139856D01*
X140856Y124575D01*
Y129574D01*
X142855Y123576D02*
X144855D01*
X143855D01*
Y129574D01*
X142855Y128574D01*
X141385Y29412D02*
X135387D01*
Y32411D01*
X136387Y33411D01*
X138386D01*
X139385Y32411D01*
Y29412D01*
Y31411D02*
X141385Y33411D01*
Y35410D02*
Y37409D01*
Y36410D01*
X135387D01*
X136387Y35410D01*
X140385Y40408D02*
X141385Y41408D01*
Y43407D01*
X140385Y44407D01*
X136387D01*
X135387Y43407D01*
Y41408D01*
X136387Y40408D01*
X137386D01*
X138386Y41408D01*
Y44407D01*
X96825Y32533D02*
Y38530D01*
X99825D01*
X100824Y37531D01*
Y35531D01*
X99825Y34532D01*
X96825D01*
X98825D02*
X100824Y32533D01*
X106822D02*
X102823D01*
X106822Y36531D01*
Y37531D01*
X105823Y38530D01*
X103823D01*
X102823Y37531D01*
X111821Y32533D02*
Y38530D01*
X108821Y35531D01*
X112820D01*
X98668Y45152D02*
X92670D01*
Y48151D01*
X93670Y49151D01*
X95669D01*
X96669Y48151D01*
Y45152D01*
Y47151D02*
X98668Y49151D01*
Y55149D02*
Y51150D01*
X94670Y55149D01*
X93670D01*
X92670Y54149D01*
Y52150D01*
X93670Y51150D01*
Y57148D02*
X92670Y58148D01*
Y60147D01*
X93670Y61147D01*
X94670D01*
X95669Y60147D01*
X96669Y61147D01*
X97669D01*
X98668Y60147D01*
Y58148D01*
X97669Y57148D01*
X96669D01*
X95669Y58148D01*
X94670Y57148D01*
X93670D01*
X95669Y58148D02*
Y60147D01*
X85676Y53821D02*
X79678D01*
Y56820D01*
X80678Y57820D01*
X82677D01*
X83677Y56820D01*
Y53821D01*
Y55821D02*
X85676Y57820D01*
Y59819D02*
Y61819D01*
Y60819D01*
X79678D01*
X80678Y59819D01*
X79678Y68817D02*
X80678Y66817D01*
X82677Y64818D01*
X84676D01*
X85676Y65817D01*
Y67817D01*
X84676Y68817D01*
X83677D01*
X82677Y67817D01*
Y64818D01*
X78285Y33200D02*
X77285Y34200D01*
X75286D01*
X74286Y33200D01*
Y29201D01*
X75286Y28202D01*
X77285D01*
X78285Y29201D01*
X84283Y28202D02*
X80284D01*
X84283Y32201D01*
Y33200D01*
X83283Y34200D01*
X81284D01*
X80284Y33200D01*
X89281Y28202D02*
Y34200D01*
X86282Y31201D01*
X90281D01*
X76612Y40681D02*
X75612Y41680D01*
X73612D01*
X72613Y40681D01*
Y36682D01*
X73612Y35682D01*
X75612D01*
X76612Y36682D01*
X82610Y35682D02*
X78611D01*
X82610Y39681D01*
Y40681D01*
X81610Y41680D01*
X79611D01*
X78611Y40681D01*
X84609D02*
X85609Y41680D01*
X87608D01*
X88608Y40681D01*
Y39681D01*
X87608Y38681D01*
X86608D01*
X87608D01*
X88608Y37681D01*
Y36682D01*
X87608Y35682D01*
X85609D01*
X84609Y36682D01*
X73668Y54844D02*
X67670D01*
Y57843D01*
X68670Y58843D01*
X70669D01*
X71669Y57843D01*
Y54844D01*
Y56844D02*
X73668Y58843D01*
X67670Y64841D02*
X68670Y62841D01*
X70669Y60842D01*
X72669D01*
X73668Y61842D01*
Y63841D01*
X72669Y64841D01*
X71669D01*
X70669Y63841D01*
Y60842D01*
X6899Y33498D02*
X4899D01*
X5899D01*
Y28500D01*
X4899Y27500D01*
X3900D01*
X2900Y28500D01*
X8898Y27500D02*
X10897D01*
X9898D01*
Y33498D01*
X8898Y32498D01*
X207843Y10485D02*
X206843Y9486D01*
Y7486D01*
X207843Y6487D01*
X208843D01*
X209842Y7486D01*
Y9486D01*
X210842Y10485D01*
X211842D01*
X212842Y9486D01*
Y7486D01*
X211842Y6487D01*
X206843Y12485D02*
X212842D01*
X210842Y14484D01*
X212842Y16483D01*
X206843D01*
X212842Y18483D02*
Y20482D01*
Y19482D01*
X206843D01*
X207843Y18483D01*
X246115Y37903D02*
X252113D01*
Y34904D01*
X251114Y33904D01*
X249114D01*
X248114Y34904D01*
Y37903D01*
Y35904D02*
X246115Y33904D01*
X251114Y31905D02*
X252113Y30906D01*
Y28906D01*
X251114Y27907D01*
X250114D01*
X249114Y28906D01*
Y29906D01*
Y28906D01*
X248114Y27907D01*
X247115D01*
X246115Y28906D01*
Y30906D01*
X247115Y31905D01*
X246115Y25907D02*
Y23908D01*
Y24907D01*
X252113D01*
X251114Y25907D01*
X49188Y63733D02*
Y69731D01*
X52187D01*
X53186Y68732D01*
Y66732D01*
X52187Y65733D01*
X49188D01*
X51187D02*
X53186Y63733D01*
X55186Y68732D02*
X56185Y69731D01*
X58185D01*
X59184Y68732D01*
Y67732D01*
X58185Y66732D01*
X57185D01*
X58185D01*
X59184Y65733D01*
Y64733D01*
X58185Y63733D01*
X56185D01*
X55186Y64733D01*
X64183Y63733D02*
Y69731D01*
X61184Y66732D01*
X65183D01*
X13733Y106236D02*
X19731D01*
Y110235D01*
X13733Y116233D02*
Y112234D01*
X16732D01*
X15733Y114234D01*
Y115233D01*
X16732Y116233D01*
X18732D01*
X19731Y115233D01*
Y113234D01*
X18732Y112234D01*
X19343Y142147D02*
X25342D01*
Y145146D01*
X24342Y146146D01*
X20343D01*
X19343Y145146D01*
Y142147D01*
X25342Y152144D02*
Y148145D01*
X21343Y152144D01*
X20343D01*
X19343Y151144D01*
Y149145D01*
X20343Y148145D01*
X37552Y86242D02*
X42551D01*
X43550Y87241D01*
Y89241D01*
X42551Y90241D01*
X37552D01*
Y92240D02*
Y96238D01*
X38552D01*
X42551Y92240D01*
X43550D01*
X237054Y33646D02*
X231056D01*
Y36645D01*
X232056Y37645D01*
X234055D01*
X235055Y36645D01*
Y33646D01*
Y35646D02*
X237054Y37645D01*
X232056Y39644D02*
X231056Y40644D01*
Y42643D01*
X232056Y43643D01*
X233055D01*
X234055Y42643D01*
Y41644D01*
Y42643D01*
X235055Y43643D01*
X236054D01*
X237054Y42643D01*
Y40644D01*
X236054Y39644D01*
X232056Y45642D02*
X231056Y46642D01*
Y48641D01*
X232056Y49641D01*
X236054D01*
X237054Y48641D01*
Y46642D01*
X236054Y45642D01*
X232056D01*
X223767Y34522D02*
X217769D01*
Y37521D01*
X218768Y38521D01*
X220768D01*
X221767Y37521D01*
Y34522D01*
Y36522D02*
X223767Y38521D01*
Y44519D02*
Y40520D01*
X219768Y44519D01*
X218768D01*
X217769Y43519D01*
Y41520D01*
X218768Y40520D01*
X222767Y46518D02*
X223767Y47518D01*
Y49517D01*
X222767Y50517D01*
X218768D01*
X217769Y49517D01*
Y47518D01*
X218768Y46518D01*
X219768D01*
X220768Y47518D01*
Y50517D01*
X173182Y53954D02*
X179180D01*
Y50955D01*
X178181Y49955D01*
X176181D01*
X175181Y50955D01*
Y53954D01*
Y51955D02*
X173182Y49955D01*
Y47956D02*
Y45957D01*
Y46957D01*
X179180D01*
X178181Y47956D01*
Y42958D02*
X179180Y41958D01*
Y39959D01*
X178181Y38959D01*
X177181D01*
X176181Y39959D01*
X175181Y38959D01*
X174182D01*
X173182Y39959D01*
Y41958D01*
X174182Y42958D01*
X175181D01*
X176181Y41958D01*
X177181Y42958D01*
X178181D01*
X176181Y41958D02*
Y39959D01*
X236105Y146804D02*
Y152802D01*
X239104D01*
X240104Y151803D01*
Y149803D01*
X239104Y148803D01*
X236105D01*
X238104D02*
X240104Y146804D01*
X242103D02*
X244102D01*
X243103D01*
Y152802D01*
X242103Y151803D01*
X251100Y152802D02*
X247101D01*
Y149803D01*
X249101Y150803D01*
X250100D01*
X251100Y149803D01*
Y147804D01*
X250100Y146804D01*
X248101D01*
X247101Y147804D01*
X195214Y78694D02*
Y84692D01*
X198213D01*
X199213Y83692D01*
Y81693D01*
X198213Y80693D01*
X195214D01*
X197213D02*
X199213Y78694D01*
X201212D02*
X203211D01*
X202212D01*
Y84692D01*
X201212Y83692D01*
X231548Y116065D02*
X237546D01*
Y120063D01*
Y125062D02*
X231548D01*
X234547Y122063D01*
Y126061D01*
X201326Y49191D02*
X195328D01*
Y45193D01*
Y39195D02*
Y43193D01*
X199326Y39195D01*
X200326D01*
X201326Y40194D01*
Y42193D01*
X200326Y43193D01*
X113029Y31739D02*
Y25741D01*
X116028D01*
X117028Y26741D01*
Y30740D01*
X116028Y31739D01*
X113029D01*
X119027Y25741D02*
X121026D01*
X120027D01*
Y31739D01*
X119027Y30740D01*
X45897Y65022D02*
X46897Y66022D01*
Y68021D01*
X45897Y69021D01*
X41898D01*
X40899Y68021D01*
Y66022D01*
X41898Y65022D01*
X46897Y59024D02*
Y63023D01*
X43898D01*
X44897Y61024D01*
Y60024D01*
X43898Y59024D01*
X41898D01*
X40899Y60024D01*
Y62023D01*
X41898Y63023D01*
X46897Y53026D02*
Y57025D01*
X43898D01*
X44897Y55026D01*
Y54026D01*
X43898Y53026D01*
X41898D01*
X40899Y54026D01*
Y56025D01*
X41898Y57025D01*
X248751Y109511D02*
X249751Y110510D01*
Y112510D01*
X248751Y113509D01*
X244753D01*
X243753Y112510D01*
Y110510D01*
X244753Y109511D01*
X249751Y103512D02*
Y107511D01*
X246752D01*
X247752Y105512D01*
Y104512D01*
X246752Y103512D01*
X244753D01*
X243753Y104512D01*
Y106511D01*
X244753Y107511D01*
X243753Y98514D02*
X249751D01*
X246752Y101513D01*
Y97514D01*
X250720Y65121D02*
X251719Y66120D01*
Y68120D01*
X250720Y69119D01*
X246721D01*
X245722Y68120D01*
Y66120D01*
X246721Y65121D01*
X251719Y59123D02*
Y63121D01*
X248721D01*
X249720Y61122D01*
Y60122D01*
X248721Y59123D01*
X246721D01*
X245722Y60122D01*
Y62122D01*
X246721Y63121D01*
X245722Y53125D02*
Y57123D01*
X249720Y53125D01*
X250720D01*
X251719Y54124D01*
Y56124D01*
X250720Y57123D01*
X242157Y65696D02*
X243157Y66695D01*
Y68695D01*
X242157Y69695D01*
X238158D01*
X237158Y68695D01*
Y66695D01*
X238158Y65696D01*
X243157Y59698D02*
Y63696D01*
X240158D01*
X241157Y61697D01*
Y60698D01*
X240158Y59698D01*
X238158D01*
X237158Y60698D01*
Y62697D01*
X238158Y63696D01*
X237158Y57699D02*
Y55699D01*
Y56699D01*
X243157D01*
X242157Y57699D01*
X231399Y90798D02*
X230399Y91798D01*
X228400D01*
X227400Y90798D01*
Y86800D01*
X228400Y85800D01*
X230399D01*
X231399Y86800D01*
X237397Y91798D02*
X233398D01*
Y88799D01*
X235397Y89799D01*
X236397D01*
X237397Y88799D01*
Y86800D01*
X236397Y85800D01*
X234398D01*
X233398Y86800D01*
X239396Y90798D02*
X240396Y91798D01*
X242395D01*
X243395Y90798D01*
Y86800D01*
X242395Y85800D01*
X240396D01*
X239396Y86800D01*
Y90798D01*
X238029Y143043D02*
X237029Y144042D01*
X235030D01*
X234030Y143043D01*
Y139044D01*
X235030Y138044D01*
X237029D01*
X238029Y139044D01*
X243027Y138044D02*
Y144042D01*
X240028Y141043D01*
X244027D01*
X246026Y139044D02*
X247026Y138044D01*
X249025D01*
X250025Y139044D01*
Y143043D01*
X249025Y144042D01*
X247026D01*
X246026Y143043D01*
Y142043D01*
X247026Y141043D01*
X250025D01*
X186651Y32216D02*
X185651Y33216D01*
X183652D01*
X182652Y32216D01*
Y28217D01*
X183652Y27218D01*
X185651D01*
X186651Y28217D01*
X191649Y27218D02*
Y33216D01*
X188650Y30217D01*
X192649D01*
X194648Y32216D02*
X195648Y33216D01*
X197647D01*
X198647Y32216D01*
Y31216D01*
X197647Y30217D01*
X198647Y29217D01*
Y28217D01*
X197647Y27218D01*
X195648D01*
X194648Y28217D01*
Y29217D01*
X195648Y30217D01*
X194648Y31216D01*
Y32216D01*
X195648Y30217D02*
X197647D01*
X11651Y46881D02*
X10651Y47881D01*
X8652D01*
X7652Y46881D01*
Y42882D01*
X8652Y41883D01*
X10651D01*
X11651Y42882D01*
X13650Y46881D02*
X14650Y47881D01*
X16649D01*
X17649Y46881D01*
Y45882D01*
X16649Y44882D01*
X15650D01*
X16649D01*
X17649Y43882D01*
Y42882D01*
X16649Y41883D01*
X14650D01*
X13650Y42882D01*
X19648Y47881D02*
X23647D01*
Y46881D01*
X19648Y42882D01*
Y41883D01*
X38023Y53605D02*
X39023Y54605D01*
Y56604D01*
X38023Y57604D01*
X34024D01*
X33025Y56604D01*
Y54605D01*
X34024Y53605D01*
X38023Y51606D02*
X39023Y50606D01*
Y48607D01*
X38023Y47607D01*
X37023D01*
X36024Y48607D01*
Y49606D01*
Y48607D01*
X35024Y47607D01*
X34024D01*
X33025Y48607D01*
Y50606D01*
X34024Y51606D01*
X39023Y41609D02*
X38023Y43608D01*
X36024Y45608D01*
X34024D01*
X33025Y44608D01*
Y42609D01*
X34024Y41609D01*
X35024D01*
X36024Y42609D01*
Y45608D01*
X18276Y54564D02*
X17277Y53565D01*
Y51565D01*
X18276Y50566D01*
X22275D01*
X23275Y51565D01*
Y53565D01*
X22275Y54564D01*
X18276Y56564D02*
X17277Y57563D01*
Y59563D01*
X18276Y60562D01*
X19276D01*
X20276Y59563D01*
Y58563D01*
Y59563D01*
X21275Y60562D01*
X22275D01*
X23275Y59563D01*
Y57563D01*
X22275Y56564D01*
X17277Y66560D02*
Y62562D01*
X20276D01*
X19276Y64561D01*
Y65561D01*
X20276Y66560D01*
X22275D01*
X23275Y65561D01*
Y63561D01*
X22275Y62562D01*
X46623Y93541D02*
X45623Y92541D01*
Y90542D01*
X46623Y89542D01*
X50621D01*
X51621Y90542D01*
Y92541D01*
X50621Y93541D01*
X46623Y95540D02*
X45623Y96540D01*
Y98539D01*
X46623Y99539D01*
X47622D01*
X48622Y98539D01*
Y97539D01*
Y98539D01*
X49622Y99539D01*
X50621D01*
X51621Y98539D01*
Y96540D01*
X50621Y95540D01*
X51621Y104537D02*
X45623D01*
X48622Y101538D01*
Y105537D01*
X44131Y137925D02*
X43132Y138924D01*
X41132D01*
X40132Y137925D01*
Y133926D01*
X41132Y132926D01*
X43132D01*
X44131Y133926D01*
X46131Y137925D02*
X47130Y138924D01*
X49130D01*
X50129Y137925D01*
Y136925D01*
X49130Y135925D01*
X48130D01*
X49130D01*
X50129Y134925D01*
Y133926D01*
X49130Y132926D01*
X47130D01*
X46131Y133926D01*
X56127Y132926D02*
X52129D01*
X56127Y136925D01*
Y137925D01*
X55128Y138924D01*
X53128D01*
X52129Y137925D01*
X44633Y116997D02*
X45633Y115997D01*
X47632D01*
X48632Y116997D01*
Y120995D01*
X47632Y121995D01*
X45633D01*
X44633Y120995D01*
X42634Y116997D02*
X41634Y115997D01*
X39634D01*
X38635Y116997D01*
Y117996D01*
X39634Y118996D01*
X40634D01*
X39634D01*
X38635Y119996D01*
Y120995D01*
X39634Y121995D01*
X41634D01*
X42634Y120995D01*
X36636Y121995D02*
X34636D01*
X35636D01*
Y115997D01*
X36636Y116997D01*
X22705Y124545D02*
X21706Y123545D01*
Y121546D01*
X22705Y120546D01*
X26704D01*
X27704Y121546D01*
Y123545D01*
X26704Y124545D01*
X22705Y126544D02*
X21706Y127544D01*
Y129543D01*
X22705Y130543D01*
X23705D01*
X24705Y129543D01*
Y128543D01*
Y129543D01*
X25704Y130543D01*
X26704D01*
X27704Y129543D01*
Y127544D01*
X26704Y126544D01*
X22705Y132542D02*
X21706Y133542D01*
Y135541D01*
X22705Y136541D01*
X26704D01*
X27704Y135541D01*
Y133542D01*
X26704Y132542D01*
X22705D01*
X5186Y120903D02*
X4186Y119903D01*
Y117904D01*
X5186Y116904D01*
X9184D01*
X10184Y117904D01*
Y119903D01*
X9184Y120903D01*
X10184Y126901D02*
Y122902D01*
X6185Y126901D01*
X5186D01*
X4186Y125901D01*
Y123902D01*
X5186Y122902D01*
X9184Y128900D02*
X10184Y129900D01*
Y131899D01*
X9184Y132899D01*
X5186D01*
X4186Y131899D01*
Y129900D01*
X5186Y128900D01*
X6185D01*
X7185Y129900D01*
Y132899D01*
X205087Y38816D02*
X204088Y37817D01*
Y35817D01*
X205087Y34818D01*
X209086D01*
X210086Y35817D01*
Y37817D01*
X209086Y38816D01*
X210086Y44814D02*
Y40816D01*
X206087Y44814D01*
X205087D01*
X204088Y43815D01*
Y41815D01*
X205087Y40816D01*
Y46814D02*
X204088Y47813D01*
Y49813D01*
X205087Y50812D01*
X206087D01*
X207087Y49813D01*
X208086Y50812D01*
X209086D01*
X210086Y49813D01*
Y47813D01*
X209086Y46814D01*
X208086D01*
X207087Y47813D01*
X206087Y46814D01*
X205087D01*
X207087Y47813D02*
Y49813D01*
X45214Y40188D02*
X44214Y41188D01*
X42215D01*
X41215Y40188D01*
Y36190D01*
X42215Y35190D01*
X44214D01*
X45214Y36190D01*
X51212Y35190D02*
X47213D01*
X51212Y39189D01*
Y40188D01*
X50212Y41188D01*
X48213D01*
X47213Y40188D01*
X57210Y41188D02*
X55211Y40188D01*
X53211Y38189D01*
Y36190D01*
X54211Y35190D01*
X56210D01*
X57210Y36190D01*
Y37189D01*
X56210Y38189D01*
X53211D01*
X36651Y31133D02*
X35651Y32133D01*
X33652D01*
X32652Y31133D01*
Y27134D01*
X33652Y26135D01*
X35651D01*
X36651Y27134D01*
X42649Y26135D02*
X38650D01*
X42649Y30134D01*
Y31133D01*
X41649Y32133D01*
X39650D01*
X38650Y31133D01*
X48647Y32133D02*
X44648D01*
Y29134D01*
X46648Y30134D01*
X47647D01*
X48647Y29134D01*
Y27134D01*
X47647Y26135D01*
X45648D01*
X44648Y27134D01*
M02*
