G04*
G04 #@! TF.GenerationSoftware,Altium Limited,Altium Designer,24.7.2 (38)*
G04*
G04 Layer_Color=32896*
%FSLAX25Y25*%
%MOIN*%
G70*
G04*
G04 #@! TF.SameCoordinates,AE13ACC6-ACDC-44EC-B660-6A6B6F5FC903*
G04*
G04*
G04 #@! TF.FilePolarity,Positive*
G04*
G01*
G75*
%ADD10C,0.00984*%
%ADD11C,0.00394*%
%ADD12C,0.00787*%
%ADD13C,0.00591*%
%ADD15C,0.01000*%
%ADD80C,0.00600*%
D10*
X92913Y118602D02*
G03*
X92913Y118602I-492J0D01*
G01*
X61654Y50590D02*
G03*
X61654Y50590I-492J0D01*
G01*
X224764Y80807D02*
G03*
X224764Y80807I-492J0D01*
G01*
X84205Y91122D02*
G03*
X84205Y91122I-492J0D01*
G01*
X221961Y140748D02*
G03*
X221961Y140748I-492J0D01*
G01*
X147638Y59039D02*
G03*
X147638Y59039I-492J0D01*
G01*
D11*
X144666Y134094D02*
G03*
X145059Y134094I197J0D01*
G01*
D02*
G03*
X144666Y134094I-197J0D01*
G01*
D12*
X103937Y93504D02*
X107874D01*
X103937Y88189D02*
X107874D01*
X78740Y120571D02*
X90945D01*
X78740Y110728D02*
X90945D01*
X107775Y138976D02*
X111713D01*
X107775Y133421D02*
X111713D01*
X108661Y117520D02*
X112992D01*
X108661Y112205D02*
X112992D01*
X101870Y125842D02*
X105807D01*
X101870Y131398D02*
X105807D01*
X129134Y129272D02*
X133071D01*
X129134Y124272D02*
X133071D01*
X117771Y73971D02*
Y80556D01*
X123568Y73971D02*
Y80556D01*
X219291Y92421D02*
X228740D01*
X219291Y100886D02*
X228740D01*
X184634Y136823D02*
X194500D01*
X184634Y129712D02*
X194500D01*
X181004Y74576D02*
Y79586D01*
X175689Y74576D02*
Y79586D01*
X111417Y119346D02*
X115354D01*
X111417Y124902D02*
X115354D01*
X178347Y56693D02*
Y61024D01*
X173031Y56693D02*
Y61024D01*
X88976Y40330D02*
Y45496D01*
X83661Y40330D02*
Y45496D01*
X52106Y52657D02*
X57225D01*
X52106Y42618D02*
X57225D01*
X205414Y76181D02*
Y80118D01*
X210728Y76181D02*
Y80118D01*
X85728Y48204D02*
Y53370D01*
X91043Y48204D02*
Y53370D01*
X158858Y28642D02*
Y35728D01*
X165945Y28642D02*
Y35728D01*
X63166Y72532D02*
X70450D01*
X63166Y92232D02*
X70450D01*
X168066Y110871D02*
X174651D01*
X168066Y105074D02*
X174651D01*
X95472Y139764D02*
X99409D01*
X95472Y145079D02*
X99409D01*
X148917Y112106D02*
Y116043D01*
X154035Y112106D02*
Y116043D01*
X232972Y75295D02*
Y79626D01*
X227657Y75295D02*
Y79626D01*
X75153Y42672D02*
Y48469D01*
X80556Y42672D02*
Y48469D01*
X123548Y55783D02*
Y65280D01*
X116807Y55783D02*
Y65280D01*
X217717Y60827D02*
Y65158D01*
X223031Y60827D02*
Y65158D01*
X198228Y53740D02*
X202756D01*
X198228Y60827D02*
X202756D01*
X192913Y144882D02*
X197638D01*
X192913Y139823D02*
X197638D01*
X180512Y131496D02*
Y136220D01*
X175453Y131496D02*
Y136220D01*
X209634Y142815D02*
X217508D01*
X209634Y133563D02*
X217508D01*
X154232Y40748D02*
X163681D01*
X154232Y49213D02*
X163681D01*
X103937Y43602D02*
Y50689D01*
X111024Y43602D02*
Y50689D01*
X65605Y42068D02*
Y48652D01*
X71403Y42068D02*
Y48652D01*
X180059Y86083D02*
X182539D01*
X180059Y81831D02*
X182539D01*
X227953Y105807D02*
Y112894D01*
X220866Y105807D02*
Y112894D01*
X170669Y56890D02*
Y61221D01*
X165354Y56890D02*
Y61221D01*
X150394Y53347D02*
Y57677D01*
X155709Y53347D02*
Y57677D01*
X131147Y55172D02*
Y61757D01*
X125350Y55172D02*
Y61757D01*
X168307Y88342D02*
Y93351D01*
X173622Y88342D02*
Y93351D01*
X67815Y110783D02*
Y115792D01*
X73130Y110783D02*
Y115792D01*
X42323Y107042D02*
Y112052D01*
X47638Y107042D02*
Y112052D01*
X63976Y125597D02*
Y128734D01*
X71063Y125597D02*
Y128734D01*
X56452Y141674D02*
Y148259D01*
X62249Y141674D02*
Y148259D01*
X107087Y81004D02*
X111024D01*
X107087Y86319D02*
X111024D01*
X102941Y78162D02*
X112808D01*
X102941Y71051D02*
X112808D01*
X98622Y73721D02*
Y77658D01*
X93307Y73721D02*
Y77658D01*
X86092Y73892D02*
Y77289D01*
X90541Y73892D02*
Y77289D01*
X101870Y103894D02*
X105807D01*
X101870Y109449D02*
X105807D01*
X106102Y96752D02*
Y100689D01*
X100547Y96752D02*
Y100689D01*
X73892Y95250D02*
X78076D01*
X73892Y99828D02*
X78076D01*
X189481Y98019D02*
Y107886D01*
X182370Y98019D02*
Y107886D01*
X165563Y82761D02*
Y92628D01*
X158452Y82761D02*
Y92628D01*
X149857Y81649D02*
Y88233D01*
X155655Y81649D02*
Y88233D01*
X142574Y91437D02*
X147584D01*
X142574Y86122D02*
X147584D01*
X117082Y84208D02*
X123666D01*
X117082Y90005D02*
X123666D01*
X127354Y84842D02*
X137607D01*
X127354Y93701D02*
X137607D01*
X168885Y96051D02*
X178752D01*
X168885Y103162D02*
X178752D01*
X177416Y93843D02*
X184001D01*
X177416Y88046D02*
X184001D01*
X166393Y127369D02*
X172977D01*
X166393Y121572D02*
X172977D01*
X141929Y107972D02*
Y111909D01*
X147047Y107972D02*
Y111909D01*
X168755Y113287D02*
X173765D01*
X168755Y118602D02*
X173765D01*
X156988Y125560D02*
Y130570D01*
X162303Y125560D02*
Y130570D01*
X155271Y143405D02*
X160281D01*
X155271Y138091D02*
X160281D01*
D13*
X23425Y100394D02*
Y101772D01*
X16535D02*
X23425D01*
Y71063D02*
Y72441D01*
X16535Y71063D02*
X23425D01*
X27362Y79724D02*
X30118Y81299D01*
X27362Y82874D02*
X30118Y81299D01*
X27362Y79724D02*
Y82874D01*
X215216Y82874D02*
X220335D01*
X215216Y72835D02*
X220335D01*
X138091Y61106D02*
X143209D01*
X138091Y51067D02*
X143209D01*
D15*
X87770Y86464D02*
Y80466D01*
X90769D01*
X91769Y81465D01*
Y83465D01*
X90769Y84464D01*
X87770D01*
X89770D02*
X91769Y86464D01*
X93768Y81465D02*
X94768Y80466D01*
X96767D01*
X97767Y81465D01*
Y82465D01*
X96767Y83465D01*
X95768D01*
X96767D01*
X97767Y84464D01*
Y85464D01*
X96767Y86464D01*
X94768D01*
X93768Y85464D01*
X99766Y80466D02*
X103765D01*
Y81465D01*
X99766Y85464D01*
Y86464D01*
X161570Y108987D02*
X162569Y109987D01*
X164569D01*
X165568Y108987D01*
Y104989D01*
X164569Y103989D01*
X162569D01*
X161570Y104989D01*
X159570Y103989D02*
X157571D01*
X158571D01*
Y109987D01*
X159570Y108987D01*
X154572D02*
X153572Y109987D01*
X151573D01*
X150573Y108987D01*
Y107988D01*
X151573Y106988D01*
X152573D01*
X151573D01*
X150573Y105989D01*
Y104989D01*
X151573Y103989D01*
X153572D01*
X154572Y104989D01*
X123358Y95336D02*
X124357Y94336D01*
Y92336D01*
X123358Y91337D01*
X119359D01*
X118359Y92336D01*
Y94336D01*
X119359Y95336D01*
X118359Y97335D02*
Y99334D01*
Y98334D01*
X124357D01*
X123358Y97335D01*
X118359Y102333D02*
Y104332D01*
Y103333D01*
X124357D01*
X123358Y102333D01*
X101206Y88143D02*
Y94141D01*
X98207D01*
X97207Y93141D01*
Y91142D01*
X98207Y90142D01*
X101206D01*
X99207D02*
X97207Y88143D01*
X95208Y93141D02*
X94208Y94141D01*
X92209D01*
X91209Y93141D01*
Y92141D01*
X92209Y91142D01*
X93209D01*
X92209D01*
X91209Y90142D01*
Y89142D01*
X92209Y88143D01*
X94208D01*
X95208Y89142D01*
X85211Y94141D02*
X87211Y93141D01*
X89210Y91142D01*
Y89142D01*
X88210Y88143D01*
X86211D01*
X85211Y89142D01*
Y90142D01*
X86211Y91142D01*
X89210D01*
X6973Y61469D02*
X4973D01*
X5973D01*
Y66468D01*
X4973Y67467D01*
X3974D01*
X2974Y66468D01*
X12971Y67467D02*
X8972D01*
X12971Y63469D01*
Y62469D01*
X11971Y61469D01*
X9972D01*
X8972Y62469D01*
X151932Y142763D02*
Y141763D01*
X149932Y139764D01*
X147933Y141763D01*
Y142763D01*
X149932Y139764D02*
Y136765D01*
X145934D02*
X143934D01*
X144934D01*
Y142763D01*
X145934Y141763D01*
X222932Y89908D02*
Y84910D01*
X221932Y83910D01*
X219932D01*
X218933Y84910D01*
Y89908D01*
X212935D02*
X214934Y88909D01*
X216933Y86910D01*
Y84910D01*
X215934Y83910D01*
X213934D01*
X212935Y84910D01*
Y85910D01*
X213934Y86910D01*
X216933D01*
X144861Y68353D02*
Y63355D01*
X143861Y62355D01*
X141862D01*
X140862Y63355D01*
Y68353D01*
X134864D02*
X138863D01*
Y65354D01*
X136863Y66354D01*
X135863D01*
X134864Y65354D01*
Y63355D01*
X135863Y62355D01*
X137863D01*
X138863Y63355D01*
X96773Y117566D02*
Y111568D01*
X99772D01*
X100772Y112568D01*
Y114567D01*
X99772Y115567D01*
X96773D01*
X98773D02*
X100772Y117566D01*
X106770D02*
X102771D01*
X106770Y113567D01*
Y112568D01*
X105770Y111568D01*
X103771D01*
X102771Y112568D01*
X173798Y63044D02*
Y69042D01*
X170799D01*
X169799Y68043D01*
Y66043D01*
X170799Y65044D01*
X173798D01*
X171798D02*
X169799Y63044D01*
X164801D02*
Y69042D01*
X167799Y66043D01*
X163801D01*
X180564Y53171D02*
X186562D01*
Y56170D01*
X185562Y57170D01*
X183563D01*
X182563Y56170D01*
Y53171D01*
Y55170D02*
X180564Y57170D01*
X185562Y59169D02*
X186562Y60169D01*
Y62168D01*
X185562Y63168D01*
X184563D01*
X183563Y62168D01*
Y61168D01*
Y62168D01*
X182563Y63168D01*
X181564D01*
X180564Y62168D01*
Y60169D01*
X181564Y59169D01*
X190794Y86147D02*
X184796D01*
Y83148D01*
X185796Y82148D01*
X187795D01*
X188795Y83148D01*
Y86147D01*
Y84148D02*
X190794Y82148D01*
Y76150D02*
Y80149D01*
X186796Y76150D01*
X185796D01*
X184796Y77150D01*
Y79149D01*
X185796Y80149D01*
Y74151D02*
X184796Y73151D01*
Y71152D01*
X185796Y70152D01*
X186796D01*
X187795Y71152D01*
Y72151D01*
Y71152D01*
X188795Y70152D01*
X189795D01*
X190794Y71152D01*
Y73151D01*
X189795Y74151D01*
X61691Y100735D02*
Y95737D01*
X60692Y94737D01*
X58692D01*
X57693Y95737D01*
Y100735D01*
X55693Y99736D02*
X54694Y100735D01*
X52694D01*
X51695Y99736D01*
Y98736D01*
X52694Y97736D01*
X51695Y96737D01*
Y95737D01*
X52694Y94737D01*
X54694D01*
X55693Y95737D01*
Y96737D01*
X54694Y97736D01*
X55693Y98736D01*
Y99736D01*
X54694Y97736D02*
X52694D01*
X65871Y102710D02*
Y108708D01*
X62872D01*
X61873Y107708D01*
Y105709D01*
X62872Y104709D01*
X65871D01*
X63872D02*
X61873Y102710D01*
X59873Y107708D02*
X58874Y108708D01*
X56874D01*
X55875Y107708D01*
Y106708D01*
X56874Y105709D01*
X57874D01*
X56874D01*
X55875Y104709D01*
Y103709D01*
X56874Y102710D01*
X58874D01*
X59873Y103709D01*
X49877Y108708D02*
X53875D01*
Y105709D01*
X51876Y106708D01*
X50876D01*
X49877Y105709D01*
Y103709D01*
X50876Y102710D01*
X52876D01*
X53875Y103709D01*
X96700Y71088D02*
X90702D01*
Y68089D01*
X91701Y67089D01*
X93701D01*
X94700Y68089D01*
Y71088D01*
Y69089D02*
X96700Y67089D01*
X91701Y65090D02*
X90702Y64090D01*
Y62091D01*
X91701Y61091D01*
X92701D01*
X93701Y62091D01*
Y63090D01*
Y62091D01*
X94700Y61091D01*
X95700D01*
X96700Y62091D01*
Y64090D01*
X95700Y65090D01*
X91701Y59092D02*
X90702Y58092D01*
Y56093D01*
X91701Y55093D01*
X92701D01*
X93701Y56093D01*
Y57092D01*
Y56093D01*
X94700Y55093D01*
X95700D01*
X96700Y56093D01*
Y58092D01*
X95700Y59092D01*
X218963Y151129D02*
Y146131D01*
X217963Y145131D01*
X215964D01*
X214964Y146131D01*
Y151129D01*
X209966Y145131D02*
Y151129D01*
X212965Y148130D01*
X208966D01*
X90333Y128491D02*
Y123493D01*
X89333Y122493D01*
X87334D01*
X86334Y123493D01*
Y128491D01*
X84335Y127491D02*
X83335Y128491D01*
X81336D01*
X80336Y127491D01*
Y126492D01*
X81336Y125492D01*
X82336D01*
X81336D01*
X80336Y124493D01*
Y123493D01*
X81336Y122493D01*
X83335D01*
X84335Y123493D01*
X55294Y60578D02*
Y55579D01*
X54294Y54580D01*
X52295D01*
X51295Y55579D01*
Y60578D01*
X45297Y54580D02*
X49296D01*
X45297Y58578D01*
Y59578D01*
X46297Y60578D01*
X48296D01*
X49296Y59578D01*
X125074Y75735D02*
Y69737D01*
X128073D01*
X129072Y70737D01*
Y72736D01*
X128073Y73736D01*
X125074D01*
X127073D02*
X129072Y75735D01*
X135070D02*
X131071D01*
X135070Y71737D01*
Y70737D01*
X134071Y69737D01*
X132071D01*
X131071Y70737D01*
X137070Y69737D02*
X141068D01*
Y70737D01*
X137070Y74736D01*
Y75735D01*
X74975Y38629D02*
Y32631D01*
X77974D01*
X78974Y33630D01*
Y35630D01*
X77974Y36630D01*
X74975D01*
X76974D02*
X78974Y38629D01*
X84972D02*
X80973D01*
X84972Y34630D01*
Y33630D01*
X83972Y32631D01*
X81973D01*
X80973Y33630D01*
X90970Y32631D02*
X88971Y33630D01*
X86971Y35630D01*
Y37629D01*
X87971Y38629D01*
X89970D01*
X90970Y37629D01*
Y36630D01*
X89970Y35630D01*
X86971D01*
X82828Y55290D02*
X88826D01*
Y58289D01*
X87826Y59289D01*
X85827D01*
X84827Y58289D01*
Y55290D01*
Y57289D02*
X82828Y59289D01*
Y65287D02*
Y61288D01*
X86826Y65287D01*
X87826D01*
X88826Y64287D01*
Y62288D01*
X87826Y61288D01*
X88826Y71285D02*
Y67286D01*
X85827D01*
X86826Y69286D01*
Y70285D01*
X85827Y71285D01*
X83827D01*
X82828Y70285D01*
Y68286D01*
X83827Y67286D01*
X225052Y52534D02*
X231050D01*
Y55533D01*
X230050Y56533D01*
X228051D01*
X227051Y55533D01*
Y52534D01*
Y54533D02*
X225052Y56533D01*
Y62531D02*
Y58532D01*
X229051Y62531D01*
X230050D01*
X231050Y61531D01*
Y59532D01*
X230050Y58532D01*
X225052Y68529D02*
Y64530D01*
X229051Y68529D01*
X230050D01*
X231050Y67529D01*
Y65530D01*
X230050Y64530D01*
X205072Y83652D02*
X211070D01*
Y86651D01*
X210070Y87651D01*
X208071D01*
X207071Y86651D01*
Y83652D01*
Y85651D02*
X205072Y87651D01*
Y93649D02*
Y89650D01*
X209071Y93649D01*
X210070D01*
X211070Y92649D01*
Y90650D01*
X210070Y89650D01*
X205072Y95648D02*
Y97647D01*
Y96648D01*
X211070D01*
X210070Y95648D01*
X236174Y67495D02*
X242172D01*
Y70494D01*
X241173Y71493D01*
X239173D01*
X238174Y70494D01*
Y67495D01*
Y69494D02*
X236174Y71493D01*
Y77491D02*
Y73493D01*
X240173Y77491D01*
X241173D01*
X242172Y76492D01*
Y74492D01*
X241173Y73493D01*
Y79491D02*
X242172Y80490D01*
Y82490D01*
X241173Y83490D01*
X237174D01*
X236174Y82490D01*
Y80490D01*
X237174Y79491D01*
X241173D01*
X162124Y61273D02*
Y67271D01*
X159125D01*
X158125Y66271D01*
Y64272D01*
X159125Y63272D01*
X162124D01*
X160124D02*
X158125Y61273D01*
X156125D02*
X154126D01*
X155126D01*
Y67271D01*
X156125Y66271D01*
X151127Y67271D02*
X147128D01*
Y66271D01*
X151127Y62272D01*
Y61273D01*
X104840Y132828D02*
Y138826D01*
X101841D01*
X100841Y137826D01*
Y135827D01*
X101841Y134827D01*
X104840D01*
X102841D02*
X100841Y132828D01*
X98842D02*
X96843D01*
X97842D01*
Y138826D01*
X98842Y137826D01*
X90845Y132828D02*
Y138826D01*
X93844Y135827D01*
X89845D01*
X99131Y95820D02*
Y101818D01*
X96132D01*
X95133Y100818D01*
Y98819D01*
X96132Y97819D01*
X99131D01*
X97132D02*
X95133Y95820D01*
X93133D02*
X91134D01*
X92134D01*
Y101818D01*
X93133Y100818D01*
X88135D02*
X87135Y101818D01*
X85136D01*
X84136Y100818D01*
Y99818D01*
X85136Y98819D01*
X86136D01*
X85136D01*
X84136Y97819D01*
Y96820D01*
X85136Y95820D01*
X87135D01*
X88135Y96820D01*
X109432Y132133D02*
Y126135D01*
X112431D01*
X113430Y127135D01*
Y129134D01*
X112431Y130133D01*
X109432D01*
X111431D02*
X113430Y132133D01*
X115430D02*
X117429D01*
X116429D01*
Y126135D01*
X115430Y127135D01*
X124427Y132133D02*
X120428D01*
X124427Y128134D01*
Y127135D01*
X123427Y126135D01*
X121428D01*
X120428Y127135D01*
X98329Y103005D02*
Y109003D01*
X95330D01*
X94330Y108003D01*
Y106004D01*
X95330Y105004D01*
X98329D01*
X96329D02*
X94330Y103005D01*
X92330D02*
X90331D01*
X91331D01*
Y109003D01*
X92330Y108003D01*
X87332Y103005D02*
X85333D01*
X86332D01*
Y109003D01*
X87332Y108003D01*
X93979Y124948D02*
Y118950D01*
X96978D01*
X97978Y119949D01*
Y121949D01*
X96978Y122949D01*
X93979D01*
X95978D02*
X97978Y124948D01*
X99977D02*
X101976D01*
X100977D01*
Y118950D01*
X99977Y119949D01*
X104975D02*
X105975Y118950D01*
X107974D01*
X108974Y119949D01*
Y123948D01*
X107974Y124948D01*
X105975D01*
X104975Y123948D01*
Y119949D01*
X107336Y96872D02*
X113334D01*
Y99871D01*
X112334Y100870D01*
X110335D01*
X109335Y99871D01*
Y96872D01*
Y98871D02*
X107336Y100870D01*
X108335Y102870D02*
X107336Y103869D01*
Y105869D01*
X108335Y106869D01*
X112334D01*
X113334Y105869D01*
Y103869D01*
X112334Y102870D01*
X111334D01*
X110335Y103869D01*
Y106869D01*
X146632Y114619D02*
Y120617D01*
X143633D01*
X142633Y119617D01*
Y117618D01*
X143633Y116618D01*
X146632D01*
X144633D02*
X142633Y114619D01*
X140634Y119617D02*
X139635Y120617D01*
X137635D01*
X136635Y119617D01*
Y118618D01*
X137635Y117618D01*
X136635Y116618D01*
Y115619D01*
X137635Y114619D01*
X139635D01*
X140634Y115619D01*
Y116618D01*
X139635Y117618D01*
X140634Y118618D01*
Y119617D01*
X139635Y117618D02*
X137635D01*
X102046Y146214D02*
Y152212D01*
X99047D01*
X98047Y151212D01*
Y149213D01*
X99047Y148213D01*
X102046D01*
X100046D02*
X98047Y146214D01*
X96048Y152212D02*
X92049D01*
Y151212D01*
X96048Y147213D01*
Y146214D01*
X115603Y142049D02*
X121601D01*
Y145048D01*
X120602Y146048D01*
X118602D01*
X117603Y145048D01*
Y142049D01*
Y144048D02*
X115603Y146048D01*
X121601Y152046D02*
Y148047D01*
X118602D01*
X119602Y150046D01*
Y151046D01*
X118602Y152046D01*
X116603D01*
X115603Y151046D01*
Y149047D01*
X116603Y148047D01*
X231419Y94147D02*
Y100145D01*
X235418D01*
X237417Y95146D02*
X238417Y94147D01*
X240416D01*
X241416Y95146D01*
Y96146D01*
X240416Y97146D01*
X239416D01*
X240416D01*
X241416Y98145D01*
Y99145D01*
X240416Y100145D01*
X238417D01*
X237417Y99145D01*
X151637Y46897D02*
Y40899D01*
X147638D01*
X145638D02*
X143639D01*
X144639D01*
Y46897D01*
X145638Y45897D01*
X72084Y103513D02*
X71084Y102513D01*
X69085D01*
X68085Y103513D01*
Y107511D01*
X69085Y108511D01*
X71084D01*
X72084Y107511D01*
X78082Y102513D02*
X74083D01*
Y105512D01*
X76083Y104512D01*
X77082D01*
X78082Y105512D01*
Y107511D01*
X77082Y108511D01*
X75083D01*
X74083Y107511D01*
X84080Y102513D02*
X82081Y103513D01*
X80081Y105512D01*
Y107511D01*
X81081Y108511D01*
X83080D01*
X84080Y107511D01*
Y106511D01*
X83080Y105512D01*
X80081D01*
X227491Y120017D02*
X228491Y119017D01*
Y117018D01*
X227491Y116018D01*
X223493D01*
X222493Y117018D01*
Y119017D01*
X223493Y120017D01*
X228491Y126015D02*
Y122016D01*
X225492D01*
X226492Y124016D01*
Y125015D01*
X225492Y126015D01*
X223493D01*
X222493Y125015D01*
Y123016D01*
X223493Y122016D01*
X227491Y128015D02*
X228491Y129014D01*
Y131014D01*
X227491Y132013D01*
X226492D01*
X225492Y131014D01*
Y130014D01*
Y131014D01*
X224493Y132013D01*
X223493D01*
X222493Y131014D01*
Y129014D01*
X223493Y128015D01*
X153900Y37728D02*
X154900Y38727D01*
X156899D01*
X157899Y37728D01*
Y33729D01*
X156899Y32729D01*
X154900D01*
X153900Y33729D01*
X148902Y32729D02*
Y38727D01*
X151901Y35728D01*
X147902D01*
X145903Y38727D02*
X141904D01*
Y37728D01*
X145903Y33729D01*
Y32729D01*
X127719Y50523D02*
X128719Y51523D01*
X130718D01*
X131718Y50523D01*
Y46524D01*
X130718Y45525D01*
X128719D01*
X127719Y46524D01*
X122721Y45525D02*
Y51523D01*
X125720Y48524D01*
X121721D01*
X115723Y51523D02*
X117722Y50523D01*
X119722Y48524D01*
Y46524D01*
X118722Y45525D01*
X116723D01*
X115723Y46524D01*
Y47524D01*
X116723Y48524D01*
X119722D01*
X111381Y66173D02*
X112380Y67172D01*
X114380D01*
X115379Y66173D01*
Y62174D01*
X114380Y61174D01*
X112380D01*
X111381Y62174D01*
X106382Y61174D02*
Y67172D01*
X109381Y64173D01*
X105383D01*
X99384Y67172D02*
X103383D01*
Y64173D01*
X101384Y65173D01*
X100384D01*
X99384Y64173D01*
Y62174D01*
X100384Y61174D01*
X102383D01*
X103383Y62174D01*
X111676Y58692D02*
X112675Y59692D01*
X114675D01*
X115675Y58692D01*
Y54694D01*
X114675Y53694D01*
X112675D01*
X111676Y54694D01*
X106677Y53694D02*
Y59692D01*
X109677Y56693D01*
X105678D01*
X100679Y53694D02*
Y59692D01*
X103679Y56693D01*
X99680D01*
X196592Y63060D02*
X195592Y62060D01*
X193593D01*
X192593Y63060D01*
Y67058D01*
X193593Y68058D01*
X195592D01*
X196592Y67058D01*
X201590Y68058D02*
Y62060D01*
X198591Y65059D01*
X202590D01*
X204589Y63060D02*
X205589Y62060D01*
X207588D01*
X208588Y63060D01*
Y64059D01*
X207588Y65059D01*
X206589D01*
X207588D01*
X208588Y66059D01*
Y67058D01*
X207588Y68058D01*
X205589D01*
X204589Y67058D01*
X197404Y152098D02*
X198404Y153097D01*
X200403D01*
X201403Y152098D01*
Y148099D01*
X200403Y147099D01*
X198404D01*
X197404Y148099D01*
X192406Y147099D02*
Y153097D01*
X195405Y150098D01*
X191406D01*
X185408Y147099D02*
X189407D01*
X185408Y151098D01*
Y152098D01*
X186408Y153097D01*
X188407D01*
X189407Y152098D01*
X176839Y148471D02*
X175840Y149471D01*
Y151470D01*
X176839Y152470D01*
X180838D01*
X181838Y151470D01*
Y149471D01*
X180838Y148471D01*
X181838Y143473D02*
X175840D01*
X178839Y146472D01*
Y142473D01*
X181838Y140474D02*
Y138475D01*
Y139474D01*
X175840D01*
X176839Y140474D01*
X62070Y116271D02*
X63069Y117271D01*
X65069D01*
X66068Y116271D01*
Y112272D01*
X65069Y111273D01*
X63069D01*
X62070Y112272D01*
X57071Y111273D02*
Y117271D01*
X60070Y114272D01*
X56072D01*
X54072Y116271D02*
X53073Y117271D01*
X51073D01*
X50073Y116271D01*
Y112272D01*
X51073Y111273D01*
X53073D01*
X54072Y112272D01*
Y116271D01*
X35796Y109707D02*
X34796Y110707D01*
Y112706D01*
X35796Y113706D01*
X39795D01*
X40794Y112706D01*
Y110707D01*
X39795Y109707D01*
X35796Y107708D02*
X34796Y106708D01*
Y104709D01*
X35796Y103709D01*
X36796D01*
X37795Y104709D01*
Y105709D01*
Y104709D01*
X38795Y103709D01*
X39795D01*
X40794Y104709D01*
Y106708D01*
X39795Y107708D01*
Y101710D02*
X40794Y100710D01*
Y98711D01*
X39795Y97711D01*
X35796D01*
X34796Y98711D01*
Y100710D01*
X35796Y101710D01*
X36796D01*
X37795Y100710D01*
Y97711D01*
X84123Y67680D02*
X83123Y68679D01*
Y70679D01*
X84123Y71679D01*
X88121D01*
X89121Y70679D01*
Y68679D01*
X88121Y67680D01*
X84123Y65680D02*
X83123Y64681D01*
Y62681D01*
X84123Y61682D01*
X85122D01*
X86122Y62681D01*
Y63681D01*
Y62681D01*
X87122Y61682D01*
X88121D01*
X89121Y62681D01*
Y64681D01*
X88121Y65680D01*
X84123Y59682D02*
X83123Y58683D01*
Y56683D01*
X84123Y55684D01*
X85122D01*
X86122Y56683D01*
X87122Y55684D01*
X88121D01*
X89121Y56683D01*
Y58683D01*
X88121Y59682D01*
X87122D01*
X86122Y58683D01*
X85122Y59682D01*
X84123D01*
X86122Y58683D02*
Y56683D01*
X76636Y141665D02*
X77636Y142664D01*
X79636D01*
X80635Y141665D01*
Y137666D01*
X79636Y136666D01*
X77636D01*
X76636Y137666D01*
X74637Y141665D02*
X73637Y142664D01*
X71638D01*
X70638Y141665D01*
Y140665D01*
X71638Y139665D01*
X72638D01*
X71638D01*
X70638Y138666D01*
Y137666D01*
X71638Y136666D01*
X73637D01*
X74637Y137666D01*
X68639Y141665D02*
X67639Y142664D01*
X65640D01*
X64640Y141665D01*
Y140665D01*
X65640Y139665D01*
X66640D01*
X65640D01*
X64640Y138666D01*
Y137666D01*
X65640Y136666D01*
X67639D01*
X68639Y137666D01*
X69230Y145737D02*
X68230Y144737D01*
X66231D01*
X65231Y145737D01*
Y149735D01*
X66231Y150735D01*
X68230D01*
X69230Y149735D01*
X75228Y150735D02*
X71229D01*
X75228Y146737D01*
Y145737D01*
X74228Y144737D01*
X72229D01*
X71229Y145737D01*
X77227Y144737D02*
X81226D01*
Y145737D01*
X77227Y149735D01*
Y150735D01*
X70700Y55155D02*
X71700Y54155D01*
Y52156D01*
X70700Y51156D01*
X66701D01*
X65702Y52156D01*
Y54155D01*
X66701Y55155D01*
X65702Y61153D02*
Y57154D01*
X69700Y61153D01*
X70700D01*
X71700Y60153D01*
Y58154D01*
X70700Y57154D01*
X65702Y67151D02*
Y63152D01*
X69700Y67151D01*
X70700D01*
X71700Y66151D01*
Y64152D01*
X70700Y63152D01*
X79657Y54580D02*
X80656Y53580D01*
Y51581D01*
X79657Y50581D01*
X75658D01*
X74659Y51581D01*
Y53580D01*
X75658Y54580D01*
X74659Y60578D02*
Y56579D01*
X78657Y60578D01*
X79657D01*
X80656Y59578D01*
Y57579D01*
X79657Y56579D01*
X74659Y62577D02*
Y64577D01*
Y63577D01*
X80656D01*
X79657Y62577D01*
X168571Y82640D02*
X167572Y83640D01*
Y85640D01*
X168571Y86639D01*
X172570D01*
X173570Y85640D01*
Y83640D01*
X172570Y82640D01*
X173570Y76642D02*
Y80641D01*
X169571Y76642D01*
X168571D01*
X167572Y77642D01*
Y79641D01*
X168571Y80641D01*
Y74643D02*
X167572Y73643D01*
Y71644D01*
X168571Y70644D01*
X172570D01*
X173570Y71644D01*
Y73643D01*
X172570Y74643D01*
X168571D01*
X197509Y131845D02*
X196509Y132845D01*
Y134844D01*
X197509Y135844D01*
X201507D01*
X202507Y134844D01*
Y132845D01*
X201507Y131845D01*
X202507Y129846D02*
Y127847D01*
Y128846D01*
X196509D01*
X197509Y129846D01*
X201507Y124848D02*
X202507Y123848D01*
Y121849D01*
X201507Y120849D01*
X197509D01*
X196509Y121849D01*
Y123848D01*
X197509Y124848D01*
X198508D01*
X199508Y123848D01*
Y120849D01*
X186865Y126999D02*
X187865Y127999D01*
X189864D01*
X190864Y126999D01*
Y123001D01*
X189864Y122001D01*
X187865D01*
X186865Y123001D01*
X184866Y122001D02*
X182866D01*
X183866D01*
Y127999D01*
X184866Y126999D01*
X179867D02*
X178868Y127999D01*
X176868D01*
X175869Y126999D01*
Y126000D01*
X176868Y125000D01*
X175869Y124000D01*
Y123001D01*
X176868Y122001D01*
X178868D01*
X179867Y123001D01*
Y124000D01*
X178868Y125000D01*
X179867Y126000D01*
Y126999D01*
X178868Y125000D02*
X176868D01*
X129572Y96032D02*
X128572Y95032D01*
X126573D01*
X125573Y96032D01*
Y100031D01*
X126573Y101031D01*
X128572D01*
X129572Y100031D01*
X131571Y101031D02*
X133571D01*
X132571D01*
Y95032D01*
X131571Y96032D01*
X136570Y95032D02*
X140568D01*
Y96032D01*
X136570Y100031D01*
Y101031D01*
X195799Y99651D02*
X196798Y98651D01*
Y96652D01*
X195799Y95652D01*
X191800D01*
X190800Y96652D01*
Y98651D01*
X191800Y99651D01*
X190800Y101650D02*
Y103649D01*
Y102650D01*
X196798D01*
X195799Y101650D01*
X196798Y110647D02*
X195799Y108648D01*
X193799Y106649D01*
X191800D01*
X190800Y107648D01*
Y109648D01*
X191800Y110647D01*
X192799D01*
X193799Y109648D01*
Y106649D01*
X197593Y92846D02*
X198593Y93845D01*
X200592D01*
X201592Y92846D01*
Y88847D01*
X200592Y87847D01*
X198593D01*
X197593Y88847D01*
X195594Y87847D02*
X193595D01*
X194594D01*
Y93845D01*
X195594Y92846D01*
X186597Y93845D02*
X190596D01*
Y90847D01*
X188596Y91846D01*
X187597D01*
X186597Y90847D01*
Y88847D01*
X187597Y87847D01*
X189596D01*
X190596Y88847D01*
X161570Y101212D02*
X162569Y102212D01*
X164569D01*
X165568Y101212D01*
Y97213D01*
X164569Y96214D01*
X162569D01*
X161570Y97213D01*
X159570Y96214D02*
X157571D01*
X158571D01*
Y102212D01*
X159570Y101212D01*
X151573Y96214D02*
Y102212D01*
X154572Y99213D01*
X150573D01*
X130261Y78119D02*
X129261Y77119D01*
X127262D01*
X126262Y78119D01*
Y82117D01*
X127262Y83117D01*
X129261D01*
X130261Y82117D01*
X132260Y83117D02*
X134260D01*
X133260D01*
Y77119D01*
X132260Y78119D01*
X141257Y83117D02*
X137259D01*
X141257Y79118D01*
Y78119D01*
X140258Y77119D01*
X138258D01*
X137259Y78119D01*
X162652Y151015D02*
X163652Y152015D01*
X165651D01*
X166651Y151015D01*
Y147016D01*
X165651Y146017D01*
X163652D01*
X162652Y147016D01*
X160653Y146017D02*
X158654D01*
X159653D01*
Y152015D01*
X160653Y151015D01*
X155655D02*
X154655Y152015D01*
X152656D01*
X151656Y151015D01*
Y147016D01*
X152656Y146017D01*
X154655D01*
X155655Y147016D01*
Y151015D01*
X166618Y132942D02*
X165619Y131942D01*
X163619D01*
X162620Y132942D01*
Y136940D01*
X163619Y137940D01*
X165619D01*
X166618Y136940D01*
X168618D02*
X169617Y137940D01*
X171617D01*
X172617Y136940D01*
Y132942D01*
X171617Y131942D01*
X169617D01*
X168618Y132942D01*
Y133941D01*
X169617Y134941D01*
X172617D01*
X141551Y128574D02*
X142551Y129574D01*
X144550D01*
X145550Y128574D01*
Y124575D01*
X144550Y123576D01*
X142551D01*
X141551Y124575D01*
X139551Y128574D02*
X138552Y129574D01*
X136553D01*
X135553Y128574D01*
Y127575D01*
X136553Y126575D01*
X135553Y125575D01*
Y124575D01*
X136553Y123576D01*
X138552D01*
X139551Y124575D01*
Y125575D01*
X138552Y126575D01*
X139551Y127575D01*
Y128574D01*
X138552Y126575D02*
X136553D01*
X156564Y117141D02*
X155564Y118141D01*
Y120140D01*
X156564Y121140D01*
X160562D01*
X161562Y120140D01*
Y118141D01*
X160562Y117141D01*
X155564Y115142D02*
Y111143D01*
X156564D01*
X160562Y115142D01*
X161562D01*
X136334Y112236D02*
X137334Y113235D01*
X139333D01*
X140333Y112236D01*
Y108237D01*
X139333Y107237D01*
X137334D01*
X136334Y108237D01*
X130336Y113235D02*
X132336Y112236D01*
X134335Y110236D01*
Y108237D01*
X133335Y107237D01*
X131336D01*
X130336Y108237D01*
Y109237D01*
X131336Y110236D01*
X134335D01*
X180496Y113650D02*
X179497Y112651D01*
X177497D01*
X176498Y113650D01*
Y117649D01*
X177497Y118649D01*
X179497D01*
X180496Y117649D01*
X186495Y112651D02*
X182496D01*
Y115650D01*
X184495Y114650D01*
X185495D01*
X186495Y115650D01*
Y117649D01*
X185495Y118649D01*
X183495D01*
X182496Y117649D01*
X162023Y79066D02*
X163023Y80066D01*
X165022D01*
X166022Y79066D01*
Y75068D01*
X165022Y74068D01*
X163023D01*
X162023Y75068D01*
X157025Y74068D02*
Y80066D01*
X160024Y77067D01*
X156025D01*
X149969Y75507D02*
X148969Y76507D01*
Y78507D01*
X149969Y79506D01*
X153968D01*
X154967Y78507D01*
Y76507D01*
X153968Y75507D01*
X149969Y73508D02*
X148969Y72509D01*
Y70509D01*
X149969Y69510D01*
X150969D01*
X151969Y70509D01*
Y71509D01*
Y70509D01*
X152968Y69510D01*
X153968D01*
X154967Y70509D01*
Y72509D01*
X153968Y73508D01*
X147373Y96933D02*
X148373Y95934D01*
Y93934D01*
X147373Y92935D01*
X143375D01*
X142375Y93934D01*
Y95934D01*
X143375Y96933D01*
X142375Y102931D02*
Y98933D01*
X146374Y102931D01*
X147373D01*
X148373Y101932D01*
Y99932D01*
X147373Y98933D01*
X177036Y68701D02*
X176036Y69700D01*
Y71700D01*
X177036Y72699D01*
X181035D01*
X182035Y71700D01*
Y69700D01*
X181035Y68701D01*
X182035Y66701D02*
Y64702D01*
Y65702D01*
X176036D01*
X177036Y66701D01*
D80*
X5906Y101772D02*
X6693D01*
X5906Y71063D02*
X6693D01*
M02*
