G04*
G04 #@! TF.GenerationSoftware,Altium Limited,Altium Designer,24.7.2 (38)*
G04*
G04 Layer_Color=0*
%FSLAX25Y25*%
%MOIN*%
G70*
G04*
G04 #@! TF.SameCoordinates,98F62D9F-8C32-4B21-931F-99D976C78984*
G04*
G04*
G04 #@! TF.FilePolarity,Positive*
G04*
G01*
G75*
%ADD11C,0.00394*%
D11*
X144803Y36417D02*
X145748D01*
X145276Y35945D02*
Y36890D01*
X90748Y41240D02*
X94685D01*
X92716Y39272D02*
Y43209D01*
X68195Y28740D02*
Y32677D01*
X66226Y30709D02*
X70163D01*
X67815Y35827D02*
Y39764D01*
X65847Y37795D02*
X69784D01*
X228346Y77461D02*
X232283D01*
X230315Y75492D02*
Y79429D01*
X237205Y77461D02*
X241142D01*
X239173Y75492D02*
Y79429D01*
X14272Y122539D02*
X18209D01*
X16240Y120571D02*
Y124508D01*
X198425Y74508D02*
X202362D01*
X200394Y72539D02*
Y76476D01*
X41519Y70669D02*
Y74606D01*
X39550Y72638D02*
X43487D01*
X44291Y45374D02*
Y49311D01*
X42323Y47343D02*
X46260D01*
X46358Y127461D02*
X50295D01*
X48327Y125492D02*
Y129429D01*
X242618Y130413D02*
Y134350D01*
X240650Y132382D02*
X244587D01*
X243307Y120965D02*
X247244D01*
X245276Y118996D02*
Y122933D01*
X235433Y108760D02*
X239370D01*
X237402Y106791D02*
Y110728D01*
X188189Y42716D02*
Y46653D01*
X186221Y44685D02*
X190158D01*
X167126Y48721D02*
X171063D01*
X169095Y46752D02*
Y50689D01*
X175886Y32480D02*
X179823D01*
X177854Y30512D02*
Y34449D01*
X105413Y26476D02*
Y30413D01*
X103445Y28445D02*
X107382D01*
X53935Y30413D02*
X57872D01*
X55903Y28445D02*
Y32382D01*
X48720Y84153D02*
Y88090D01*
X46752Y86122D02*
X50689D01*
X25869Y44685D02*
X29806D01*
X27837Y42717D02*
Y46654D01*
X26378Y51279D02*
X30315D01*
X28346Y49311D02*
Y53248D01*
X203543Y29724D02*
X207480D01*
X205512Y27756D02*
Y31693D01*
X40650Y125295D02*
Y129232D01*
X38681Y127264D02*
X42618D01*
X32579Y125394D02*
Y129331D01*
X30610Y127362D02*
X34547D01*
X25197Y109547D02*
Y113484D01*
X23228Y111516D02*
X27165D01*
X220866Y27953D02*
Y31890D01*
X218898Y29921D02*
X222835D01*
X239665Y30020D02*
X243602D01*
X241634Y28051D02*
Y31988D01*
X233169Y27367D02*
Y31304D01*
X231201Y29336D02*
X235138D01*
X247736Y75590D02*
Y79527D01*
X245768Y77559D02*
X249705D01*
M02*
