G04*
G04 #@! TF.GenerationSoftware,Altium Limited,Altium Designer,24.7.2 (38)*
G04*
G04 Layer_Color=255*
%FSLAX25Y25*%
%MOIN*%
G70*
G04*
G04 #@! TF.SameCoordinates,AE13ACC6-ACDC-44EC-B660-6A6B6F5FC903*
G04*
G04*
G04 #@! TF.FilePolarity,Positive*
G04*
G01*
G75*
%ADD18C,0.00984*%
%ADD19R,0.01968X0.02362*%
%ADD21R,0.02362X0.01968*%
%ADD22R,0.01181X0.00984*%
%ADD23R,0.02648X0.02816*%
%ADD24R,0.02029X0.01860*%
%ADD26R,0.01860X0.02029*%
%ADD27R,0.04351X0.03961*%
%ADD28R,0.02816X0.02648*%
%ADD30R,0.01772X0.01968*%
%ADD31R,0.02362X0.01575*%
%ADD32R,0.00984X0.01181*%
G04:AMPARAMS|DCode=35|XSize=29.77mil|YSize=11.52mil|CornerRadius=5.76mil|HoleSize=0mil|Usage=FLASHONLY|Rotation=180.000|XOffset=0mil|YOffset=0mil|HoleType=Round|Shape=RoundedRectangle|*
%AMROUNDEDRECTD35*
21,1,0.02977,0.00000,0,0,180.0*
21,1,0.01825,0.01152,0,0,180.0*
1,1,0.01152,-0.00913,0.00000*
1,1,0.01152,0.00913,0.00000*
1,1,0.01152,0.00913,0.00000*
1,1,0.01152,-0.00913,0.00000*
%
%ADD35ROUNDEDRECTD35*%
%ADD36R,0.03543X0.02953*%
%ADD38R,0.03150X0.05512*%
%ADD39R,0.02638X0.01181*%
%ADD40R,0.02362X0.02362*%
%ADD45R,0.01300X0.01600*%
G04:AMPARAMS|DCode=46|XSize=11.81mil|YSize=19.29mil|CornerRadius=1.95mil|HoleSize=0mil|Usage=FLASHONLY|Rotation=270.000|XOffset=0mil|YOffset=0mil|HoleType=Round|Shape=RoundedRectangle|*
%AMROUNDEDRECTD46*
21,1,0.01181,0.01539,0,0,270.0*
21,1,0.00791,0.01929,0,0,270.0*
1,1,0.00390,-0.00770,-0.00396*
1,1,0.00390,-0.00770,0.00396*
1,1,0.00390,0.00770,0.00396*
1,1,0.00390,0.00770,-0.00396*
%
%ADD46ROUNDEDRECTD46*%
%ADD47R,0.05315X0.01575*%
G04:AMPARAMS|DCode=51|XSize=86.61mil|YSize=13.58mil|CornerRadius=6.79mil|HoleSize=0mil|Usage=FLASHONLY|Rotation=180.000|XOffset=0mil|YOffset=0mil|HoleType=Round|Shape=RoundedRectangle|*
%AMROUNDEDRECTD51*
21,1,0.08661,0.00000,0,0,180.0*
21,1,0.07303,0.01358,0,0,180.0*
1,1,0.01358,-0.03652,0.00000*
1,1,0.01358,0.03652,0.00000*
1,1,0.01358,0.03652,0.00000*
1,1,0.01358,-0.03652,0.00000*
%
%ADD51ROUNDEDRECTD51*%
%ADD53R,0.01860X0.02203*%
%ADD54R,0.02254X0.02423*%
%ADD58R,0.02047X0.02047*%
%ADD62R,0.01968X0.01575*%
%ADD84C,0.06201*%
%ADD85R,0.06201X0.06201*%
%ADD86O,0.07480X0.04724*%
%ADD87C,0.05709*%
%ADD88C,0.03347*%
%ADD92R,0.01843X0.01860*%
%ADD94R,0.02953X0.02756*%
%ADD95R,0.01788X0.01428*%
%ADD96R,0.04541X0.05339*%
%ADD98R,0.04546X0.06717*%
%ADD99R,0.02953X0.03543*%
%ADD102R,0.09449X0.03150*%
G04:AMPARAMS|DCode=103|XSize=11.81mil|YSize=20.47mil|CornerRadius=1.95mil|HoleSize=0mil|Usage=FLASHONLY|Rotation=270.000|XOffset=0mil|YOffset=0mil|HoleType=Round|Shape=RoundedRectangle|*
%AMROUNDEDRECTD103*
21,1,0.01181,0.01658,0,0,270.0*
21,1,0.00791,0.02047,0,0,270.0*
1,1,0.00390,-0.00829,-0.00396*
1,1,0.00390,-0.00829,0.00396*
1,1,0.00390,0.00829,0.00396*
1,1,0.00390,0.00829,-0.00396*
%
%ADD103ROUNDEDRECTD103*%
%ADD104R,0.08661X0.01358*%
%ADD105R,0.01600X0.01300*%
D18*
X122152Y104823D02*
D03*
X158569Y100886D02*
D03*
X156601D02*
D03*
X160538D02*
D03*
X162506D02*
D03*
X124120Y116634D02*
D03*
X162506Y118602D02*
D03*
X158569Y108760D02*
D03*
X156601Y110728D02*
D03*
X124120Y118602D02*
D03*
Y120571D02*
D03*
Y102854D02*
D03*
X122152Y98917D02*
D03*
X124120D02*
D03*
Y96949D02*
D03*
X128057Y116634D02*
D03*
X162506Y114665D02*
D03*
X122152Y118602D02*
D03*
X126089Y110728D02*
D03*
Y108760D02*
D03*
X128057Y106791D02*
D03*
Y104823D02*
D03*
X126089Y102854D02*
D03*
D19*
X202362Y74508D02*
D03*
X103937Y90847D02*
D03*
X111417Y122146D02*
D03*
X101870Y106693D02*
D03*
X101870Y128642D02*
D03*
X107775Y136221D02*
D03*
X111024Y83661D02*
D03*
X105807Y106693D02*
D03*
D21*
X103347Y96752D02*
D03*
X169095Y50689D02*
D03*
X208071Y80118D02*
D03*
D22*
X80118Y114665D02*
D03*
Y112697D02*
D03*
X89567Y116634D02*
D03*
X80118D02*
D03*
D23*
X120669Y79148D02*
D03*
X68504Y47244D02*
D03*
D24*
X156285Y140748D02*
D03*
D26*
X178347Y78571D02*
D03*
X159646Y126575D02*
D03*
D27*
X110632Y74606D02*
D03*
X186809Y133268D02*
D03*
D28*
X118490Y87106D02*
D03*
X167801Y124470D02*
D03*
D30*
X88779Y60039D02*
D03*
Y62992D02*
D03*
X77165Y63484D02*
D03*
X115847Y99508D02*
D03*
Y102461D02*
D03*
X231496Y146358D02*
D03*
Y149311D02*
D03*
X119685Y134449D02*
D03*
D31*
X175689Y57087D02*
D03*
X168012Y57284D02*
D03*
D32*
X180118Y83957D02*
D03*
D35*
X217815Y138189D02*
D03*
X209327Y135630D02*
D03*
Y138189D02*
D03*
D36*
X237402Y105709D02*
D03*
X224410Y106299D02*
D03*
D38*
X220866Y96653D02*
D03*
X227165D02*
D03*
X155807Y44980D02*
D03*
D39*
X214862Y78839D02*
D03*
X51752Y44685D02*
D03*
X57579Y46654D02*
D03*
Y44685D02*
D03*
X214862Y76870D02*
D03*
X137736Y57071D02*
D03*
Y55102D02*
D03*
Y53134D02*
D03*
D40*
X220866Y31988D02*
D03*
D45*
X48228Y72766D02*
D03*
D46*
X42756Y80118D02*
D03*
D47*
X22146Y83858D02*
D03*
Y88976D02*
D03*
D51*
X76257Y73632D02*
D03*
X57359Y91132D02*
D03*
Y88632D02*
D03*
Y86132D02*
D03*
Y73632D02*
D03*
X76257Y76132D02*
D03*
Y78632D02*
D03*
Y88632D02*
D03*
D53*
X233169Y30817D02*
D03*
X86319Y41432D02*
D03*
Y44395D02*
D03*
D54*
X77854Y47258D02*
D03*
D58*
X129528Y126772D02*
D03*
D62*
X151476Y112500D02*
D03*
X144488Y108366D02*
D03*
D84*
X9843Y8661D02*
D03*
Y18504D02*
D03*
X19685Y8661D02*
D03*
Y18504D02*
D03*
X29528Y8661D02*
D03*
Y18504D02*
D03*
X39370Y8661D02*
D03*
Y18504D02*
D03*
X49213Y8661D02*
D03*
Y18504D02*
D03*
X59055Y8661D02*
D03*
Y18504D02*
D03*
X68898Y8661D02*
D03*
Y18504D02*
D03*
X78740Y8661D02*
D03*
Y18504D02*
D03*
X88583Y8661D02*
D03*
Y18504D02*
D03*
X98425Y8661D02*
D03*
Y18504D02*
D03*
X108268Y8661D02*
D03*
Y18504D02*
D03*
X118110Y8661D02*
D03*
Y18504D02*
D03*
X127953Y8661D02*
D03*
Y18504D02*
D03*
X137795Y8661D02*
D03*
Y18504D02*
D03*
X147638Y8661D02*
D03*
Y18504D02*
D03*
X157480Y8661D02*
D03*
Y18504D02*
D03*
X167323Y8661D02*
D03*
Y18504D02*
D03*
X177165Y8661D02*
D03*
Y18504D02*
D03*
X187008Y8661D02*
D03*
Y18504D02*
D03*
X196850Y8661D02*
D03*
D85*
Y18504D02*
D03*
D86*
X11614Y100197D02*
D03*
Y72638D02*
D03*
D87*
X22244Y96260D02*
D03*
Y76575D02*
D03*
D88*
X224606Y8563D02*
D03*
X236417D02*
D03*
D92*
X91133Y41240D02*
D03*
D94*
X148307Y134094D02*
D03*
X153622Y130157D02*
D03*
D95*
X42717Y72638D02*
D03*
X74786Y97539D02*
D03*
D96*
X129624Y89272D02*
D03*
D98*
X247641Y132382D02*
D03*
D99*
X202461Y29724D02*
D03*
D102*
X245276Y124114D02*
D03*
Y117815D02*
D03*
D103*
X39783Y84055D02*
D03*
D104*
X76257Y91132D02*
D03*
D105*
X67195Y97933D02*
D03*
X64695D02*
D03*
M02*
