G04*
G04 #@! TF.GenerationSoftware,Altium Limited,Altium Designer,24.7.2 (38)*
G04*
G04 Layer_Color=128*
%FSLAX25Y25*%
%MOIN*%
G70*
G04*
G04 #@! TF.SameCoordinates,98F62D9F-8C32-4B21-931F-99D976C78984*
G04*
G04*
G04 #@! TF.FilePolarity,Positive*
G04*
G01*
G75*
%ADD14C,0.00500*%
D14*
X7776Y8661D02*
X11909D01*
X9843Y6594D02*
Y10728D01*
X7776Y18504D02*
X11909D01*
X9843Y16437D02*
Y20571D01*
X17618Y8661D02*
X21752D01*
X19685Y6594D02*
Y10728D01*
X17618Y18504D02*
X21752D01*
X19685Y16437D02*
Y20571D01*
X27461Y8661D02*
X31594D01*
X29528Y6594D02*
Y10728D01*
X27461Y18504D02*
X31594D01*
X29528Y16437D02*
Y20571D01*
X37303Y8661D02*
X41437D01*
X39370Y6594D02*
Y10728D01*
X37303Y18504D02*
X41437D01*
X39370Y16437D02*
Y20571D01*
X47146Y8661D02*
X51279D01*
X49213Y6594D02*
Y10728D01*
X47146Y18504D02*
X51279D01*
X49213Y16437D02*
Y20571D01*
X56988Y8661D02*
X61122D01*
X59055Y6594D02*
Y10728D01*
X56988Y18504D02*
X61122D01*
X59055Y16437D02*
Y20571D01*
X66831Y8661D02*
X70965D01*
X68898Y6594D02*
Y10728D01*
X66831Y18504D02*
X70965D01*
X68898Y16437D02*
Y20571D01*
X76673Y8661D02*
X80807D01*
X78740Y6594D02*
Y10728D01*
X76673Y18504D02*
X80807D01*
X78740Y16437D02*
Y20571D01*
X86516Y8661D02*
X90650D01*
X88583Y6594D02*
Y10728D01*
X86516Y18504D02*
X90650D01*
X88583Y16437D02*
Y20571D01*
X96358Y8661D02*
X100492D01*
X98425Y6594D02*
Y10728D01*
X96358Y18504D02*
X100492D01*
X98425Y16437D02*
Y20571D01*
X106201Y8661D02*
X110335D01*
X108268Y6594D02*
Y10728D01*
X106201Y18504D02*
X110335D01*
X108268Y16437D02*
Y20571D01*
X116043Y8661D02*
X120177D01*
X118110Y6594D02*
Y10728D01*
X116043Y18504D02*
X120177D01*
X118110Y16437D02*
Y20571D01*
X125886Y8661D02*
X130020D01*
X127953Y6594D02*
Y10728D01*
X125886Y18504D02*
X130020D01*
X127953Y16437D02*
Y20571D01*
X135728Y8661D02*
X139862D01*
X137795Y6594D02*
Y10728D01*
X135728Y18504D02*
X139862D01*
X137795Y16437D02*
Y20571D01*
X145571Y8661D02*
X149705D01*
X147638Y6594D02*
Y10728D01*
X145571Y18504D02*
X149705D01*
X147638Y16437D02*
Y20571D01*
X155413Y8661D02*
X159547D01*
X157480Y6594D02*
Y10728D01*
X155413Y18504D02*
X159547D01*
X157480Y16437D02*
Y20571D01*
X165256Y8661D02*
X169390D01*
X167323Y6594D02*
Y10728D01*
X165256Y18504D02*
X169390D01*
X167323Y16437D02*
Y20571D01*
X175098Y8661D02*
X179232D01*
X177165Y6594D02*
Y10728D01*
X175098Y18504D02*
X179232D01*
X177165Y16437D02*
Y20571D01*
X184941Y8661D02*
X189075D01*
X187008Y6594D02*
Y10728D01*
X184941Y18504D02*
X189075D01*
X187008Y16437D02*
Y20571D01*
X194783Y8661D02*
X198917D01*
X196850Y6594D02*
Y10728D01*
X194783Y18504D02*
X198917D01*
X196850Y16437D02*
Y20571D01*
X10433Y100197D02*
X12795D01*
X11614Y99016D02*
Y101378D01*
X10433Y72638D02*
X12795D01*
X11614Y71457D02*
Y73819D01*
X20571Y96260D02*
X23917D01*
X22244Y94587D02*
Y97933D01*
X20571Y76575D02*
X23917D01*
X22244Y74902D02*
Y78248D01*
X222933Y8563D02*
X226279D01*
X224606Y6890D02*
Y10236D01*
X234744Y8563D02*
X238090D01*
X236417Y6890D02*
Y10236D01*
X138265Y131890D02*
X141065D01*
X139665Y130490D02*
Y133290D01*
X187853Y63328D02*
X189034D01*
X188444Y62738D02*
Y63919D01*
X217346Y57417D02*
X220146D01*
X218746Y56017D02*
Y58817D01*
X155297Y92238D02*
X158097D01*
X156697Y90838D02*
Y93638D01*
X225667Y25394D02*
X228467D01*
X227067Y23994D02*
Y26794D01*
X111297Y90158D02*
X114097D01*
X112697Y88757D02*
Y91558D01*
X82261Y86319D02*
X85061D01*
X83661Y84919D02*
Y87719D01*
X133738Y43110D02*
X136538D01*
X135138Y41710D02*
Y44510D01*
X133442Y47835D02*
X136242D01*
X134843Y46435D02*
Y49235D01*
X130982Y38386D02*
X133782D01*
X132382Y36986D02*
Y39786D01*
X110706Y109593D02*
X113506D01*
X112106Y108193D02*
Y110993D01*
X137773Y26575D02*
X140573D01*
X139173Y25175D02*
Y27975D01*
X150059Y92217D02*
X152859D01*
X151459Y90817D02*
Y93617D01*
X157980Y73751D02*
X160780D01*
X159380Y72351D02*
Y75151D01*
X144095Y131791D02*
X145276D01*
X144685Y131201D02*
Y132382D01*
X113364Y80709D02*
X116164D01*
X114764Y79309D02*
Y82109D01*
X142202Y78080D02*
X145002D01*
X143602Y76680D02*
Y79480D01*
X146139Y83366D02*
X148939D01*
X147539Y81966D02*
Y84766D01*
X114053Y94882D02*
X116853D01*
X115453Y93482D02*
Y96282D01*
M02*
