G04*
G04 #@! TF.GenerationSoftware,Altium Limited,Altium Designer,24.7.2 (38)*
G04*
G04 Layer_Physical_Order=1*
G04 Layer_Color=255*
%FSLAX44Y44*%
%MOMM*%
G71*
G04*
G04 #@! TF.SameCoordinates,83C183C4-3B18-41F5-843C-3348C90CF240*
G04*
G04*
G04 #@! TF.FilePolarity,Positive*
G04*
G01*
G75*
%ADD15C,0.2540*%
%ADD18C,0.2500*%
%ADD19R,0.5000X0.6000*%
%ADD20R,0.4000X0.6000*%
%ADD21R,0.6000X0.5000*%
%ADD22R,0.3000X0.2500*%
%ADD23R,0.6725X0.7154*%
%ADD24R,0.5153X0.4725*%
%ADD25R,1.0062X1.1051*%
%ADD26R,0.4725X0.5153*%
%ADD27R,1.1051X1.0062*%
%ADD28R,0.7154X0.6725*%
%ADD29R,0.5393X0.4725*%
%ADD30R,0.4500X0.5000*%
%ADD31R,0.6000X0.4000*%
%ADD32R,0.2500X0.3000*%
%ADD33R,0.7561X0.2925*%
%ADD34R,0.4500X0.6000*%
G04:AMPARAMS|DCode=35|XSize=0.7561mm|YSize=0.2925mm|CornerRadius=0.1462mm|HoleSize=0mm|Usage=FLASHONLY|Rotation=180.000|XOffset=0mm|YOffset=0mm|HoleType=Round|Shape=RoundedRectangle|*
%AMROUNDEDRECTD35*
21,1,0.7561,0.0000,0,0,180.0*
21,1,0.4636,0.2925,0,0,180.0*
1,1,0.2925,-0.2318,0.0000*
1,1,0.2925,0.2318,0.0000*
1,1,0.2925,0.2318,0.0000*
1,1,0.2925,-0.2318,0.0000*
%
%ADD35ROUNDEDRECTD35*%
%ADD36R,0.9000X0.7500*%
%ADD37R,1.0500X1.6000*%
%ADD38R,0.8000X1.4000*%
%ADD39R,0.6700X0.3000*%
%ADD40R,0.6000X0.6000*%
%ADD41R,1.0000X1.2000*%
%ADD42R,0.5500X0.5500*%
%ADD43R,0.7000X0.5000*%
%ADD44R,0.6153X0.5725*%
%ADD45R,0.3302X0.4064*%
G04:AMPARAMS|DCode=46|XSize=0.3mm|YSize=0.49mm|CornerRadius=0.0495mm|HoleSize=0mm|Usage=FLASHONLY|Rotation=270.000|XOffset=0mm|YOffset=0mm|HoleType=Round|Shape=RoundedRectangle|*
%AMROUNDEDRECTD46*
21,1,0.3000,0.3910,0,0,270.0*
21,1,0.2010,0.4900,0,0,270.0*
1,1,0.0990,-0.1955,-0.1005*
1,1,0.0990,-0.1955,0.1005*
1,1,0.0990,0.1955,0.1005*
1,1,0.0990,0.1955,-0.1005*
%
%ADD46ROUNDEDRECTD46*%
%ADD47R,1.3500X0.4000*%
%ADD48R,0.8582X0.8563*%
%ADD49R,0.9121X0.9587*%
%ADD50R,0.6000X0.4500*%
G04:AMPARAMS|DCode=51|XSize=2.2mm|YSize=0.345mm|CornerRadius=0.1725mm|HoleSize=0mm|Usage=FLASHONLY|Rotation=180.000|XOffset=0mm|YOffset=0mm|HoleType=Round|Shape=RoundedRectangle|*
%AMROUNDEDRECTD51*
21,1,2.2000,0.0000,0,0,180.0*
21,1,1.8550,0.3450,0,0,180.0*
1,1,0.3450,-0.9275,0.0000*
1,1,0.3450,0.9275,0.0000*
1,1,0.3450,0.9275,0.0000*
1,1,0.3450,-0.9275,0.0000*
%
%ADD51ROUNDEDRECTD51*%
%ADD52R,0.2627X0.3541*%
%ADD53R,0.4725X0.5596*%
%ADD54R,0.5725X0.6153*%
%ADD55R,0.4725X0.2725*%
%ADD56R,1.7062X1.1546*%
%ADD57R,1.0000X1.9300*%
%ADD58R,0.5200X0.5200*%
%ADD59R,0.5541X0.4627*%
%ADD60R,0.3541X0.2627*%
%ADD61R,0.6500X0.6400*%
%ADD62R,0.5000X0.4000*%
%ADD63R,0.6121X0.6596*%
%ADD78R,0.8000X2.4000*%
%ADD79C,0.5080*%
%ADD80C,0.1524*%
%ADD81C,0.4572*%
%ADD82C,0.1020*%
%ADD83C,0.3810*%
%ADD84C,1.5750*%
%ADD85R,1.5750X1.5750*%
%ADD86O,1.9000X1.2000*%
%ADD87C,1.4500*%
%ADD88C,0.8500*%
%ADD89C,0.5000*%
%ADD90C,0.7112*%
G36*
X20000Y196500D02*
Y183500D01*
X20010Y183240D01*
X20030Y182980D01*
X20060Y182720D01*
X20110Y182460D01*
X20170Y182210D01*
X20240Y181950D01*
X20330Y181710D01*
X20430Y181470D01*
X20540Y181230D01*
X20670Y181000D01*
X20810Y180780D01*
X20950Y180560D01*
X21110Y180350D01*
X21280Y180150D01*
X21460Y179960D01*
X21650Y179780D01*
X21850Y179610D01*
X22060Y179450D01*
X22280Y179310D01*
X22500Y179170D01*
X22730Y179040D01*
X22970Y178930D01*
X23210Y178830D01*
X23450Y178740D01*
X23710Y178670D01*
X23960Y178610D01*
X24220Y178560D01*
X24480Y178530D01*
X24740Y178510D01*
X25000Y178500D01*
X34000D01*
X34260Y178510D01*
X34520Y178530D01*
X34780Y178560D01*
X35040Y178610D01*
X35290Y178670D01*
X35550Y178740D01*
X35790Y178830D01*
X36030Y178930D01*
X36270Y179040D01*
X36500Y179170D01*
X36720Y179310D01*
X36940Y179450D01*
X37150Y179610D01*
X37350Y179780D01*
X37540Y179960D01*
X37720Y180150D01*
X37890Y180350D01*
X38050Y180560D01*
X38190Y180780D01*
X38330Y181000D01*
X38460Y181230D01*
X38570Y181470D01*
X38670Y181710D01*
X38760Y181950D01*
X38830Y182210D01*
X38890Y182460D01*
X38940Y182720D01*
X38970Y182980D01*
X38990Y183240D01*
X39000Y183500D01*
Y196500D01*
X20000D01*
D02*
G37*
G36*
X38990Y255760D02*
X38970Y256020D01*
X38940Y256280D01*
X38890Y256540D01*
X38830Y256790D01*
X38760Y257050D01*
X38670Y257290D01*
X38570Y257530D01*
X38460Y257770D01*
X38330Y258000D01*
X38190Y258220D01*
X38050Y258440D01*
X37890Y258650D01*
X37720Y258850D01*
X37540Y259040D01*
X37350Y259220D01*
X37150Y259390D01*
X36940Y259550D01*
X36720Y259690D01*
X36500Y259830D01*
X36270Y259960D01*
X36030Y260070D01*
X35790Y260170D01*
X35550Y260260D01*
X35290Y260330D01*
X35040Y260390D01*
X34780Y260440D01*
X34520Y260470D01*
X34260Y260490D01*
X34000Y260500D01*
X25000D01*
X24740Y260490D01*
X24480Y260470D01*
X24220Y260440D01*
X23960Y260390D01*
X23710Y260330D01*
X23450Y260260D01*
X23210Y260170D01*
X22970Y260070D01*
X22730Y259960D01*
X22500Y259830D01*
X22280Y259690D01*
X22060Y259550D01*
X21850Y259390D01*
X21650Y259220D01*
X21460Y259040D01*
X21280Y258850D01*
X21110Y258650D01*
X20950Y258440D01*
X20810Y258220D01*
X20670Y258000D01*
X20540Y257770D01*
X20430Y257530D01*
X20330Y257290D01*
X20240Y257050D01*
X20170Y256790D01*
X20110Y256540D01*
X20060Y256280D01*
X20030Y256020D01*
X20010Y255760D01*
X20000Y255500D01*
Y242500D01*
X39000D01*
Y255500D01*
X38990Y255760D01*
D02*
G37*
D15*
X533750Y62500D02*
X555500Y84250D01*
Y145723D02*
X555615Y145838D01*
X555500Y84250D02*
Y145723D01*
X325266Y271250D02*
X328732D01*
X315266Y281250D02*
X325266Y271250D01*
X397742Y261250D02*
X407742D01*
X404636Y266678D02*
X407314Y269356D01*
Y272260D02*
X411752Y276698D01*
X397742Y261250D02*
X403170Y266678D01*
X407314Y269356D02*
Y272260D01*
X403170Y266678D02*
X404636D01*
X328732Y271250D02*
X365750Y234232D01*
X337684Y109500D02*
X343250D01*
X279685Y58685D02*
X342500Y121500D01*
X336250Y58250D02*
Y97500D01*
X275184Y47000D02*
X337684Y109500D01*
X286000Y291750D02*
X306500Y271250D01*
X320242D01*
X328000Y50000D02*
X336250Y58250D01*
X275000Y47000D02*
X275184D01*
X250000D02*
X262933D01*
X263315Y47382D01*
Y51840D01*
X270160Y58685D01*
X279685D01*
X365750Y234232D02*
X384706D01*
X386639Y225500D02*
X388127Y224012D01*
X388000Y220536D02*
X388125Y222842D01*
X388127Y222891D01*
Y224012D01*
X306500Y191464D02*
X391179D01*
X434250Y234536D01*
X318086Y256250D02*
X318146Y256310D01*
X315242Y256250D02*
X318086D01*
X475000Y47000D02*
Y61902D01*
X475597Y62500D02*
X533750D01*
X335928Y198322D02*
X364750D01*
X293250Y241000D02*
X335928Y198322D01*
X274000Y230750D02*
X284250Y241000D01*
X293250D01*
X397742Y295802D02*
X418698D01*
X421750Y292750D01*
Y283821D02*
Y292750D01*
X414627Y276698D02*
X421750Y283821D01*
X411752Y276698D02*
X414627D01*
X431334Y287658D02*
Y294500D01*
X414927Y271250D02*
X431334Y287658D01*
X412742Y271250D02*
X414927D01*
X390500Y220750D02*
X402500D01*
X411500Y229750D01*
X412742Y251250D02*
X417536D01*
X434250Y234536D01*
X407742Y261250D02*
X412742D01*
X413190Y260802D02*
X416035D01*
X423837Y253000D01*
X434494D01*
X430464Y257030D02*
Y274250D01*
D18*
X402766Y306250D02*
D03*
X320266Y301250D02*
D03*
X325266D02*
D03*
X402766D02*
D03*
X310266Y296250D02*
D03*
X397766D02*
D03*
X320266Y291250D02*
D03*
X397766D02*
D03*
X315266Y286250D02*
D03*
Y281250D02*
D03*
X407766D02*
D03*
X412766D02*
D03*
X320266Y271250D02*
D03*
X397766D02*
D03*
X402766D02*
D03*
X412766D02*
D03*
X397766Y261250D02*
D03*
X402766D02*
D03*
X407766D02*
D03*
X412766D02*
D03*
X310266Y256250D02*
D03*
X315266D02*
D03*
X325266Y251250D02*
D03*
X397766D02*
D03*
X402766D02*
D03*
X407766D02*
D03*
X412766D02*
D03*
X392766Y246250D02*
D03*
X397766D02*
D03*
X402766D02*
D03*
X407766D02*
D03*
X412766D02*
D03*
X320266Y251250D02*
D03*
D19*
X274000Y230750D02*
D03*
X252500Y361750D02*
D03*
X283750Y346000D02*
D03*
X242500Y361750D02*
D03*
X272000Y212500D02*
D03*
D20*
X286000Y291750D02*
D03*
D21*
X262500Y255750D02*
D03*
X528500Y193500D02*
D03*
X243750Y197250D02*
D03*
Y187250D02*
D03*
X429500Y118750D02*
D03*
D22*
X227500Y291250D02*
D03*
Y301250D02*
D03*
X203500D02*
D03*
D23*
X306500Y191464D02*
D03*
X388000Y220536D02*
D03*
X64000Y278464D02*
D03*
X325750Y153286D02*
D03*
X150750Y373000D02*
D03*
X64000Y288036D02*
D03*
X629250Y201786D02*
D03*
D24*
X372286Y225500D02*
D03*
D25*
X411500Y229750D02*
D03*
X472250Y254494D02*
D03*
D26*
X434250Y234536D02*
D03*
X114250Y274465D02*
D03*
D27*
X434494Y253000D02*
D03*
X149000Y77250D02*
D03*
D28*
X430464Y274250D02*
D03*
X463786Y231000D02*
D03*
D29*
X431334Y294500D02*
D03*
D30*
X338250Y297000D02*
D03*
Y304500D02*
D03*
X304000Y349000D02*
D03*
D31*
X446250Y154000D02*
D03*
X426750Y154500D02*
D03*
X559750Y164500D02*
D03*
X388750Y136500D02*
D03*
Y145500D02*
D03*
X585000Y192250D02*
D03*
Y201250D02*
D03*
X375250Y103250D02*
D03*
D32*
X463500Y213250D02*
D03*
D33*
X553250Y357500D02*
D03*
D34*
X500750Y361500D02*
D03*
D35*
X531689Y357500D02*
D03*
D36*
X585000Y204500D02*
D03*
X412500Y89500D02*
D03*
X273000Y127500D02*
D03*
X451750Y90250D02*
D03*
D37*
X494500Y145500D02*
D03*
D38*
X411750Y114250D02*
D03*
D39*
X364650Y134960D02*
D03*
Y139960D02*
D03*
X545750Y190250D02*
D03*
X560550D02*
D03*
Y195250D02*
D03*
Y200250D02*
D03*
Y205250D02*
D03*
X364650Y144960D02*
D03*
X146250Y123500D02*
D03*
X131450D02*
D03*
Y118500D02*
D03*
Y128500D02*
D03*
X364650Y149960D02*
D03*
D40*
X613750Y71000D02*
D03*
X561000Y70750D02*
D03*
D41*
X610500Y47750D02*
D03*
X560500D02*
D03*
X585500D02*
D03*
D42*
X247750Y72750D02*
D03*
X238750D02*
D03*
D43*
X263250Y72250D02*
D03*
D44*
X168929Y78000D02*
D03*
D45*
X122500Y191175D02*
D03*
D46*
X108600Y208500D02*
D03*
Y213500D02*
D03*
D47*
X56250Y219500D02*
D03*
Y206500D02*
D03*
D48*
X41250Y305240D02*
D03*
D49*
X607500Y204017D02*
D03*
X305250Y161017D02*
D03*
D50*
X452000Y335250D02*
D03*
X122750Y328500D02*
D03*
D51*
X193692Y212425D02*
D03*
Y218775D02*
D03*
X145693Y199725D02*
D03*
Y193375D02*
D03*
Y206075D02*
D03*
D52*
X224324Y194543D02*
D03*
X123750Y221293D02*
D03*
D53*
X224500Y125238D02*
D03*
Y132762D02*
D03*
X592250Y70750D02*
D03*
D54*
X112500Y115964D02*
D03*
D55*
X179000Y282750D02*
D03*
D56*
X171500Y335758D02*
D03*
D57*
X121750Y374000D02*
D03*
X77750D02*
D03*
D58*
X168250Y96000D02*
D03*
D59*
X74250Y113500D02*
D03*
D60*
X74543Y130250D02*
D03*
D61*
X76250Y144000D02*
D03*
D62*
X103250Y327250D02*
D03*
D63*
X82750Y327762D02*
D03*
D78*
X470000Y113500D02*
D03*
X486000D02*
D03*
D79*
X123750Y221293D02*
X191174D01*
X184750Y282750D02*
X202762Y300762D01*
X310690Y296698D02*
X338250D01*
Y297000D02*
X345500D01*
X345500Y297000D02*
Y301831D01*
X116813Y184063D02*
X125519D01*
X79188Y146438D02*
X116813Y184063D01*
X75540Y143340D02*
X76200Y144000D01*
X76250D01*
X74543Y130250D02*
Y140364D01*
X75540Y141361D01*
Y143340D01*
X46841Y206500D02*
X56250D01*
X45948Y207393D02*
X46841Y206500D01*
X45948Y207393D02*
Y260412D01*
X446250Y154000D02*
X472734D01*
X478647Y159913D01*
X481803Y153233D02*
X484172Y155602D01*
Y155606D01*
X388750Y145500D02*
X474066D01*
X481799Y153233D01*
X484172Y155606D02*
X489566Y161000D01*
X481799Y153233D02*
X481803D01*
X539268Y184408D02*
X542243Y181432D01*
X520420Y188896D02*
Y198104D01*
X463500Y176000D02*
X478647Y160853D01*
X526020Y161000D02*
X542243Y177224D01*
Y181432D01*
X489566Y161000D02*
X526020D01*
X520420Y198104D02*
X524146Y201830D01*
X524908Y184408D02*
X539268D01*
X524146Y201830D02*
X557130D01*
X560550Y205250D01*
X520420Y188896D02*
X524908Y184408D01*
X112128Y213302D02*
X119355Y206075D01*
X130000D01*
X340650Y345500D02*
X366000D01*
X441750D02*
X452000Y335250D01*
X340650Y345500D02*
X345250Y340900D01*
X366000Y345500D02*
X441750D01*
X366000Y337191D02*
Y345500D01*
X337388Y348762D02*
X340650Y345500D01*
X366000Y337191D02*
X367500Y335691D01*
X463786Y213250D02*
Y231000D01*
X304000Y348750D02*
X316750D01*
X193692Y218775D02*
X212025D01*
X316762Y348762D02*
X337388D01*
X472250Y254494D02*
Y289143D01*
X452000Y309393D02*
X472250Y289143D01*
X452000Y309393D02*
Y335250D01*
X472250Y239464D02*
Y254494D01*
X426750Y154500D02*
X445750D01*
X463500Y176000D02*
Y212964D01*
X242500Y362250D02*
X248302Y368052D01*
X284948D01*
X302262Y350738D01*
X204238Y301988D02*
X242500Y340250D01*
Y361750D01*
X345250Y302081D02*
Y340900D01*
X179000Y282750D02*
X184750D01*
X170715Y274465D02*
X179000Y282750D01*
X463786Y231000D02*
X472250Y239464D01*
X452000Y335250D02*
X460250D01*
X493250Y368250D01*
X493698Y367802D02*
X530443D01*
X540745Y357500D01*
X553250D01*
X231617Y187250D02*
X243750D01*
X224324Y194543D02*
X231617Y187250D01*
X223156Y193375D02*
X224324Y194543D01*
X145693Y193375D02*
X223156D01*
X364650Y144960D02*
X388210D01*
X560550Y200250D02*
Y205250D01*
X580750Y200250D02*
X585000Y204500D01*
X560550Y200250D02*
X580750D01*
X585483Y204017D02*
X607500D01*
X627018D01*
X364650Y144960D02*
Y149960D01*
X361325Y153286D02*
X364650Y149960D01*
X325750Y153286D02*
X361325D01*
X312981D02*
X325750D01*
X305250Y161017D02*
X312981Y153286D01*
X273000Y127500D02*
X305250Y159750D01*
X138850Y87400D02*
Y123500D01*
Y87400D02*
X149000Y77250D01*
X224500Y125238D02*
X270737D01*
X224500D02*
X238750Y110988D01*
Y72750D02*
Y110988D01*
X233500Y78000D02*
X238750Y72750D01*
X168929Y78000D02*
X233500D01*
X168929D02*
Y95321D01*
X149000Y77250D02*
X168179D01*
X138850Y123500D02*
X146250D01*
X131450D02*
X138850D01*
X130000Y206075D02*
X145693D01*
X125519Y184063D02*
X130000Y188544D01*
Y206075D01*
X74250Y113500D02*
X110036D01*
X74250D02*
Y129957D01*
X121750Y374000D02*
X149750D01*
X122750Y328500D02*
Y373000D01*
X164242Y328500D02*
X171500Y335758D01*
X122750Y328500D02*
X164242D01*
X103250Y327250D02*
X121500D01*
X82750Y327762D02*
X102738D01*
X82750Y239350D02*
Y327762D01*
Y239350D02*
X108600Y213500D01*
X114250Y274465D02*
X170715D01*
X114250D02*
X123750Y264964D01*
Y221293D02*
Y264964D01*
X191174Y221293D02*
X193692Y218775D01*
X41250Y301214D02*
X54926D01*
X41250D02*
Y305240D01*
X54926Y301214D02*
X57336Y298805D01*
Y283091D02*
Y298805D01*
Y283091D02*
X61962Y278464D01*
X45948Y260412D02*
X64000Y278464D01*
D80*
X202762Y300762D02*
X202802Y300802D01*
X203052D01*
X202762Y300762D02*
Y300762D01*
X345250Y302081D02*
X345500Y301831D01*
X345500Y297000D02*
X345500Y297000D01*
X76250Y144000D02*
X78688Y146438D01*
X79188D01*
X478647Y159913D02*
Y160853D01*
X108600Y213500D02*
X108798Y213302D01*
X112128D01*
X391531Y241057D02*
X398011Y234577D01*
Y234283D02*
Y234577D01*
X391207Y241381D02*
X391531Y241057D01*
X391191Y241381D02*
X391207D01*
X576750Y48330D02*
Y64500D01*
X564420Y36000D02*
X576750Y48330D01*
X438750Y36000D02*
X564420D01*
X426260Y48260D02*
X426490D01*
X424530D02*
X426260D01*
X426375Y48375D01*
X425000Y47000D02*
X426260Y48260D01*
X585500Y48750D02*
X589738Y52988D01*
X590738D02*
X592250Y54500D01*
Y70750D01*
X585500Y47750D02*
Y48750D01*
X589738Y52988D02*
X590738D01*
X325242Y301250D02*
X328492Y304500D01*
X328500Y304500D02*
X338250D01*
X328492Y304500D02*
X328500D01*
X328500Y304500D01*
X320242Y301250D02*
X325242D01*
X367500Y334750D02*
Y335691D01*
X463500Y212964D02*
X463786Y213250D01*
X212025Y218775D02*
X212500Y219250D01*
X296138Y301250D02*
X305690Y291698D01*
X319794D01*
X227500Y301250D02*
X296138D01*
X316750Y348750D02*
X316762Y348762D01*
X304000Y349000D02*
Y349250D01*
X353500Y59307D02*
Y67500D01*
X342000Y286250D02*
X391191Y241381D01*
X315242Y286250D02*
X342000D01*
X426490Y48260D02*
X438750Y36000D01*
X364650Y134960D02*
X374300Y125310D01*
Y104201D02*
X375250Y103250D01*
X374300Y104201D02*
Y125310D01*
X426375Y48375D02*
Y52225D01*
X353500Y59307D02*
X361247Y51560D01*
Y26219D02*
X364716Y22750D01*
X361247Y26219D02*
Y51560D01*
X364716Y22750D02*
X374250D01*
X396305Y291250D02*
X397742D01*
X411500Y246250D02*
X412742D01*
X445750Y154500D02*
X446250Y154000D01*
X325748Y251008D02*
X335492D01*
X325506Y251250D02*
X325748Y251008D01*
X320242Y251250D02*
X325506D01*
X335492Y251008D02*
X374750Y211750D01*
X227500Y291250D02*
X227750D01*
X228238Y290512D02*
Y290762D01*
X227750Y291250D02*
X228238Y290762D01*
X260262Y257488D02*
X262000Y255750D01*
X260262Y257488D02*
Y258488D01*
X228238Y290512D02*
X260262Y258488D01*
X262000Y255750D02*
X262500D01*
X374250Y22750D02*
X375000Y22000D01*
X319794Y291698D02*
X320242Y291250D01*
X242500Y361750D02*
Y362250D01*
X227500Y318994D02*
X250762Y342256D01*
X227500Y301250D02*
Y318994D01*
X250762Y342256D02*
Y360012D01*
X252500Y361750D01*
X302262Y350738D02*
X302512D01*
X304000Y349250D01*
X283750Y345500D02*
X285488Y343762D01*
X285988D02*
X320242Y309508D01*
Y301250D02*
Y309508D01*
X283750Y345500D02*
Y346000D01*
X285488Y343762D02*
X285988D01*
X204238Y301738D02*
Y301988D01*
X203500Y301250D02*
X203750D01*
X203052Y300802D02*
X203500Y301250D01*
X203750D02*
X204238Y301738D01*
X411500Y245008D02*
X412742Y246250D01*
X390286Y220536D02*
X390500Y220750D01*
X388000Y220536D02*
X390286D01*
X397742Y295802D02*
Y296250D01*
X412742Y261250D02*
X413190Y260802D01*
X430464Y257030D02*
X434494Y253000D01*
X310242Y296250D02*
X310690Y296698D01*
X338250D02*
Y297000D01*
X493250Y368250D02*
X493698Y367802D01*
X500750Y361500D02*
X504750Y357500D01*
X531689D01*
X560550Y328639D01*
Y205250D02*
Y328639D01*
X271925Y212425D02*
X272000Y212500D01*
X193692Y212425D02*
X271925D01*
X135712Y132762D02*
X224500D01*
X131450Y128500D02*
X135712Y132762D01*
X241275Y199725D02*
X243750Y197250D01*
X145693Y199725D02*
X241275D01*
X531750Y190250D02*
X545750D01*
X528500Y193500D02*
X531750Y190250D01*
X582000Y195250D02*
X585000Y192250D01*
X560550Y195250D02*
X582000D01*
X559750Y164500D02*
X560550Y165300D01*
Y190250D01*
X411750Y114250D02*
X412500Y113500D01*
Y89500D02*
X413250Y90250D01*
X385290Y139960D02*
X388750Y136500D01*
X364650Y139960D02*
X385290D01*
X560500Y70250D02*
X561000Y70750D01*
X560500Y47750D02*
Y70250D01*
X610500Y47750D02*
X613750Y51000D01*
Y71000D01*
X388210Y144960D02*
X388750Y145500D01*
X585000Y204500D02*
X585483Y204017D01*
X627018D02*
X629250Y201786D01*
X305250Y159750D02*
Y161017D01*
X262750Y72750D02*
X263250Y72250D01*
X247750Y72750D02*
X262750D01*
X270737Y125238D02*
X273000Y127500D01*
X168250Y96000D02*
X168929Y95321D01*
X168179Y77250D02*
X168929Y78000D01*
X103664Y208698D02*
X108402D01*
X92862Y219500D02*
X103664Y208698D01*
X56250Y219500D02*
X92862D01*
X131251Y118302D02*
X131450Y118500D01*
X112500Y115964D02*
Y118302D01*
X110036Y113500D02*
X112500Y115964D01*
X74250Y129957D02*
X74543Y130250D01*
X149750Y374000D02*
X150750Y373000D01*
X121750Y374000D02*
X122750Y373000D01*
X121500Y327250D02*
X122750Y328500D01*
X102738Y327762D02*
X103250Y327250D01*
X64000Y360250D02*
X77750Y374000D01*
X64000Y288036D02*
Y360250D01*
X61962Y278464D02*
X64000D01*
X122500Y191937D02*
Y194600D01*
X108600Y208500D02*
X122500Y194600D01*
X108402Y208698D02*
X108600Y208500D01*
D81*
X355236Y334514D02*
X357736D01*
X393190Y299060D01*
X354750Y335000D02*
X355236Y334514D01*
X372286Y225500D02*
X386639D01*
X367466D02*
X372286D01*
X392682Y256310D02*
Y266190D01*
X397742Y271250D01*
X392682Y256310D02*
X397742Y251250D01*
X393190Y294365D02*
Y299060D01*
Y294365D02*
X396305Y291250D01*
X336656Y256310D02*
X367466Y225500D01*
X318146Y256310D02*
X336656D01*
X402742Y276250D02*
X407742Y281250D01*
X402742Y271250D02*
Y276250D01*
X397742Y291250D02*
X407742Y281250D01*
X412742D01*
X397742Y271250D02*
X402742D01*
X310242Y256250D02*
X315242D01*
X402742Y251250D02*
X407742D01*
X397742D02*
X402742D01*
X397742Y246250D02*
Y251250D01*
X392742Y246250D02*
X397742D01*
X402742D01*
X407742D01*
X411500D01*
Y229750D02*
Y245008D01*
X112500Y118302D02*
X131251D01*
D82*
X302212Y184500D02*
X400460D01*
X403286Y187326D01*
X300088Y186624D02*
X302212Y184500D01*
X403286Y187326D02*
X404826D01*
X325000Y47000D02*
X328000Y50000D01*
X475000Y61902D02*
X475597Y62500D01*
X300088Y186624D02*
Y196412D01*
X291500Y205000D02*
X300088Y196412D01*
D83*
X451750Y95250D02*
X470000Y113500D01*
X451750Y90250D02*
Y95250D01*
X494500Y122000D02*
Y145500D01*
X486000Y113500D02*
X494500Y122000D01*
X425000Y114250D02*
X429500Y118750D01*
X411750Y114250D02*
X425000D01*
X412500Y89500D02*
Y113500D01*
X413250Y90250D02*
X451750D01*
D84*
X25000Y22000D02*
D03*
Y47000D02*
D03*
X50000Y22000D02*
D03*
Y47000D02*
D03*
X75000Y22000D02*
D03*
Y47000D02*
D03*
X100000Y22000D02*
D03*
Y47000D02*
D03*
X125000Y22000D02*
D03*
Y47000D02*
D03*
X150000Y22000D02*
D03*
Y47000D02*
D03*
X175000Y22000D02*
D03*
Y47000D02*
D03*
X200000Y22000D02*
D03*
Y47000D02*
D03*
X225000Y22000D02*
D03*
Y47000D02*
D03*
X250000Y22000D02*
D03*
Y47000D02*
D03*
X275000Y22000D02*
D03*
Y47000D02*
D03*
X300000Y22000D02*
D03*
Y47000D02*
D03*
X325000Y22000D02*
D03*
Y47000D02*
D03*
X350000Y22000D02*
D03*
Y47000D02*
D03*
X375000Y22000D02*
D03*
Y47000D02*
D03*
X400000Y22000D02*
D03*
Y47000D02*
D03*
X425000Y22000D02*
D03*
Y47000D02*
D03*
X450000Y22000D02*
D03*
Y47000D02*
D03*
X475000Y22000D02*
D03*
Y47000D02*
D03*
X500000Y22000D02*
D03*
D85*
Y47000D02*
D03*
D86*
X29500Y254500D02*
D03*
Y184500D02*
D03*
D87*
X56500Y244500D02*
D03*
Y194500D02*
D03*
D88*
X570500Y21750D02*
D03*
X600500D02*
D03*
D89*
X478647Y160853D02*
D03*
X367500Y334750D02*
D03*
D90*
X555615Y145838D02*
D03*
X398011Y234283D02*
D03*
X576750Y64500D02*
D03*
X286250Y229000D02*
D03*
X212500Y219250D02*
D03*
X343250Y109500D02*
D03*
X342500Y121500D02*
D03*
X336250Y97500D02*
D03*
X284750Y278366D02*
D03*
X353500Y67500D02*
D03*
X384706Y234232D02*
D03*
X404826Y187326D02*
D03*
X354750Y335000D02*
D03*
X291500Y205000D02*
D03*
X364750Y198322D02*
D03*
X374750Y211750D02*
D03*
X293250Y241000D02*
D03*
M02*
