G04*
G04 #@! TF.GenerationSoftware,Altium Limited,Altium Designer,24.7.2 (38)*
G04*
G04 Layer_Color=16711935*
%FSLAX44Y44*%
%MOMM*%
G71*
G04*
G04 #@! TF.SameCoordinates,83C183C4-3B18-41F5-843C-3348C90CF240*
G04*
G04*
G04 #@! TF.FilePolarity,Negative*
G04*
G01*
G75*
%ADD19R,0.5000X0.6000*%
%ADD21R,0.6000X0.5000*%
%ADD22R,0.3000X0.2500*%
%ADD23R,0.6725X0.7154*%
%ADD24R,0.5153X0.4725*%
%ADD26R,0.4725X0.5153*%
%ADD27R,1.1051X1.0062*%
%ADD28R,0.7154X0.6725*%
%ADD31R,0.6000X0.4000*%
%ADD32R,0.2500X0.3000*%
G04:AMPARAMS|DCode=35|XSize=0.7561mm|YSize=0.2925mm|CornerRadius=0.1462mm|HoleSize=0mm|Usage=FLASHONLY|Rotation=180.000|XOffset=0mm|YOffset=0mm|HoleType=Round|Shape=RoundedRectangle|*
%AMROUNDEDRECTD35*
21,1,0.7561,0.0000,0,0,180.0*
21,1,0.4636,0.2925,0,0,180.0*
1,1,0.2925,-0.2318,0.0000*
1,1,0.2925,0.2318,0.0000*
1,1,0.2925,0.2318,0.0000*
1,1,0.2925,-0.2318,0.0000*
%
%ADD35ROUNDEDRECTD35*%
%ADD36R,0.9000X0.7500*%
%ADD38R,0.8000X1.4000*%
%ADD39R,0.6700X0.3000*%
%ADD40R,0.6000X0.6000*%
%ADD45R,0.3302X0.4064*%
G04:AMPARAMS|DCode=51|XSize=2.2mm|YSize=0.345mm|CornerRadius=0.1725mm|HoleSize=0mm|Usage=FLASHONLY|Rotation=180.000|XOffset=0mm|YOffset=0mm|HoleType=Round|Shape=RoundedRectangle|*
%AMROUNDEDRECTD51*
21,1,2.2000,0.0000,0,0,180.0*
21,1,1.8550,0.3450,0,0,180.0*
1,1,0.3450,-0.9275,0.0000*
1,1,0.3450,0.9275,0.0000*
1,1,0.3450,0.9275,0.0000*
1,1,0.3450,-0.9275,0.0000*
%
%ADD51ROUNDEDRECTD51*%
%ADD53R,0.4725X0.5596*%
%ADD54R,0.5725X0.6153*%
%ADD58R,0.5200X0.5200*%
%ADD62R,0.5000X0.4000*%
%ADD64C,0.3516*%
%ADD65R,0.6532X0.7032*%
G04:AMPARAMS|DCode=68|XSize=0.5032mm|YSize=0.6932mm|CornerRadius=0.1511mm|HoleSize=0mm|Usage=FLASHONLY|Rotation=270.000|XOffset=0mm|YOffset=0mm|HoleType=Round|Shape=RoundedRectangle|*
%AMROUNDEDRECTD68*
21,1,0.5032,0.3910,0,0,270.0*
21,1,0.2010,0.6932,0,0,270.0*
1,1,0.3022,-0.1955,-0.1005*
1,1,0.3022,-0.1955,0.1005*
1,1,0.3022,0.1955,0.1005*
1,1,0.3022,0.1955,-0.1005*
%
%ADD68ROUNDEDRECTD68*%
%ADD69R,1.4770X0.5270*%
%ADD72C,1.7782*%
%ADD73R,1.7782X1.7782*%
%ADD74C,1.5770*%
%ADD75C,1.0532*%
%ADD76C,0.7032*%
%ADD77C,0.9144*%
%ADD92R,0.4682X0.4725*%
%ADD95R,0.4541X0.3627*%
%ADD96R,1.1534X1.3562*%
%ADD98R,1.1546X1.7062*%
%ADD99R,0.7500X0.9000*%
%ADD104R,2.2000X0.3450*%
%ADD105R,0.4064X0.3302*%
%ADD107R,0.9532X0.9032*%
G04:AMPARAMS|DCode=108|XSize=0.5032mm|YSize=0.7232mm|CornerRadius=0.1511mm|HoleSize=0mm|Usage=FLASHONLY|Rotation=270.000|XOffset=0mm|YOffset=0mm|HoleType=Round|Shape=RoundedRectangle|*
%AMROUNDEDRECTD108*
21,1,0.5032,0.4210,0,0,270.0*
21,1,0.2010,0.7232,0,0,270.0*
1,1,0.3022,-0.2105,-0.1005*
1,1,0.3022,-0.2105,0.1005*
1,1,0.3022,0.2105,0.1005*
1,1,0.3022,0.2105,-0.1005*
%
%ADD108ROUNDEDRECTD108*%
G36*
X19360Y197140D02*
Y183500D01*
X19370Y183210D01*
X19400Y182910D01*
X19430Y182620D01*
X19490Y182330D01*
X19560Y182040D01*
X19640Y181760D01*
X19740Y181480D01*
X19850Y181210D01*
X19980Y180940D01*
X20120Y180680D01*
X20270Y180430D01*
X20440Y180190D01*
X20620Y179950D01*
X20810Y179730D01*
X21020Y179520D01*
X21230Y179310D01*
X21450Y179120D01*
X21690Y178940D01*
X21930Y178770D01*
X22180Y178620D01*
X22440Y178480D01*
X22710Y178350D01*
X22980Y178240D01*
X23260Y178140D01*
X23540Y178060D01*
X23830Y177990D01*
X24120Y177930D01*
X24410Y177900D01*
X24710Y177870D01*
X34290D01*
X34590Y177900D01*
X34880Y177930D01*
X35170Y177990D01*
X35460Y178060D01*
X35740Y178140D01*
X36020Y178240D01*
X36290Y178350D01*
X36560Y178480D01*
X36820Y178620D01*
X37070Y178770D01*
X37310Y178940D01*
X37550Y179120D01*
X37770Y179310D01*
X38190Y179730D01*
X38380Y179950D01*
X38560Y180190D01*
X38730Y180430D01*
X38880Y180680D01*
X39020Y180940D01*
X39150Y181210D01*
X39260Y181480D01*
X39360Y181760D01*
X39440Y182040D01*
X39510Y182330D01*
X39570Y182620D01*
X39600Y182910D01*
X39630Y183210D01*
Y197140D01*
X19360D01*
D02*
G37*
G36*
X39600Y256090D02*
X39570Y256380D01*
X39510Y256670D01*
X39440Y256960D01*
X39360Y257240D01*
X39260Y257520D01*
X39150Y257790D01*
X39020Y258060D01*
X38880Y258320D01*
X38730Y258570D01*
X38560Y258810D01*
X38380Y259050D01*
X38190Y259270D01*
X37770Y259690D01*
X37550Y259880D01*
X37310Y260060D01*
X37070Y260230D01*
X36820Y260380D01*
X36560Y260520D01*
X36290Y260650D01*
X36020Y260760D01*
X35740Y260860D01*
X35460Y260940D01*
X35170Y261010D01*
X34880Y261070D01*
X34590Y261100D01*
X34290Y261130D01*
X24710D01*
X24410Y261100D01*
X24120Y261070D01*
X23830Y261010D01*
X23540Y260940D01*
X23260Y260860D01*
X22980Y260760D01*
X22710Y260650D01*
X22440Y260520D01*
X22180Y260380D01*
X21930Y260230D01*
X21690Y260060D01*
X21450Y259880D01*
X21230Y259690D01*
X21020Y259480D01*
X20810Y259270D01*
X20620Y259050D01*
X20440Y258810D01*
X20270Y258570D01*
X20120Y258320D01*
X19980Y258060D01*
X19850Y257790D01*
X19740Y257520D01*
X19640Y257240D01*
X19560Y256960D01*
X19490Y256670D01*
X19430Y256380D01*
X19400Y256090D01*
X19370Y255790D01*
X19360Y255500D01*
X19365Y241865D01*
X39630Y241860D01*
Y255790D01*
X39600Y256090D01*
D02*
G37*
D19*
X514000Y189250D02*
D03*
X264000Y230750D02*
D03*
X283000Y310250D02*
D03*
X258750Y271000D02*
D03*
X258750Y326750D02*
D03*
X273750Y346000D02*
D03*
X282000Y212500D02*
D03*
X268750Y271000D02*
D03*
D21*
X262500Y245750D02*
D03*
X429500Y128750D02*
D03*
X528500Y203500D02*
D03*
D22*
X203500Y291250D02*
D03*
Y286250D02*
D03*
X227500Y296250D02*
D03*
X203500D02*
D03*
D23*
X306500Y201036D02*
D03*
X174000Y120000D02*
D03*
D24*
X396965Y357500D02*
D03*
D26*
X453000Y199571D02*
D03*
X405500Y321500D02*
D03*
D27*
X281006Y189500D02*
D03*
X474494Y338500D02*
D03*
D28*
X300964Y221250D02*
D03*
X426214Y316155D02*
D03*
D31*
X446250Y145000D02*
D03*
X426750Y145500D02*
D03*
D32*
X457500Y213250D02*
D03*
D35*
X553250Y351000D02*
D03*
X531689Y344500D02*
D03*
Y351000D02*
D03*
D36*
X603000Y268500D02*
D03*
X570000Y270000D02*
D03*
D38*
X561000Y245500D02*
D03*
X577000D02*
D03*
X395750Y114250D02*
D03*
D39*
X545750Y200250D02*
D03*
X131450Y113500D02*
D03*
X146250Y118500D02*
D03*
Y113500D02*
D03*
X545750Y195250D02*
D03*
X349850Y144960D02*
D03*
Y139960D02*
D03*
Y134960D02*
D03*
D40*
X561000Y81250D02*
D03*
D45*
X122500Y184825D02*
D03*
D51*
X193692Y187025D02*
D03*
X145693Y231475D02*
D03*
Y225125D02*
D03*
Y218775D02*
D03*
Y187025D02*
D03*
X193692Y193375D02*
D03*
Y199725D02*
D03*
Y225125D02*
D03*
D53*
X592250Y78275D02*
D03*
X219250Y105238D02*
D03*
Y112762D02*
D03*
D54*
X197750Y120036D02*
D03*
D58*
X329000Y322000D02*
D03*
D62*
X384750Y285750D02*
D03*
X367000Y275250D02*
D03*
D64*
X310266Y266250D02*
D03*
X402766Y256250D02*
D03*
X397766D02*
D03*
X407766D02*
D03*
X412766D02*
D03*
X315266Y296250D02*
D03*
X412766Y301250D02*
D03*
X402766Y276250D02*
D03*
X397766Y281250D02*
D03*
X315266Y301250D02*
D03*
Y306250D02*
D03*
Y261250D02*
D03*
X310266Y251250D02*
D03*
X315266D02*
D03*
Y246250D02*
D03*
X325266Y296250D02*
D03*
X412766Y291250D02*
D03*
X310266Y301250D02*
D03*
X320266Y281250D02*
D03*
Y276250D02*
D03*
X325266Y271250D02*
D03*
Y266250D02*
D03*
X320266Y261250D02*
D03*
D65*
X225500Y152500D02*
D03*
Y160000D02*
D03*
X196000Y161250D02*
D03*
X294250Y252750D02*
D03*
Y260250D02*
D03*
X588000Y371750D02*
D03*
Y379250D02*
D03*
X304000Y341500D02*
D03*
D68*
X108600Y203500D02*
D03*
D69*
X56250Y213000D02*
D03*
Y226000D02*
D03*
D72*
X25000Y22000D02*
D03*
Y47000D02*
D03*
X50000Y22000D02*
D03*
Y47000D02*
D03*
X75000Y22000D02*
D03*
Y47000D02*
D03*
X100000Y22000D02*
D03*
Y47000D02*
D03*
X125000Y22000D02*
D03*
Y47000D02*
D03*
X150000Y22000D02*
D03*
Y47000D02*
D03*
X175000Y22000D02*
D03*
Y47000D02*
D03*
X200000Y22000D02*
D03*
Y47000D02*
D03*
X225000Y22000D02*
D03*
Y47000D02*
D03*
X250000Y22000D02*
D03*
Y47000D02*
D03*
X275000Y22000D02*
D03*
Y47000D02*
D03*
X300000Y22000D02*
D03*
Y47000D02*
D03*
X325000Y22000D02*
D03*
Y47000D02*
D03*
X350000Y22000D02*
D03*
Y47000D02*
D03*
X375000Y22000D02*
D03*
Y47000D02*
D03*
X400000Y22000D02*
D03*
Y47000D02*
D03*
X425000Y22000D02*
D03*
Y47000D02*
D03*
X450000Y22000D02*
D03*
Y47000D02*
D03*
X475000Y22000D02*
D03*
Y47000D02*
D03*
X500000Y22000D02*
D03*
D73*
Y47000D02*
D03*
D74*
X56500Y244500D02*
D03*
Y194500D02*
D03*
D75*
X570500Y21750D02*
D03*
X600500D02*
D03*
D76*
X478647Y160853D02*
D03*
X367500Y334750D02*
D03*
D77*
X555615Y145838D02*
D03*
X398011Y234283D02*
D03*
X576750Y64500D02*
D03*
X286250Y229000D02*
D03*
X212500Y219250D02*
D03*
X343250Y109500D02*
D03*
X342500Y121500D02*
D03*
X336250Y97500D02*
D03*
X284750Y278366D02*
D03*
X353500Y67500D02*
D03*
X384706Y234232D02*
D03*
X404826Y187326D02*
D03*
X354750Y335000D02*
D03*
X291500Y205000D02*
D03*
X364750Y198322D02*
D03*
X374750Y211750D02*
D03*
X293250Y241000D02*
D03*
D92*
X231479Y104750D02*
D03*
D95*
X108500Y184500D02*
D03*
X189957Y247750D02*
D03*
D96*
X329246Y226750D02*
D03*
D98*
X629008Y336250D02*
D03*
D99*
X514250Y75500D02*
D03*
D104*
X193692Y231475D02*
D03*
D105*
X170675Y248750D02*
D03*
X164325D02*
D03*
D107*
X376700Y340598D02*
D03*
X390200Y330598D02*
D03*
D108*
X101050Y213500D02*
D03*
M02*
