G04*
G04 #@! TF.GenerationSoftware,Altium Limited,Altium Designer,24.7.2 (38)*
G04*
G04 Layer_Color=32768*
%FSLAX25Y25*%
%MOIN*%
G70*
G04*
G04 #@! TF.SameCoordinates,98F62D9F-8C32-4B21-931F-99D976C78984*
G04*
G04*
G04 #@! TF.FilePolarity,Positive*
G04*
G01*
G75*
%ADD11C,0.00394*%
%ADD12C,0.00787*%
%ADD81C,0.00600*%
%ADD113C,0.00197*%
G36*
X46578Y70966D02*
Y77066D01*
X49878D01*
Y70966D01*
X46578D01*
D02*
G37*
D11*
X95768Y27559D02*
Y29724D01*
X94685Y28642D02*
X96850D01*
X88779Y60433D02*
Y62598D01*
X87697Y61516D02*
X89862D01*
X77165Y60925D02*
Y63090D01*
X76083Y62008D02*
X78248D01*
X230413Y147835D02*
X232579D01*
X231496Y146752D02*
Y148917D01*
X40256Y82087D02*
X42224D01*
X41240Y81102D02*
Y83071D01*
X26280Y57677D02*
X30217D01*
Y55709D02*
Y57677D01*
X26280Y55709D02*
X30217D01*
X26280D02*
Y57677D01*
X32972Y70571D02*
Y72736D01*
X31890Y71653D02*
X34055D01*
X31791Y142323D02*
X46752D01*
X31791D02*
Y152165D01*
X46752D01*
Y142323D02*
Y152165D01*
X44783Y142323D02*
X46752Y144291D01*
D12*
X146850Y33465D02*
Y39370D01*
X143701Y33465D02*
X146850D01*
X143701D02*
Y39370D01*
X146850D01*
X89818Y39764D02*
X95615D01*
X89818D02*
Y42717D01*
X95615D01*
Y39764D02*
Y42717D01*
X64705Y28991D02*
Y32426D01*
Y28991D02*
X71684D01*
Y32426D01*
X64705D02*
X71684D01*
X64665Y36220D02*
Y39370D01*
Y36220D02*
X70965D01*
Y39370D01*
X64665D02*
X70965D01*
X227953Y82382D02*
X232677D01*
X227953Y72539D02*
Y82382D01*
Y72539D02*
X232677D01*
Y82382D01*
X236393Y83193D02*
X241953D01*
X236393Y71728D02*
Y83193D01*
Y71728D02*
X241953D01*
Y83193D01*
X13976Y118094D02*
X18504D01*
Y126985D01*
X13976D02*
X18504D01*
X13976Y118094D02*
Y126985D01*
X197047Y76083D02*
X203740D01*
Y72933D02*
Y76083D01*
X197047Y72933D02*
X203740D01*
X197047D02*
Y76083D01*
X44201Y71333D02*
Y73942D01*
X38836D02*
X44201D01*
X38836Y71333D02*
Y73942D01*
Y71333D02*
X44201D01*
X42574Y43853D02*
Y50832D01*
X46009D01*
Y43853D02*
Y50832D01*
X42574Y43853D02*
X46009D01*
X46555Y130610D02*
X50098D01*
X46555Y124311D02*
Y130610D01*
Y124311D02*
X50098D01*
Y130610D01*
X250307Y128445D02*
Y136319D01*
X234929D02*
X250307D01*
X234929Y128445D02*
Y136319D01*
Y128445D02*
X250307D01*
X240157Y115846D02*
X250394D01*
Y126083D01*
X240157D02*
X250394D01*
X240157Y115846D02*
Y126083D01*
X235039Y103839D02*
X239764D01*
Y113681D01*
X235039D02*
X239764D01*
X235039Y103839D02*
Y113681D01*
X183071Y39567D02*
Y49803D01*
Y39567D02*
X193307D01*
Y49803D01*
X183071D02*
X193307D01*
X167520Y52067D02*
X170669D01*
X167520Y45374D02*
Y52067D01*
Y45374D02*
X170669D01*
Y52067D01*
X175492Y37402D02*
X180217D01*
X175492Y27559D02*
Y37402D01*
Y27559D02*
X180217D01*
Y37402D01*
X108957Y26870D02*
Y30020D01*
X101870D02*
X108957D01*
X101870Y26870D02*
Y30020D01*
Y26870D02*
X108957D01*
X49986Y27448D02*
X61821D01*
X49986D02*
Y33378D01*
X61821D01*
Y27448D02*
Y33378D01*
X49764Y84030D02*
Y88214D01*
X47677Y84030D02*
X49764D01*
X47677D02*
Y88214D01*
X49764D01*
X24564Y42987D02*
X31111D01*
X24564D02*
Y46383D01*
X31111D01*
Y42987D02*
Y46383D01*
X26254Y50236D02*
X30439D01*
X26254D02*
Y52323D01*
X30439D01*
Y50236D02*
Y52323D01*
X200591Y32087D02*
X210433D01*
Y27362D02*
Y32087D01*
X200591Y27362D02*
X210433D01*
X200591D02*
Y32087D01*
X42126Y124508D02*
Y130020D01*
X39173Y124508D02*
X42126D01*
X39173D02*
Y130020D01*
X42126D01*
X34374Y123795D02*
Y130929D01*
X30783Y123795D02*
X34374D01*
X30783D02*
Y130929D01*
X34374D01*
X23086Y107436D02*
Y115595D01*
X27308D01*
Y107436D02*
Y115595D01*
X23086Y107436D02*
X27308D01*
X219291Y26280D02*
Y33563D01*
X222441D01*
Y26280D02*
Y33563D01*
X219291Y26280D02*
X222441D01*
X240059Y33661D02*
X243209D01*
X240059Y26378D02*
Y33661D01*
Y26378D02*
X243209D01*
Y33661D01*
X234646Y26359D02*
Y32312D01*
X231693Y26359D02*
X234646D01*
X231693D02*
Y32312D01*
X234646D01*
X249847Y73479D02*
Y81639D01*
X245625Y73479D02*
X249847D01*
X245625D02*
Y81639D01*
X249847D01*
D81*
X46578Y77066D02*
X49878D01*
Y70966D02*
Y77066D01*
X46578Y70966D02*
X49878D01*
X46578D02*
Y77066D01*
D113*
X92224Y30413D02*
X99311D01*
X92224Y26870D02*
X99311D01*
X92224D02*
Y30413D01*
X99311Y26870D02*
Y30413D01*
X87205Y64468D02*
X90354D01*
X87205Y58563D02*
X90354D01*
Y64468D01*
X87205Y58563D02*
Y64468D01*
X75590Y64961D02*
X78740D01*
X75590Y59055D02*
X78740D01*
Y64961D01*
X75590Y59055D02*
Y64961D01*
X229921Y144882D02*
Y150787D01*
X233071Y144882D02*
Y150787D01*
X229921Y144882D02*
X233071D01*
X229921Y150787D02*
X233071D01*
X38366Y85236D02*
X44114D01*
X38366Y78937D02*
Y85236D01*
Y78937D02*
X44114D01*
Y85236D01*
X30807Y67520D02*
X35138D01*
X30807Y75787D02*
X35138D01*
X30807Y67520D02*
Y75787D01*
X35138Y67520D02*
Y75787D01*
X215354Y-2264D02*
Y22146D01*
X245669D01*
Y-2264D02*
Y22146D01*
X215354Y-2264D02*
X245669D01*
M02*
