G04*
G04 #@! TF.GenerationSoftware,Altium Limited,Altium Designer,24.7.2 (38)*
G04*
G04 Layer_Physical_Order=2*
G04 Layer_Color=36540*
%FSLAX44Y44*%
%MOMM*%
G71*
G04*
G04 #@! TF.SameCoordinates,83C183C4-3B18-41F5-843C-3348C90CF240*
G04*
G04*
G04 #@! TF.FilePolarity,Positive*
G04*
G01*
G75*
%ADD15C,0.2540*%
%ADD18C,0.2500*%
%ADD20R,0.4000X0.6000*%
%ADD22R,0.3000X0.2500*%
%ADD23R,0.6725X0.7154*%
%ADD24R,0.5153X0.4725*%
%ADD25R,1.0062X1.1051*%
%ADD26R,0.4725X0.5153*%
%ADD27R,1.1051X1.0062*%
%ADD28R,0.7154X0.6725*%
%ADD29R,0.5393X0.4725*%
%ADD31R,0.6000X0.4000*%
%ADD34R,0.4500X0.6000*%
G04:AMPARAMS|DCode=35|XSize=0.7561mm|YSize=0.2925mm|CornerRadius=0.1462mm|HoleSize=0mm|Usage=FLASHONLY|Rotation=180.000|XOffset=0mm|YOffset=0mm|HoleType=Round|Shape=RoundedRectangle|*
%AMROUNDEDRECTD35*
21,1,0.7561,0.0000,0,0,180.0*
21,1,0.4636,0.2925,0,0,180.0*
1,1,0.2925,-0.2318,0.0000*
1,1,0.2925,0.2318,0.0000*
1,1,0.2925,0.2318,0.0000*
1,1,0.2925,-0.2318,0.0000*
%
%ADD35ROUNDEDRECTD35*%
%ADD36R,0.9000X0.7500*%
%ADD37R,1.0500X1.6000*%
%ADD39R,0.6700X0.3000*%
%ADD40R,0.6000X0.6000*%
%ADD43R,0.7000X0.5000*%
%ADD44R,0.6153X0.5725*%
G04:AMPARAMS|DCode=46|XSize=0.3mm|YSize=0.49mm|CornerRadius=0.0495mm|HoleSize=0mm|Usage=FLASHONLY|Rotation=270.000|XOffset=0mm|YOffset=0mm|HoleType=Round|Shape=RoundedRectangle|*
%AMROUNDEDRECTD46*
21,1,0.3000,0.3910,0,0,270.0*
21,1,0.2010,0.4900,0,0,270.0*
1,1,0.0990,-0.1955,-0.1005*
1,1,0.0990,-0.1955,0.1005*
1,1,0.0990,0.1955,0.1005*
1,1,0.0990,0.1955,-0.1005*
%
%ADD46ROUNDEDRECTD46*%
%ADD47R,1.3500X0.4000*%
%ADD48R,0.8582X0.8563*%
%ADD49R,0.9121X0.9587*%
%ADD50R,0.6000X0.4500*%
G04:AMPARAMS|DCode=51|XSize=2.2mm|YSize=0.345mm|CornerRadius=0.1725mm|HoleSize=0mm|Usage=FLASHONLY|Rotation=180.000|XOffset=0mm|YOffset=0mm|HoleType=Round|Shape=RoundedRectangle|*
%AMROUNDEDRECTD51*
21,1,2.2000,0.0000,0,0,180.0*
21,1,1.8550,0.3450,0,0,180.0*
1,1,0.3450,-0.9275,0.0000*
1,1,0.3450,0.9275,0.0000*
1,1,0.3450,0.9275,0.0000*
1,1,0.3450,-0.9275,0.0000*
%
%ADD51ROUNDEDRECTD51*%
%ADD52R,0.2627X0.3541*%
%ADD54R,0.5725X0.6153*%
%ADD55R,0.4725X0.2725*%
%ADD56R,1.7062X1.1546*%
%ADD58R,0.5200X0.5200*%
%ADD59R,0.5541X0.4627*%
%ADD60R,0.3541X0.2627*%
%ADD61R,0.6500X0.6400*%
%ADD62R,0.5000X0.4000*%
%ADD63R,0.6121X0.6596*%
%ADD84C,1.5750*%
%ADD86O,1.9000X1.2000*%
%ADD87C,1.4500*%
%ADD88C,0.8500*%
%ADD89C,0.5000*%
%ADD90C,0.7112*%
%ADD91R,0.2000X1.6000*%
%ADD92R,0.4682X0.4725*%
%ADD93R,1.9000X1.5000*%
%ADD94R,0.7500X0.7000*%
%ADD95R,0.4541X0.3627*%
%ADD96R,1.1534X1.3562*%
%ADD97R,1.1000X1.7000*%
%ADD98R,1.1546X1.7062*%
%ADD99R,0.7500X0.9000*%
%ADD100R,0.6500X0.7000*%
G36*
X645250Y-4875D02*
X644000Y-6125D01*
X642000Y-4125D01*
X-4750D01*
Y402625D01*
X-5058Y402933D01*
X-4667Y403875D01*
X645250D01*
Y-4875D01*
D02*
G37*
%LPC*%
G36*
X156652Y369546D02*
X152020D01*
Y364699D01*
X156652D01*
Y369546D01*
D02*
G37*
G36*
X149480D02*
X144848D01*
Y364699D01*
X149480D01*
Y369546D01*
D02*
G37*
G36*
X496040Y367040D02*
X492520D01*
Y362770D01*
X496040D01*
Y367040D01*
D02*
G37*
G36*
X489980D02*
X486460D01*
Y362770D01*
X489980D01*
Y367040D01*
D02*
G37*
G36*
X409652Y362402D02*
X405806D01*
Y358770D01*
X409652D01*
Y362402D01*
D02*
G37*
G36*
X403266D02*
X399419D01*
Y358770D01*
X403266D01*
Y362402D01*
D02*
G37*
G36*
X156652Y362159D02*
X152020D01*
Y357312D01*
X156652D01*
Y362159D01*
D02*
G37*
G36*
X149480D02*
X144848D01*
Y357312D01*
X149480D01*
Y362159D01*
D02*
G37*
G36*
X496040Y360230D02*
X492520D01*
Y355960D01*
X496040D01*
Y360230D01*
D02*
G37*
G36*
X489980D02*
X486460D01*
Y355960D01*
X489980D01*
Y360230D01*
D02*
G37*
G36*
X409652Y356230D02*
X405806D01*
Y352598D01*
X409652D01*
Y356230D01*
D02*
G37*
G36*
X403266D02*
X399419D01*
Y352598D01*
X403266D01*
Y356230D01*
D02*
G37*
G36*
X550510Y362040D02*
X543740D01*
Y352270D01*
X550510D01*
Y362040D01*
D02*
G37*
G36*
X541200D02*
X534430D01*
Y352270D01*
X541200D01*
Y362040D01*
D02*
G37*
G36*
X457540Y349540D02*
X453270D01*
Y346020D01*
X457540D01*
Y349540D01*
D02*
G37*
G36*
X450730D02*
X446460D01*
Y346020D01*
X450730D01*
Y349540D01*
D02*
G37*
G36*
X555568Y348581D02*
X554520D01*
Y345770D01*
X559396D01*
X559338Y346062D01*
X558453Y347386D01*
X557130Y348270D01*
X555568Y348581D01*
D02*
G37*
G36*
X396490Y346638D02*
X391470D01*
Y341868D01*
X396490D01*
Y346638D01*
D02*
G37*
G36*
X388930D02*
X383910D01*
Y341868D01*
X388930D01*
Y346638D01*
D02*
G37*
G36*
X559396Y343230D02*
X554520D01*
Y340420D01*
X555568D01*
X557130Y340730D01*
X558453Y341615D01*
X559338Y342939D01*
X559396Y343230D01*
D02*
G37*
G36*
X550510Y349730D02*
X543740D01*
Y339960D01*
X550510D01*
Y340073D01*
X550932Y340420D01*
X551980D01*
Y344500D01*
Y348581D01*
X550932D01*
X550510Y348928D01*
Y349730D01*
D02*
G37*
G36*
X541200D02*
X534430D01*
Y339960D01*
X541200D01*
Y349730D01*
D02*
G37*
G36*
X457540Y343480D02*
X453270D01*
Y339960D01*
X457540D01*
Y343480D01*
D02*
G37*
G36*
X450730D02*
X446460D01*
Y339960D01*
X450730D01*
Y343480D01*
D02*
G37*
G36*
X496571Y346071D02*
X489776D01*
Y339770D01*
X496571D01*
Y346071D01*
D02*
G37*
G36*
X487236D02*
X480440D01*
Y339770D01*
X487236D01*
Y346071D01*
D02*
G37*
G36*
X611805Y347321D02*
X604762D01*
Y337520D01*
X611805D01*
Y347321D01*
D02*
G37*
G36*
X602222D02*
X595179D01*
Y337520D01*
X602222D01*
Y347321D01*
D02*
G37*
G36*
X396490Y339328D02*
X391470D01*
Y334558D01*
X396490D01*
Y339328D01*
D02*
G37*
G36*
X388930D02*
X383910D01*
Y336879D01*
X382990Y336638D01*
X382890Y336638D01*
X377970D01*
Y331868D01*
X382990D01*
Y334316D01*
X383910Y334558D01*
X384010Y334558D01*
X388930D01*
Y339328D01*
D02*
G37*
G36*
X496571Y337230D02*
X489776D01*
Y330929D01*
X496571D01*
Y337230D01*
D02*
G37*
G36*
X487236D02*
X480440D01*
Y330929D01*
X487236D01*
Y337230D01*
D02*
G37*
G36*
X410402Y334188D02*
X406770D01*
Y330341D01*
X410402D01*
Y334188D01*
D02*
G37*
G36*
X404230D02*
X400598D01*
Y330341D01*
X404230D01*
Y334188D01*
D02*
G37*
G36*
X355963Y341096D02*
X353537D01*
X351297Y340168D01*
X349582Y338453D01*
X348654Y336213D01*
Y333787D01*
X349582Y331547D01*
X351297Y329832D01*
X353537Y328904D01*
X355963D01*
X358203Y329832D01*
X359918Y331547D01*
X360846Y333787D01*
Y336213D01*
X359918Y338453D01*
X358203Y340168D01*
X355963Y341096D01*
D02*
G37*
G36*
X611805Y334980D02*
X604762D01*
Y325179D01*
X611805D01*
Y334980D01*
D02*
G37*
G36*
X602222D02*
X595179D01*
Y325179D01*
X602222D01*
Y334980D01*
D02*
G37*
G36*
X382990Y329328D02*
X377970D01*
Y324558D01*
X382990D01*
Y329328D01*
D02*
G37*
G36*
X368503Y339790D02*
X366497D01*
X364645Y339023D01*
X363227Y337605D01*
X362460Y335752D01*
Y333747D01*
X363227Y331895D01*
X364645Y330477D01*
X366497Y329710D01*
X368503D01*
X369390Y330078D01*
X370410Y329396D01*
Y324558D01*
X375430D01*
Y330598D01*
Y336638D01*
X372173D01*
X371773Y337605D01*
X370355Y339023D01*
X368503Y339790D01*
D02*
G37*
G36*
X410402Y327801D02*
X406770D01*
Y323955D01*
X410402D01*
Y327801D01*
D02*
G37*
G36*
X404230D02*
X400598D01*
Y323955D01*
X404230D01*
Y327801D01*
D02*
G37*
G36*
X342140Y327140D02*
X338270D01*
Y323270D01*
X342140D01*
Y327140D01*
D02*
G37*
G36*
X335730D02*
X331860D01*
Y323270D01*
X335730D01*
Y327140D01*
D02*
G37*
G36*
X108290Y323790D02*
X104520D01*
Y320520D01*
X108290D01*
Y323790D01*
D02*
G37*
G36*
X101980D02*
X98210D01*
Y320520D01*
X101980D01*
Y323790D01*
D02*
G37*
G36*
X88351Y325076D02*
X84020D01*
Y320508D01*
X88351D01*
Y325076D01*
D02*
G37*
G36*
X81480D02*
X77149D01*
Y320508D01*
X81480D01*
Y325076D01*
D02*
G37*
G36*
X128290Y323790D02*
X124020D01*
Y320270D01*
X128290D01*
Y323790D01*
D02*
G37*
G36*
X121480D02*
X117210D01*
Y320270D01*
X121480D01*
Y323790D01*
D02*
G37*
G36*
X48081Y324081D02*
X42520D01*
Y318530D01*
X48081D01*
Y324081D01*
D02*
G37*
G36*
X39980D02*
X34419D01*
Y318530D01*
X39980D01*
Y324081D01*
D02*
G37*
G36*
X441902Y322057D02*
X437056D01*
Y317425D01*
X441902D01*
Y322057D01*
D02*
G37*
G36*
X434516D02*
X429669D01*
Y317425D01*
X434516D01*
Y322057D01*
D02*
G37*
G36*
X342140Y320730D02*
X338270D01*
Y316860D01*
X342140D01*
Y320730D01*
D02*
G37*
G36*
X335730D02*
X331860D01*
Y316860D01*
X335730D01*
Y320730D01*
D02*
G37*
G36*
X108290Y317980D02*
X104520D01*
Y314710D01*
X108290D01*
Y317980D01*
D02*
G37*
G36*
X101980D02*
X98210D01*
Y314710D01*
X101980D01*
Y317980D01*
D02*
G37*
G36*
X128290Y317730D02*
X124020D01*
Y314210D01*
X128290D01*
Y317730D01*
D02*
G37*
G36*
X121480D02*
X117210D01*
Y314210D01*
X121480D01*
Y317730D01*
D02*
G37*
G36*
X88351Y317967D02*
X84020D01*
Y313399D01*
X88351D01*
Y317967D01*
D02*
G37*
G36*
X81480D02*
X77149D01*
Y313399D01*
X81480D01*
Y317967D01*
D02*
G37*
G36*
X182571Y318555D02*
X172770D01*
Y311512D01*
X182571D01*
Y318555D01*
D02*
G37*
G36*
X170230D02*
X160429D01*
Y311512D01*
X170230D01*
Y318555D01*
D02*
G37*
G36*
X48081Y315990D02*
X42520D01*
Y310438D01*
X48081D01*
Y315990D01*
D02*
G37*
G36*
X39980D02*
X34419D01*
Y310438D01*
X39980D01*
Y315990D01*
D02*
G37*
G36*
X441902Y314885D02*
X437056D01*
Y310252D01*
X441902D01*
Y314885D01*
D02*
G37*
G36*
X434516D02*
X429669D01*
Y310252D01*
X434516D01*
Y314885D01*
D02*
G37*
G36*
X323996Y309826D02*
X323119Y309463D01*
X322766Y309110D01*
X322413Y309463D01*
X321536Y309826D01*
Y306250D01*
Y302674D01*
X322413Y303037D01*
X322766Y303390D01*
X323119Y303037D01*
X323996Y302674D01*
Y306250D01*
Y309826D01*
D02*
G37*
G36*
X328996D02*
X328119Y309463D01*
X327766Y309110D01*
X327413Y309463D01*
X326536Y309826D01*
Y306250D01*
Y302674D01*
X327413Y303037D01*
X327766Y303391D01*
X328119Y303037D01*
X328996Y302674D01*
Y306250D01*
Y309826D01*
D02*
G37*
G36*
X331536D02*
Y307520D01*
X333842D01*
X333479Y308397D01*
X332413Y309463D01*
X331536Y309826D01*
D02*
G37*
G36*
X318996D02*
X318119Y309463D01*
X317053Y308397D01*
X316690Y307520D01*
X318996D01*
Y309826D01*
D02*
G37*
G36*
X311536D02*
Y307520D01*
X313842D01*
X313479Y308397D01*
X312413Y309463D01*
X311536Y309826D01*
D02*
G37*
G36*
X308996D02*
X308119Y309463D01*
X307053Y308397D01*
X306690Y307520D01*
X308996D01*
Y309826D01*
D02*
G37*
G36*
X333842Y304980D02*
X331536D01*
Y302674D01*
X332413Y303037D01*
X333479Y304103D01*
X333842Y304980D01*
D02*
G37*
G36*
X318996D02*
X316690D01*
X317053Y304103D01*
X318119Y303037D01*
X318996Y302674D01*
Y304980D01*
D02*
G37*
G36*
X313842D02*
X311536D01*
Y302674D01*
X312413Y303037D01*
X313479Y304103D01*
X313842Y304980D01*
D02*
G37*
G36*
X308996D02*
X306690D01*
X307053Y304103D01*
X308119Y303037D01*
X308996Y302674D01*
Y304980D01*
D02*
G37*
G36*
X182571Y308972D02*
X172770D01*
Y301929D01*
X182571D01*
Y308972D01*
D02*
G37*
G36*
X170230D02*
X160429D01*
Y301929D01*
X170230D01*
Y308972D01*
D02*
G37*
G36*
X443902Y299402D02*
X439936D01*
Y295770D01*
X443902D01*
Y299402D01*
D02*
G37*
G36*
X437396D02*
X433429D01*
Y295770D01*
X437396D01*
Y299402D01*
D02*
G37*
G36*
X389790Y298290D02*
X386020D01*
Y295020D01*
X389790D01*
Y298290D01*
D02*
G37*
G36*
X383480D02*
X379710D01*
Y295020D01*
X383480D01*
Y298290D01*
D02*
G37*
G36*
X219040Y304290D02*
X216770D01*
Y295020D01*
X219040D01*
Y304290D01*
D02*
G37*
G36*
X214230D02*
X211960D01*
Y295020D01*
X214230D01*
Y304290D01*
D02*
G37*
G36*
X183902Y296652D02*
X180270D01*
Y294020D01*
X183902D01*
Y296652D01*
D02*
G37*
G36*
X177730D02*
X174098D01*
Y294020D01*
X177730D01*
Y296652D01*
D02*
G37*
G36*
X281540Y297290D02*
X278270D01*
Y293020D01*
X281540D01*
Y297290D01*
D02*
G37*
G36*
X275730D02*
X272460D01*
Y293020D01*
X275730D01*
Y297290D01*
D02*
G37*
G36*
X397742Y310135D02*
X397742Y310135D01*
X389452D01*
X387965Y309839D01*
X386705Y308997D01*
X386229Y308521D01*
X385387Y307261D01*
X385091Y305774D01*
X385387Y304288D01*
X386229Y303027D01*
X387489Y302185D01*
X388976Y301890D01*
X390462Y302185D01*
X390732Y302365D01*
X393857D01*
Y301250D01*
X393976Y300654D01*
Y300496D01*
X394036Y300351D01*
X394153Y299763D01*
X394486Y299266D01*
X394553Y299103D01*
X394678Y298979D01*
X394995Y298503D01*
X397714Y295784D01*
X397447Y294609D01*
X396532Y293997D01*
X395497Y292962D01*
X394655Y291702D01*
X394359Y290215D01*
X394293Y290134D01*
X391750D01*
X390810Y289947D01*
X389790Y290656D01*
Y292480D01*
X386020D01*
Y289210D01*
X387779D01*
X387940Y289051D01*
X388298Y288190D01*
X387661Y287237D01*
X387365Y285750D01*
X387661Y284263D01*
X388503Y283003D01*
X389763Y282161D01*
X391250Y281865D01*
X392737Y282161D01*
X393042Y282365D01*
X397766D01*
X397766Y282365D01*
X398857D01*
Y281250D01*
X398976Y280654D01*
Y280496D01*
X399036Y280351D01*
X399153Y279763D01*
X399486Y279266D01*
X399553Y279103D01*
X399677Y278979D01*
X399995Y278503D01*
X400471Y278185D01*
X400619Y278037D01*
X400813Y277957D01*
X401255Y277661D01*
X401777Y277557D01*
X402012Y277460D01*
X402266D01*
X402742Y277365D01*
X403047Y277426D01*
X403369Y277279D01*
X403432Y277235D01*
X403811Y276758D01*
X403911Y276518D01*
X403857Y276250D01*
Y270134D01*
X388857D01*
X387371Y269839D01*
X386110Y268997D01*
X386051Y268937D01*
X385209Y267677D01*
X384913Y266190D01*
X385209Y264704D01*
X386051Y263443D01*
X387311Y262601D01*
X388797Y262305D01*
X389098Y262365D01*
X412766D01*
X413242Y262460D01*
X413520D01*
X413777Y262566D01*
X414252Y262661D01*
X414656Y262930D01*
X414913Y263037D01*
X415109Y263233D01*
X415513Y263503D01*
X419303Y267293D01*
X420145Y268553D01*
X420440Y270040D01*
Y286605D01*
X420145Y288092D01*
X419303Y289352D01*
X418042Y290194D01*
X416559Y290489D01*
X416355Y291514D01*
X415513Y292774D01*
X415489Y293503D01*
X415535Y293573D01*
X415782Y293906D01*
X415979Y294103D01*
X416124Y294455D01*
X416331Y294764D01*
X416403Y295128D01*
X416556Y295496D01*
Y295895D01*
X416627Y296250D01*
X416556Y296606D01*
Y297004D01*
X416403Y297372D01*
X416331Y297737D01*
X416124Y298046D01*
X415979Y298397D01*
X415710Y298666D01*
X415489Y298997D01*
X415157Y299219D01*
X414913Y299463D01*
X414593Y299596D01*
X414228Y299839D01*
X413798Y299925D01*
X413520Y300040D01*
X413218D01*
X412742Y300135D01*
X412182D01*
X411608Y301155D01*
X411627Y301250D01*
Y302365D01*
X416650D01*
X418137Y302661D01*
X419397Y303503D01*
X420239Y304764D01*
X420535Y306250D01*
X420239Y307737D01*
X419397Y308997D01*
X418137Y309839D01*
X416650Y310135D01*
X407766D01*
X407754Y310133D01*
X407742Y310135D01*
X407266Y310040D01*
X407012D01*
X406777Y309943D01*
X406255Y309839D01*
X405813Y309543D01*
X405619Y309463D01*
X405471Y309315D01*
X404995Y308997D01*
X404677Y308521D01*
X404553Y308397D01*
X404486Y308235D01*
X404153Y307737D01*
X404036Y307150D01*
X403976Y307004D01*
Y306847D01*
X403857Y306250D01*
Y302860D01*
X402742Y301744D01*
X401627Y302859D01*
Y306250D01*
X401556Y306606D01*
Y307004D01*
X401404Y307372D01*
X401331Y307737D01*
X401124Y308046D01*
X400979Y308397D01*
X400710Y308666D01*
X400489Y308997D01*
X400158Y309219D01*
X399913Y309463D01*
X399593Y309596D01*
X399229Y309839D01*
X398799Y309925D01*
X398520Y310040D01*
X398218D01*
X397742Y310135D01*
D02*
G37*
G36*
X443902Y293230D02*
X439936D01*
Y289598D01*
X443902D01*
Y293230D01*
D02*
G37*
G36*
X437396D02*
X433429D01*
Y289598D01*
X437396D01*
Y293230D01*
D02*
G37*
G36*
X383480Y292480D02*
X379710D01*
Y289210D01*
X383480D01*
Y292480D01*
D02*
G37*
G36*
X183902Y291480D02*
X180270D01*
Y288848D01*
X183902D01*
Y291480D01*
D02*
G37*
G36*
X177730D02*
X174098D01*
Y288848D01*
X177730D01*
Y291480D01*
D02*
G37*
G36*
X231540Y290040D02*
X228770D01*
Y287520D01*
X231540D01*
Y290040D01*
D02*
G37*
G36*
X226230D02*
X223460D01*
Y287520D01*
X226230D01*
Y290040D01*
D02*
G37*
G36*
X311536Y289826D02*
Y287520D01*
X313842D01*
X313479Y288397D01*
X312413Y289463D01*
X311536Y289826D01*
D02*
G37*
G36*
X308996D02*
X308119Y289463D01*
X307053Y288397D01*
X306690Y287520D01*
X308996D01*
Y289826D01*
D02*
G37*
G36*
X577040Y291790D02*
X571270D01*
Y286770D01*
X577040D01*
Y291790D01*
D02*
G37*
G36*
X568730D02*
X562960D01*
Y286770D01*
X568730D01*
Y291790D01*
D02*
G37*
G36*
X281540Y290480D02*
X278270D01*
Y286210D01*
X281540D01*
Y290480D01*
D02*
G37*
G36*
X275730D02*
X272460D01*
Y286210D01*
X275730D01*
Y290480D01*
D02*
G37*
G36*
X610040Y290290D02*
X604270D01*
Y285270D01*
X610040D01*
Y290290D01*
D02*
G37*
G36*
X601730D02*
X595960D01*
Y285270D01*
X601730D01*
Y290290D01*
D02*
G37*
G36*
X372040Y287790D02*
X368270D01*
Y284520D01*
X372040D01*
Y287790D01*
D02*
G37*
G36*
X365730D02*
X361960D01*
Y284520D01*
X365730D01*
Y287790D01*
D02*
G37*
G36*
X119152Y287153D02*
X115520D01*
Y283306D01*
X119152D01*
Y287153D01*
D02*
G37*
G36*
X112980D02*
X109347D01*
Y283306D01*
X112980D01*
Y287153D01*
D02*
G37*
G36*
X219040Y292480D02*
X216770D01*
Y283210D01*
X219040D01*
Y292480D01*
D02*
G37*
G36*
X214230D02*
X211960D01*
Y283210D01*
X214230D01*
Y292480D01*
D02*
G37*
G36*
X313842Y284980D02*
X311536D01*
Y282673D01*
X312413Y283037D01*
X313479Y284103D01*
X313842Y284980D01*
D02*
G37*
G36*
X308996D02*
X306690D01*
X307053Y284103D01*
X308119Y283037D01*
X308996Y282673D01*
Y284980D01*
D02*
G37*
G36*
X231540Y284980D02*
X228770D01*
Y282460D01*
X231540D01*
Y284980D01*
D02*
G37*
G36*
X226230D02*
X223460D01*
Y282460D01*
X226230D01*
Y284980D01*
D02*
G37*
G36*
X577040Y284230D02*
X571270D01*
Y279210D01*
X577040D01*
Y284230D01*
D02*
G37*
G36*
X568730D02*
X562960D01*
Y279210D01*
X568730D01*
Y284230D01*
D02*
G37*
G36*
X372040Y281980D02*
X368270D01*
Y278710D01*
X372040D01*
Y281980D01*
D02*
G37*
G36*
X365730D02*
X361960D01*
Y278710D01*
X365730D01*
Y281980D01*
D02*
G37*
G36*
X610040Y282730D02*
X604270D01*
Y277710D01*
X610040D01*
Y282730D01*
D02*
G37*
G36*
X601730D02*
X595960D01*
Y277710D01*
X601730D01*
Y282730D01*
D02*
G37*
G36*
X119152Y280766D02*
X115520D01*
Y276919D01*
X119152D01*
Y280766D01*
D02*
G37*
G36*
X112980D02*
X109347D01*
Y276919D01*
X112980D01*
Y280766D01*
D02*
G37*
G36*
X446152Y280152D02*
X441306D01*
Y275520D01*
X446152D01*
Y280152D01*
D02*
G37*
G36*
X438766D02*
X433919D01*
Y275520D01*
X438766D01*
Y280152D01*
D02*
G37*
G36*
X311536Y274826D02*
Y272520D01*
X313842D01*
X313479Y273397D01*
X312413Y274463D01*
X311536Y274826D01*
D02*
G37*
G36*
X308996D02*
X308119Y274463D01*
X307053Y273397D01*
X306690Y272520D01*
X308996D01*
Y274826D01*
D02*
G37*
G36*
X285963Y284462D02*
X283537D01*
X281297Y283534D01*
X279582Y281819D01*
X278654Y279578D01*
Y277153D01*
X279582Y274913D01*
X281297Y273198D01*
X283537Y272270D01*
X285963D01*
X288203Y273198D01*
X289918Y274913D01*
X290846Y277153D01*
Y279578D01*
X289918Y281819D01*
X288203Y283534D01*
X285963Y284462D01*
D02*
G37*
G36*
X479821Y276571D02*
X473520D01*
Y269776D01*
X479821D01*
Y276571D01*
D02*
G37*
G36*
X470980D02*
X464679D01*
Y269776D01*
X470980D01*
Y276571D01*
D02*
G37*
G36*
X446152Y272980D02*
X441306D01*
Y268348D01*
X446152D01*
Y272980D01*
D02*
G37*
G36*
X438766D02*
X433919D01*
Y268348D01*
X438766D01*
Y272980D01*
D02*
G37*
G36*
X313842Y269980D02*
X311536D01*
Y267674D01*
X312413Y268037D01*
X313479Y269103D01*
X313842Y269980D01*
D02*
G37*
G36*
X308996D02*
X306690D01*
X307053Y269103D01*
X308119Y268037D01*
X308996Y267674D01*
Y269980D01*
D02*
G37*
G36*
X479821Y267236D02*
X473520D01*
Y260440D01*
X479821D01*
Y267236D01*
D02*
G37*
G36*
X470980D02*
X464679D01*
Y260440D01*
X470980D01*
Y267236D01*
D02*
G37*
G36*
X33000Y263114D02*
X30770D01*
Y255770D01*
X41446D01*
X41320Y256729D01*
X40460Y258807D01*
X39091Y260591D01*
X37307Y261960D01*
X35229Y262820D01*
X33000Y263114D01*
D02*
G37*
G36*
X28230D02*
X26000D01*
X23771Y262820D01*
X21693Y261960D01*
X19909Y260591D01*
X18540Y258807D01*
X17680Y256729D01*
X17553Y255770D01*
X28230D01*
Y263114D01*
D02*
G37*
G36*
X456571Y260571D02*
X449776D01*
Y254270D01*
X456571D01*
Y260571D01*
D02*
G37*
G36*
X447236D02*
X440440D01*
Y254270D01*
X447236D01*
Y260571D01*
D02*
G37*
G36*
X323996Y249826D02*
X323119Y249463D01*
X322766Y249110D01*
X322413Y249463D01*
X321536Y249826D01*
Y246250D01*
Y242674D01*
X322413Y243037D01*
X322766Y243390D01*
X323119Y243037D01*
X323996Y242674D01*
Y246250D01*
Y249826D01*
D02*
G37*
G36*
X328996D02*
X328119Y249463D01*
X327766Y249109D01*
X327413Y249463D01*
X326536Y249826D01*
Y246250D01*
Y242674D01*
X327413Y243037D01*
X327766Y243390D01*
X328119Y243037D01*
X328996Y242674D01*
Y246250D01*
Y249826D01*
D02*
G37*
G36*
X200854Y252104D02*
X197313D01*
Y249020D01*
X200854D01*
Y252104D01*
D02*
G37*
G36*
X194773D02*
X191232D01*
Y249020D01*
X194773D01*
Y252104D01*
D02*
G37*
G36*
X331536Y249826D02*
Y247520D01*
X333842D01*
X333479Y248397D01*
X332413Y249463D01*
X331536Y249826D01*
D02*
G37*
G36*
X318996D02*
X318119Y249463D01*
X317053Y248397D01*
X316690Y247520D01*
X318996D01*
Y249826D01*
D02*
G37*
G36*
X311536D02*
Y247520D01*
X313842D01*
X313479Y248397D01*
X312413Y249463D01*
X311536Y249826D01*
D02*
G37*
G36*
X308996D02*
X308119Y249463D01*
X307053Y248397D01*
X306690Y247520D01*
X308996D01*
Y249826D01*
D02*
G37*
G36*
X41446Y253230D02*
X30770D01*
Y245886D01*
X33000D01*
X35229Y246180D01*
X37307Y247040D01*
X39091Y248409D01*
X40460Y250193D01*
X41320Y252271D01*
X41446Y253230D01*
D02*
G37*
G36*
X28230D02*
X17553D01*
X17680Y252271D01*
X18540Y250193D01*
X19909Y248409D01*
X21693Y247040D01*
X23771Y246180D01*
X26000Y245886D01*
X28230D01*
Y253230D01*
D02*
G37*
G36*
X57789Y254290D02*
X57770D01*
Y245770D01*
X66290D01*
Y245789D01*
X65623Y248279D01*
X64334Y250511D01*
X62511Y252334D01*
X60279Y253623D01*
X57789Y254290D01*
D02*
G37*
G36*
X55230D02*
X55211D01*
X52721Y253623D01*
X50489Y252334D01*
X48666Y250511D01*
X47377Y248279D01*
X46710Y245789D01*
Y245770D01*
X55230D01*
Y254290D01*
D02*
G37*
G36*
X456571Y251730D02*
X449776D01*
Y245429D01*
X456571D01*
Y251730D01*
D02*
G37*
G36*
X447236D02*
X440440D01*
Y245429D01*
X447236D01*
Y251730D01*
D02*
G37*
G36*
X168135Y252991D02*
X166865D01*
X165874Y252794D01*
X165034Y252232D01*
X164472Y251392D01*
X164275Y250401D01*
Y247099D01*
X164472Y246108D01*
X165034Y245268D01*
X165874Y244706D01*
X166865Y244509D01*
X168135D01*
X169126Y244706D01*
X169966Y245268D01*
X170528Y246108D01*
X170725Y247099D01*
Y250401D01*
X170528Y251392D01*
X169966Y252232D01*
X169126Y252794D01*
X168135Y252991D01*
D02*
G37*
G36*
X200854Y246480D02*
X197313D01*
Y243396D01*
X200854D01*
Y246480D01*
D02*
G37*
G36*
X194773D02*
X191232D01*
Y243396D01*
X194773D01*
Y246480D01*
D02*
G37*
G36*
X333842Y244980D02*
X331536D01*
Y242674D01*
X332413Y243037D01*
X333479Y244103D01*
X333842Y244980D01*
D02*
G37*
G36*
X318996D02*
X316690D01*
X317053Y244103D01*
X318119Y243037D01*
X318996Y242674D01*
Y244980D01*
D02*
G37*
G36*
X313842D02*
X311536D01*
Y242674D01*
X312413Y243037D01*
X313479Y244103D01*
X313842Y244980D01*
D02*
G37*
G36*
X308996D02*
X306690D01*
X307053Y244103D01*
X308119Y243037D01*
X308996Y242674D01*
Y244980D01*
D02*
G37*
G36*
X294463Y247096D02*
X292037D01*
X289797Y246168D01*
X288082Y244453D01*
X287154Y242213D01*
Y239787D01*
X288082Y237547D01*
X289797Y235832D01*
X292037Y234904D01*
X294463D01*
X296703Y235832D01*
X298418Y237547D01*
X299346Y239787D01*
Y242213D01*
X298418Y244453D01*
X296703Y246168D01*
X294463Y247096D01*
D02*
G37*
G36*
X66290Y243230D02*
X56500D01*
X46710D01*
Y243211D01*
X47377Y240721D01*
X48666Y238489D01*
X49173Y237982D01*
X48782Y237040D01*
X46960D01*
Y233770D01*
X56250D01*
X65540D01*
Y237040D01*
X64218D01*
X63828Y237982D01*
X64334Y238489D01*
X65623Y240721D01*
X66290Y243211D01*
Y243230D01*
D02*
G37*
G36*
X460331Y236902D02*
X455484D01*
Y232270D01*
X460331D01*
Y236902D01*
D02*
G37*
G36*
X452944D02*
X448098D01*
Y232270D01*
X452944D01*
Y236902D01*
D02*
G37*
G36*
X41540Y239540D02*
X30770D01*
Y230770D01*
X41540D01*
Y239540D01*
D02*
G37*
G36*
X28230D02*
X17460D01*
Y230770D01*
X28230D01*
Y239540D01*
D02*
G37*
G36*
X439152Y232081D02*
X435520D01*
Y228234D01*
X439152D01*
Y232081D01*
D02*
G37*
G36*
X432980D02*
X429348D01*
Y228234D01*
X432980D01*
Y232081D01*
D02*
G37*
G36*
X399224Y240379D02*
X396799D01*
X394558Y239451D01*
X392843Y237736D01*
X391915Y235496D01*
Y233071D01*
X392843Y230830D01*
X394558Y229115D01*
X396799Y228187D01*
X399224D01*
X401464Y229115D01*
X403179Y230830D01*
X404107Y233071D01*
Y235496D01*
X403179Y237736D01*
X401464Y239451D01*
X399224Y240379D01*
D02*
G37*
G36*
X385919Y240328D02*
X383493D01*
X381253Y239400D01*
X379538Y237686D01*
X378610Y235445D01*
Y233020D01*
X379538Y230779D01*
X381253Y229065D01*
X383493Y228136D01*
X385919D01*
X388159Y229065D01*
X389874Y230779D01*
X390802Y233020D01*
Y235445D01*
X389874Y237686D01*
X388159Y239400D01*
X385919Y240328D01*
D02*
G37*
G36*
X352061Y236071D02*
X345024D01*
Y228020D01*
X352061D01*
Y236071D01*
D02*
G37*
G36*
X342484D02*
X335447D01*
Y228020D01*
X342484D01*
Y236071D01*
D02*
G37*
G36*
X65540Y231230D02*
X57520D01*
Y227960D01*
X65540D01*
Y231230D01*
D02*
G37*
G36*
X54980D02*
X46960D01*
Y227960D01*
X54980D01*
Y231230D01*
D02*
G37*
G36*
X369831Y230402D02*
X365984D01*
Y226770D01*
X369831D01*
Y230402D01*
D02*
G37*
G36*
X363444D02*
X359598D01*
Y226770D01*
X363444D01*
Y230402D01*
D02*
G37*
G36*
X460331Y229730D02*
X455484D01*
Y225098D01*
X460331D01*
Y229730D01*
D02*
G37*
G36*
X452944D02*
X448098D01*
Y225098D01*
X452944D01*
Y229730D01*
D02*
G37*
G36*
X287463Y235096D02*
X285037D01*
X282797Y234168D01*
X281082Y232453D01*
X280154Y230213D01*
Y227787D01*
X281082Y225547D01*
X282797Y223832D01*
X285037Y222904D01*
X287463D01*
X289703Y223832D01*
X291418Y225547D01*
X292346Y227787D01*
Y230213D01*
X291418Y232453D01*
X289703Y234168D01*
X287463Y235096D01*
D02*
G37*
G36*
X316652Y227152D02*
X311806D01*
Y222520D01*
X316652D01*
Y227152D01*
D02*
G37*
G36*
X309266D02*
X304419D01*
Y222520D01*
X309266D01*
Y227152D01*
D02*
G37*
G36*
X439152Y225694D02*
X435520D01*
Y221848D01*
X439152D01*
Y225694D01*
D02*
G37*
G36*
X432980D02*
X429348D01*
Y221848D01*
X432980D01*
Y225694D01*
D02*
G37*
G36*
X369831Y224230D02*
X365984D01*
Y220598D01*
X369831D01*
Y224230D01*
D02*
G37*
G36*
X363444D02*
X359598D01*
Y220598D01*
X363444D01*
Y224230D01*
D02*
G37*
G36*
X127604Y220518D02*
X125020D01*
Y217477D01*
X127604D01*
Y220518D01*
D02*
G37*
G36*
X122480D02*
X119896D01*
Y217477D01*
X122480D01*
Y220518D01*
D02*
G37*
G36*
X352061Y225480D02*
X345024D01*
Y217429D01*
X352061D01*
Y225480D01*
D02*
G37*
G36*
X342484D02*
X335447D01*
Y217429D01*
X342484D01*
Y225480D01*
D02*
G37*
G36*
X419071Y223804D02*
X412770D01*
Y217009D01*
X419071D01*
Y223804D01*
D02*
G37*
G36*
X410230D02*
X403929D01*
Y217009D01*
X410230D01*
Y223804D01*
D02*
G37*
G36*
X316652Y219980D02*
X311806D01*
Y215348D01*
X316652D01*
Y219980D01*
D02*
G37*
G36*
X309266D02*
X304419D01*
Y215348D01*
X309266D01*
Y219980D01*
D02*
G37*
G36*
X154967Y216774D02*
X146962D01*
Y213695D01*
X159064D01*
X158985Y214089D01*
X158042Y215500D01*
X156632Y216443D01*
X154967Y216774D01*
D02*
G37*
G36*
X144423D02*
X136418D01*
X134753Y216443D01*
X133343Y215500D01*
X132400Y214089D01*
X132322Y213695D01*
X144423D01*
Y216774D01*
D02*
G37*
G36*
X213713Y225346D02*
X211287D01*
X209047Y224418D01*
X207332Y222703D01*
X206404Y220463D01*
Y218037D01*
X207332Y215797D01*
X209047Y214082D01*
X211287Y213154D01*
X213713D01*
X215953Y214082D01*
X217668Y215797D01*
X218596Y218037D01*
Y220463D01*
X217668Y222703D01*
X215953Y224418D01*
X213713Y225346D01*
D02*
G37*
G36*
X393902Y217081D02*
X389270D01*
Y212234D01*
X393902D01*
Y217081D01*
D02*
G37*
G36*
X386730D02*
X382098D01*
Y212234D01*
X386730D01*
Y217081D01*
D02*
G37*
G36*
X127604Y214937D02*
X125020D01*
Y211896D01*
X127604D01*
Y214937D01*
D02*
G37*
G36*
X122480D02*
X119896D01*
Y211896D01*
X122480D01*
Y214937D01*
D02*
G37*
G36*
X41540Y228230D02*
X29500D01*
X17460D01*
Y219460D01*
Y210770D01*
X29500D01*
X41540D01*
Y219460D01*
Y228230D01*
D02*
G37*
G36*
X159064Y211155D02*
X146962D01*
Y208076D01*
X154967D01*
X156632Y208407D01*
X158042Y209350D01*
X158985Y210761D01*
X159064Y211155D01*
D02*
G37*
G36*
X144423D02*
X132322D01*
X132400Y210761D01*
X133343Y209350D01*
X134753Y208407D01*
X136418Y208076D01*
X144423D01*
Y211155D01*
D02*
G37*
G36*
X419071Y214469D02*
X412770D01*
Y207673D01*
X419071D01*
Y214469D01*
D02*
G37*
G36*
X410230D02*
X403929D01*
Y207673D01*
X410230D01*
Y214469D01*
D02*
G37*
G36*
X202967Y210424D02*
X194963D01*
Y207345D01*
X207064D01*
X206985Y207739D01*
X206042Y209150D01*
X204632Y210093D01*
X202967Y210424D01*
D02*
G37*
G36*
X192423D02*
X184417D01*
X182753Y210093D01*
X181343Y209150D01*
X180400Y207739D01*
X180322Y207345D01*
X192423D01*
Y210424D01*
D02*
G37*
G36*
X551640Y209290D02*
X547020D01*
Y206520D01*
X551640D01*
Y209290D01*
D02*
G37*
G36*
X544480D02*
X539860D01*
Y206520D01*
X544480D01*
Y209290D01*
D02*
G37*
G36*
X375963Y217846D02*
X373537D01*
X371297Y216918D01*
X369582Y215203D01*
X368654Y212963D01*
Y210537D01*
X369582Y208297D01*
X371297Y206582D01*
X373537Y205654D01*
X375963D01*
X378203Y206582D01*
X379918Y208297D01*
X380846Y210537D01*
Y212963D01*
X379918Y215203D01*
X378203Y216918D01*
X375963Y217846D01*
D02*
G37*
G36*
X393902Y209694D02*
X389270D01*
Y204848D01*
X393902D01*
Y209694D01*
D02*
G37*
G36*
X386730D02*
X382098D01*
Y204848D01*
X386730D01*
Y209694D01*
D02*
G37*
G36*
X102855Y207600D02*
X102170D01*
Y204770D01*
X105897D01*
X105714Y205689D01*
X105043Y206693D01*
X104039Y207364D01*
X102855Y207600D01*
D02*
G37*
G36*
X99630D02*
X98945D01*
X97761Y207364D01*
X96757Y206693D01*
X96086Y205689D01*
X95903Y204770D01*
X99630D01*
Y207600D01*
D02*
G37*
G36*
X207064Y204805D02*
X194963D01*
Y201726D01*
X202967D01*
X204632Y202057D01*
X206042Y203000D01*
X206985Y204411D01*
X207064Y204805D01*
D02*
G37*
G36*
X192423D02*
X180322D01*
X180400Y204411D01*
X181343Y203000D01*
X182753Y202057D01*
X184417Y201726D01*
X192423D01*
Y204805D01*
D02*
G37*
G36*
X551640Y203980D02*
X547020D01*
Y201210D01*
X551640D01*
Y203980D01*
D02*
G37*
G36*
X544480D02*
X539860D01*
Y201210D01*
X544480D01*
Y203980D01*
D02*
G37*
G36*
X41540Y208230D02*
X30770D01*
Y199460D01*
X41540D01*
Y208230D01*
D02*
G37*
G36*
X28230D02*
X17460D01*
Y199460D01*
X28230D01*
Y208230D01*
D02*
G37*
G36*
X105897Y202230D02*
X102170D01*
Y199401D01*
X102855D01*
X104039Y199636D01*
X105043Y200307D01*
X105714Y201311D01*
X105897Y202230D01*
D02*
G37*
G36*
X99630D02*
X95903D01*
X96086Y201311D01*
X96757Y200307D01*
X97761Y199636D01*
X98945Y199401D01*
X99630D01*
Y202230D01*
D02*
G37*
G36*
X292713Y211096D02*
X290287D01*
X288047Y210168D01*
X286332Y208453D01*
X285404Y206213D01*
Y203787D01*
X286332Y201547D01*
X288047Y199832D01*
X290287Y198904D01*
X292713D01*
X294953Y199832D01*
X296668Y201547D01*
X297596Y203787D01*
Y206213D01*
X296668Y208453D01*
X294953Y210168D01*
X292713Y211096D01*
D02*
G37*
G36*
X57789Y204290D02*
X57770D01*
Y195770D01*
X66290D01*
Y195789D01*
X65623Y198279D01*
X64334Y200511D01*
X62511Y202334D01*
X60279Y203623D01*
X57789Y204290D01*
D02*
G37*
G36*
X55230D02*
X55211D01*
X52721Y203623D01*
X50489Y202334D01*
X48666Y200511D01*
X47377Y198279D01*
X46710Y195789D01*
Y195770D01*
X55230D01*
Y204290D01*
D02*
G37*
G36*
X635152Y198331D02*
X630520D01*
Y193484D01*
X635152D01*
Y198331D01*
D02*
G37*
G36*
X627980D02*
X623348D01*
Y193484D01*
X627980D01*
Y198331D01*
D02*
G37*
G36*
X457902Y197117D02*
X454270D01*
Y193270D01*
X457902D01*
Y197117D01*
D02*
G37*
G36*
X451730D02*
X448098D01*
Y193270D01*
X451730D01*
Y197117D01*
D02*
G37*
G36*
X365963Y204418D02*
X363537D01*
X361297Y203490D01*
X359582Y201775D01*
X358654Y199535D01*
Y197110D01*
X359582Y194869D01*
X361297Y193154D01*
X363537Y192226D01*
X365963D01*
X368203Y193154D01*
X369918Y194869D01*
X370846Y197110D01*
Y199535D01*
X369918Y201775D01*
X368203Y203490D01*
X365963Y204418D01*
D02*
G37*
G36*
X275060Y197071D02*
X268264D01*
Y190770D01*
X275060D01*
Y197071D01*
D02*
G37*
G36*
X265724D02*
X258929D01*
Y190770D01*
X265724D01*
Y197071D01*
D02*
G37*
G36*
X614601Y196816D02*
X608770D01*
Y190753D01*
X614601D01*
Y196816D01*
D02*
G37*
G36*
X606230D02*
X600399D01*
Y190753D01*
X606230D01*
Y196816D01*
D02*
G37*
G36*
X228178Y193768D02*
X225594D01*
Y190727D01*
X228178D01*
Y193768D01*
D02*
G37*
G36*
X223054D02*
X220470D01*
Y190727D01*
X223054D01*
Y193768D01*
D02*
G37*
G36*
X592040Y195290D02*
X586270D01*
Y190270D01*
X592040D01*
Y195290D01*
D02*
G37*
G36*
X583730D02*
X577960D01*
Y190270D01*
X583730D01*
Y195290D01*
D02*
G37*
G36*
X457902Y190730D02*
X454270D01*
Y186883D01*
X457902D01*
Y190730D01*
D02*
G37*
G36*
X451730D02*
X448098D01*
Y186883D01*
X451730D01*
Y190730D01*
D02*
G37*
G36*
X635152Y190944D02*
X630520D01*
Y186098D01*
X635152D01*
Y190944D01*
D02*
G37*
G36*
X627980D02*
X623348D01*
Y186098D01*
X627980D01*
Y190944D01*
D02*
G37*
G36*
X107224Y188854D02*
X103684D01*
Y185770D01*
X107224D01*
Y188854D01*
D02*
G37*
G36*
X101144D02*
X97603D01*
Y185770D01*
X101144D01*
Y188854D01*
D02*
G37*
G36*
X33000Y193114D02*
X30770D01*
Y185770D01*
X41446D01*
X41320Y186729D01*
X40460Y188807D01*
X39091Y190591D01*
X37307Y191960D01*
X35229Y192820D01*
X33000Y193114D01*
D02*
G37*
G36*
X28230D02*
X26000D01*
X23771Y192820D01*
X21693Y191960D01*
X19909Y190591D01*
X18540Y188807D01*
X17680Y186729D01*
X17553Y185770D01*
X28230D01*
Y193114D01*
D02*
G37*
G36*
X228178Y188187D02*
X225594D01*
Y185146D01*
X228178D01*
Y188187D01*
D02*
G37*
G36*
X223054D02*
X220470D01*
Y185146D01*
X223054D01*
Y188187D01*
D02*
G37*
G36*
X124151Y191225D02*
X120849D01*
X119858Y191028D01*
X119018Y190466D01*
X118456Y189626D01*
X118259Y188635D01*
Y187365D01*
X118456Y186374D01*
X119018Y185534D01*
X119858Y184972D01*
X120849Y184775D01*
X124151D01*
X125142Y184972D01*
X125982Y185534D01*
X126544Y186374D01*
X126741Y187365D01*
Y188635D01*
X126544Y189626D01*
X125982Y190466D01*
X125142Y191028D01*
X124151Y191225D01*
D02*
G37*
G36*
X66290Y193230D02*
X57770D01*
Y184710D01*
X57789D01*
X60279Y185377D01*
X62511Y186666D01*
X64334Y188489D01*
X65623Y190721D01*
X66290Y193211D01*
Y193230D01*
D02*
G37*
G36*
X55230D02*
X46710D01*
Y193211D01*
X47377Y190721D01*
X48666Y188489D01*
X50489Y186666D01*
X52721Y185377D01*
X55211Y184710D01*
X55230D01*
Y193230D01*
D02*
G37*
G36*
X592040Y187730D02*
X586270D01*
Y182710D01*
X592040D01*
Y187730D01*
D02*
G37*
G36*
X583730D02*
X577960D01*
Y182710D01*
X583730D01*
Y187730D01*
D02*
G37*
G36*
X614601Y188213D02*
X608770D01*
Y182149D01*
X614601D01*
Y188213D01*
D02*
G37*
G36*
X606230D02*
X600399D01*
Y182149D01*
X606230D01*
Y188213D01*
D02*
G37*
G36*
X275060Y188230D02*
X268264D01*
Y181929D01*
X275060D01*
Y188230D01*
D02*
G37*
G36*
X265724D02*
X258929D01*
Y181929D01*
X265724D01*
Y188230D01*
D02*
G37*
G36*
X406039Y193422D02*
X403614D01*
X401373Y192494D01*
X399658Y190779D01*
X398730Y188539D01*
Y186114D01*
X399658Y183873D01*
X401373Y182158D01*
X403614Y181230D01*
X406039D01*
X408279Y182158D01*
X409994Y183873D01*
X410922Y186114D01*
Y188539D01*
X409994Y190779D01*
X408279Y192494D01*
X406039Y193422D01*
D02*
G37*
G36*
X107224Y183230D02*
X103684D01*
Y180146D01*
X107224D01*
Y183230D01*
D02*
G37*
G36*
X101144D02*
X97603D01*
Y180146D01*
X101144D01*
Y183230D01*
D02*
G37*
G36*
X89540Y183290D02*
X85020D01*
Y178520D01*
X89540D01*
Y183290D01*
D02*
G37*
G36*
X82480D02*
X77960D01*
Y178520D01*
X82480D01*
Y183290D01*
D02*
G37*
G36*
X41446Y183230D02*
X30770D01*
Y175886D01*
X33000D01*
X35229Y176180D01*
X37307Y177040D01*
X39091Y178409D01*
X40460Y180193D01*
X41320Y182271D01*
X41446Y183230D01*
D02*
G37*
G36*
X28230D02*
X17553D01*
X17680Y182271D01*
X18540Y180193D01*
X19909Y178409D01*
X21693Y177040D01*
X23771Y176180D01*
X26000Y175886D01*
X28230D01*
Y183230D01*
D02*
G37*
G36*
X89540Y175980D02*
X85020D01*
Y171210D01*
X89540D01*
Y175980D01*
D02*
G37*
G36*
X82480D02*
X77960D01*
Y171210D01*
X82480D01*
Y175980D01*
D02*
G37*
G36*
X565290Y160040D02*
X561020D01*
Y156770D01*
X565290D01*
Y160040D01*
D02*
G37*
G36*
X558480D02*
X554210D01*
Y156770D01*
X558480D01*
Y160040D01*
D02*
G37*
G36*
X479649Y165893D02*
X477644D01*
X475792Y165126D01*
X474374Y163708D01*
X473607Y161856D01*
Y159851D01*
X474374Y157998D01*
X475792Y156581D01*
X477644Y155813D01*
X479649D01*
X481502Y156581D01*
X482919Y157998D01*
X483687Y159851D01*
Y161856D01*
X482919Y163708D01*
X481502Y165126D01*
X479649Y165893D01*
D02*
G37*
G36*
X355740Y154000D02*
X351120D01*
Y151230D01*
X355740D01*
Y154000D01*
D02*
G37*
G36*
X348580D02*
X343960D01*
Y151230D01*
X348580D01*
Y154000D01*
D02*
G37*
G36*
X312351Y153816D02*
X306520D01*
Y147753D01*
X312351D01*
Y153816D01*
D02*
G37*
G36*
X303980D02*
X298149D01*
Y147753D01*
X303980D01*
Y153816D01*
D02*
G37*
G36*
X531790Y156040D02*
X525270D01*
Y146770D01*
X531790D01*
Y156040D01*
D02*
G37*
G36*
X522730D02*
X516210D01*
Y146770D01*
X522730D01*
Y156040D01*
D02*
G37*
G36*
X355740Y148690D02*
X351120D01*
Y145920D01*
X355740D01*
Y148690D01*
D02*
G37*
G36*
X348580D02*
X343960D01*
Y145920D01*
X348580D01*
Y148690D01*
D02*
G37*
G36*
X73040Y149740D02*
X68520D01*
Y145270D01*
X73040D01*
Y149740D01*
D02*
G37*
G36*
X65980D02*
X61460D01*
Y145270D01*
X65980D01*
Y149740D01*
D02*
G37*
G36*
X331652Y149831D02*
X327020D01*
Y144984D01*
X331652D01*
Y149831D01*
D02*
G37*
G36*
X324480D02*
X319847D01*
Y144984D01*
X324480D01*
Y149831D01*
D02*
G37*
G36*
X565290Y154230D02*
X559750D01*
X554210D01*
Y151855D01*
X552162Y151006D01*
X550447Y149291D01*
X549519Y147051D01*
Y144626D01*
X550447Y142385D01*
X552162Y140670D01*
X554402Y139742D01*
X556828D01*
X559068Y140670D01*
X560783Y142385D01*
X561711Y144626D01*
Y147051D01*
X560783Y149291D01*
X560057Y150018D01*
X560447Y150960D01*
X565290D01*
Y154230D01*
D02*
G37*
G36*
X312351Y145213D02*
X306520D01*
Y139149D01*
X312351D01*
Y145213D01*
D02*
G37*
G36*
X303980D02*
X298149D01*
Y139149D01*
X303980D01*
Y145213D01*
D02*
G37*
G36*
X73040Y142730D02*
X68520D01*
Y138260D01*
X73040D01*
Y142730D01*
D02*
G37*
G36*
X65980D02*
X61460D01*
Y138260D01*
X65980D01*
Y142730D01*
D02*
G37*
G36*
X331652Y142444D02*
X327020D01*
Y137598D01*
X331652D01*
Y142444D01*
D02*
G37*
G36*
X324480D02*
X319847D01*
Y137598D01*
X324480D01*
Y142444D01*
D02*
G37*
G36*
X531790Y144230D02*
X525270D01*
Y134960D01*
X531790D01*
Y144230D01*
D02*
G37*
G36*
X522730D02*
X516210D01*
Y134960D01*
X522730D01*
Y144230D01*
D02*
G37*
G36*
X73767Y134104D02*
X70727D01*
Y131520D01*
X73767D01*
Y134104D01*
D02*
G37*
G36*
X68187D02*
X65146D01*
Y131520D01*
X68187D01*
Y134104D01*
D02*
G37*
G36*
X152140Y132540D02*
X147520D01*
Y129770D01*
X152140D01*
Y132540D01*
D02*
G37*
G36*
X144980D02*
X140360D01*
Y129770D01*
X144980D01*
Y132540D01*
D02*
G37*
G36*
X73767Y128980D02*
X70727D01*
Y126396D01*
X73767D01*
Y128980D01*
D02*
G37*
G36*
X68187D02*
X65146D01*
Y126396D01*
X68187D01*
Y128980D01*
D02*
G37*
G36*
X117902Y130152D02*
X113770D01*
Y125806D01*
X117902D01*
Y130152D01*
D02*
G37*
G36*
X111230D02*
X107098D01*
Y125806D01*
X111230D01*
Y130152D01*
D02*
G37*
G36*
X152140Y127230D02*
X147520D01*
Y124460D01*
X152140D01*
Y127230D01*
D02*
G37*
G36*
X144980D02*
X140360D01*
Y124460D01*
X144980D01*
Y127230D01*
D02*
G37*
G36*
X117902Y123266D02*
X113770D01*
Y118919D01*
X117902D01*
Y123266D01*
D02*
G37*
G36*
X111230D02*
X107098D01*
Y118919D01*
X111230D01*
Y123266D01*
D02*
G37*
G36*
X72474Y118354D02*
X68434D01*
Y114770D01*
X72474D01*
Y118354D01*
D02*
G37*
G36*
X65894D02*
X61853D01*
Y114770D01*
X65894D01*
Y118354D01*
D02*
G37*
G36*
X67164Y113500D02*
D01*
D01*
D01*
D02*
G37*
G36*
X280040Y118290D02*
X274270D01*
Y113270D01*
X280040D01*
Y118290D01*
D02*
G37*
G36*
X271730D02*
X265960D01*
Y113270D01*
X271730D01*
Y118290D01*
D02*
G37*
G36*
X203152Y117081D02*
X199020D01*
Y112734D01*
X203152D01*
Y117081D01*
D02*
G37*
G36*
X196480D02*
X192348D01*
Y112734D01*
X196480D01*
Y117081D01*
D02*
G37*
G36*
X179902Y116545D02*
X175270D01*
Y111699D01*
X179902D01*
Y116545D01*
D02*
G37*
G36*
X172730D02*
X168098D01*
Y111699D01*
X172730D01*
Y116545D01*
D02*
G37*
G36*
X72474Y112230D02*
X68434D01*
Y108646D01*
X72474D01*
Y112230D01*
D02*
G37*
G36*
X65894D02*
X61853D01*
Y108646D01*
X65894D01*
Y112230D01*
D02*
G37*
G36*
X244402Y109652D02*
X240791D01*
Y106020D01*
X244402D01*
Y109652D01*
D02*
G37*
G36*
X238251D02*
X234641D01*
Y106020D01*
X238251D01*
Y109652D01*
D02*
G37*
G36*
X203152Y110194D02*
X199020D01*
Y105848D01*
X203152D01*
Y110194D01*
D02*
G37*
G36*
X196480D02*
X192348D01*
Y105848D01*
X196480D01*
Y110194D01*
D02*
G37*
G36*
X280040Y110730D02*
X274270D01*
Y105710D01*
X280040D01*
Y110730D01*
D02*
G37*
G36*
X271730D02*
X265960D01*
Y105710D01*
X271730D01*
Y110730D01*
D02*
G37*
G36*
X179902Y109159D02*
X175270D01*
Y104312D01*
X179902D01*
Y109159D01*
D02*
G37*
G36*
X172730D02*
X168098D01*
Y104312D01*
X172730D01*
Y109159D01*
D02*
G37*
G36*
X343713Y127596D02*
X341287D01*
X339047Y126668D01*
X337332Y124953D01*
X336404Y122713D01*
Y120287D01*
X337332Y118047D01*
X339047Y116332D01*
X340098Y115897D01*
Y114793D01*
X339797Y114668D01*
X338082Y112953D01*
X337154Y110713D01*
Y108287D01*
X338082Y106047D01*
X339797Y104332D01*
X342037Y103404D01*
X344463D01*
X346703Y104332D01*
X348418Y106047D01*
X349346Y108287D01*
Y110713D01*
X348418Y112953D01*
X346703Y114668D01*
X345652Y115103D01*
Y116207D01*
X345953Y116332D01*
X347668Y118047D01*
X348596Y120287D01*
Y122713D01*
X347668Y124953D01*
X345953Y126668D01*
X343713Y127596D01*
D02*
G37*
G36*
X244402Y103480D02*
X240791D01*
Y99848D01*
X244402D01*
Y103480D01*
D02*
G37*
G36*
X238251D02*
X234641D01*
Y99848D01*
X238251D01*
Y103480D01*
D02*
G37*
G36*
X181390Y101140D02*
X177520D01*
Y97270D01*
X181390D01*
Y101140D01*
D02*
G37*
G36*
X174980D02*
X171110D01*
Y97270D01*
X174980D01*
Y101140D01*
D02*
G37*
G36*
X380790Y98790D02*
X376520D01*
Y95520D01*
X380790D01*
Y98790D01*
D02*
G37*
G36*
X373980D02*
X369710D01*
Y95520D01*
X373980D01*
Y98790D01*
D02*
G37*
G36*
X337463Y103596D02*
X335037D01*
X332797Y102668D01*
X331082Y100953D01*
X330154Y98713D01*
Y96287D01*
X331082Y94047D01*
X332797Y92332D01*
X335037Y91404D01*
X337463D01*
X339703Y92332D01*
X341418Y94047D01*
X342346Y96287D01*
Y98713D01*
X341418Y100953D01*
X339703Y102668D01*
X337463Y103596D01*
D02*
G37*
G36*
X181390Y94730D02*
X177520D01*
Y90860D01*
X181390D01*
Y94730D01*
D02*
G37*
G36*
X174980D02*
X171110D01*
Y90860D01*
X174980D01*
Y94730D01*
D02*
G37*
G36*
X380790Y92980D02*
X376520D01*
Y89710D01*
X380790D01*
Y92980D01*
D02*
G37*
G36*
X373980D02*
X369710D01*
Y89710D01*
X373980D01*
Y92980D01*
D02*
G37*
G36*
X619290Y87040D02*
X615020D01*
Y82770D01*
X619290D01*
Y87040D01*
D02*
G37*
G36*
X612480D02*
X608210D01*
Y82770D01*
X612480D01*
Y87040D01*
D02*
G37*
G36*
X183117Y83402D02*
X178770D01*
Y79270D01*
X183117D01*
Y83402D01*
D02*
G37*
G36*
X176230D02*
X171883D01*
Y79270D01*
X176230D01*
Y83402D01*
D02*
G37*
G36*
X143054Y84821D02*
X136259D01*
Y78520D01*
X143054D01*
Y84821D01*
D02*
G37*
G36*
X133719D02*
X126923D01*
Y78520D01*
X133719D01*
Y84821D01*
D02*
G37*
G36*
X536040Y82540D02*
X531020D01*
Y76770D01*
X536040D01*
Y82540D01*
D02*
G37*
G36*
X528480D02*
X523460D01*
Y76770D01*
X528480D01*
Y82540D01*
D02*
G37*
G36*
X458790Y81040D02*
X453020D01*
Y76020D01*
X458790D01*
Y81040D01*
D02*
G37*
G36*
X450480D02*
X444710D01*
Y76020D01*
X450480D01*
Y81040D01*
D02*
G37*
G36*
X619290Y80230D02*
X615020D01*
Y75960D01*
X619290D01*
Y80230D01*
D02*
G37*
G36*
X612480D02*
X608210D01*
Y75960D01*
X612480D01*
Y80230D01*
D02*
G37*
G36*
X419540Y80290D02*
X413770D01*
Y75270D01*
X419540D01*
Y80290D01*
D02*
G37*
G36*
X411230D02*
X405460D01*
Y75270D01*
X411230D01*
Y80290D01*
D02*
G37*
G36*
X278290Y77290D02*
X273520D01*
Y73520D01*
X278290D01*
Y77290D01*
D02*
G37*
G36*
X270980D02*
X266210D01*
Y73520D01*
X270980D01*
Y77290D01*
D02*
G37*
G36*
X183117Y76730D02*
X178770D01*
Y72598D01*
X183117D01*
Y76730D01*
D02*
G37*
G36*
X176230D02*
X171883D01*
Y72598D01*
X176230D01*
Y76730D01*
D02*
G37*
G36*
X143054Y75980D02*
X136259D01*
Y69679D01*
X143054D01*
Y75980D01*
D02*
G37*
G36*
X133719D02*
X126923D01*
Y69679D01*
X133719D01*
Y75980D01*
D02*
G37*
G36*
X458790Y73480D02*
X453020D01*
Y68460D01*
X458790D01*
Y73480D01*
D02*
G37*
G36*
X450480D02*
X444710D01*
Y68460D01*
X450480D01*
Y73480D01*
D02*
G37*
G36*
X536040Y74230D02*
X531020D01*
Y68460D01*
X536040D01*
Y74230D01*
D02*
G37*
G36*
X528480D02*
X523460D01*
Y68460D01*
X528480D01*
Y74230D01*
D02*
G37*
G36*
X419540Y72730D02*
X413770D01*
Y67710D01*
X419540D01*
Y72730D01*
D02*
G37*
G36*
X411230D02*
X405460D01*
Y67710D01*
X411230D01*
Y72730D01*
D02*
G37*
G36*
X278290Y70980D02*
X273520D01*
Y67210D01*
X278290D01*
Y70980D01*
D02*
G37*
G36*
X270980D02*
X266210D01*
Y67210D01*
X270980D01*
Y70980D01*
D02*
G37*
G36*
X354713Y73596D02*
X352287D01*
X350047Y72668D01*
X348332Y70953D01*
X347404Y68713D01*
Y66287D01*
X348332Y64047D01*
X350047Y62332D01*
X352287Y61404D01*
X354713D01*
X356953Y62332D01*
X358668Y64047D01*
X359596Y66287D01*
Y68713D01*
X358668Y70953D01*
X356953Y72668D01*
X354713Y73596D01*
D02*
G37*
G36*
X577963Y70596D02*
X575537D01*
X573297Y69668D01*
X571582Y67953D01*
X570654Y65713D01*
Y63287D01*
X571582Y61047D01*
X573297Y59332D01*
X575537Y58404D01*
X577963D01*
X580203Y59332D01*
X581918Y61047D01*
X582846Y63287D01*
Y65713D01*
X581918Y67953D01*
X580203Y69668D01*
X577963Y70596D01*
D02*
G37*
G36*
X501371Y57415D02*
X498629D01*
X495980Y56705D01*
X493605Y55334D01*
X491666Y53395D01*
X490295Y51020D01*
X489585Y48371D01*
Y45629D01*
X490295Y42980D01*
X491666Y40605D01*
X493605Y38666D01*
X495980Y37295D01*
X498629Y36585D01*
X501371D01*
X504020Y37295D01*
X506395Y38666D01*
X508334Y40605D01*
X509705Y42980D01*
X510415Y45629D01*
Y48371D01*
X509705Y51020D01*
X508334Y53395D01*
X506395Y55334D01*
X504020Y56705D01*
X501371Y57415D01*
D02*
G37*
G36*
X476371D02*
X473629D01*
X470980Y56705D01*
X468605Y55334D01*
X466666Y53395D01*
X465295Y51020D01*
X464585Y48371D01*
Y45629D01*
X465295Y42980D01*
X466666Y40605D01*
X468605Y38666D01*
X470980Y37295D01*
X473629Y36585D01*
X476371D01*
X479020Y37295D01*
X481395Y38666D01*
X483334Y40605D01*
X484705Y42980D01*
X485415Y45629D01*
Y48371D01*
X484705Y51020D01*
X483334Y53395D01*
X481395Y55334D01*
X479020Y56705D01*
X476371Y57415D01*
D02*
G37*
G36*
X451371D02*
X448629D01*
X445980Y56705D01*
X443605Y55334D01*
X441666Y53395D01*
X440295Y51020D01*
X439585Y48371D01*
Y45629D01*
X440295Y42980D01*
X441666Y40605D01*
X443605Y38666D01*
X445980Y37295D01*
X448629Y36585D01*
X451371D01*
X454020Y37295D01*
X456395Y38666D01*
X458334Y40605D01*
X459705Y42980D01*
X460415Y45629D01*
Y48371D01*
X459705Y51020D01*
X458334Y53395D01*
X456395Y55334D01*
X454020Y56705D01*
X451371Y57415D01*
D02*
G37*
G36*
X426371D02*
X423629D01*
X420980Y56705D01*
X418605Y55334D01*
X416666Y53395D01*
X415295Y51020D01*
X414585Y48371D01*
Y45629D01*
X415295Y42980D01*
X416666Y40605D01*
X418605Y38666D01*
X420980Y37295D01*
X423629Y36585D01*
X426371D01*
X429020Y37295D01*
X431395Y38666D01*
X433334Y40605D01*
X434705Y42980D01*
X435415Y45629D01*
Y48371D01*
X434705Y51020D01*
X433334Y53395D01*
X431395Y55334D01*
X429020Y56705D01*
X426371Y57415D01*
D02*
G37*
G36*
X401371D02*
X398629D01*
X395980Y56705D01*
X393605Y55334D01*
X391666Y53395D01*
X390295Y51020D01*
X389585Y48371D01*
Y45629D01*
X390295Y42980D01*
X391666Y40605D01*
X393605Y38666D01*
X395980Y37295D01*
X398629Y36585D01*
X401371D01*
X404020Y37295D01*
X406395Y38666D01*
X408334Y40605D01*
X409705Y42980D01*
X410415Y45629D01*
Y48371D01*
X409705Y51020D01*
X408334Y53395D01*
X406395Y55334D01*
X404020Y56705D01*
X401371Y57415D01*
D02*
G37*
G36*
X376371D02*
X373629D01*
X370980Y56705D01*
X368605Y55334D01*
X366666Y53395D01*
X365295Y51020D01*
X364585Y48371D01*
Y45629D01*
X365295Y42980D01*
X366666Y40605D01*
X368605Y38666D01*
X370980Y37295D01*
X373629Y36585D01*
X376371D01*
X379020Y37295D01*
X381395Y38666D01*
X383334Y40605D01*
X384705Y42980D01*
X385415Y45629D01*
Y48371D01*
X384705Y51020D01*
X383334Y53395D01*
X381395Y55334D01*
X379020Y56705D01*
X376371Y57415D01*
D02*
G37*
G36*
X351371D02*
X348629D01*
X345980Y56705D01*
X343605Y55334D01*
X341666Y53395D01*
X340295Y51020D01*
X339585Y48371D01*
Y45629D01*
X340295Y42980D01*
X341666Y40605D01*
X343605Y38666D01*
X345980Y37295D01*
X348629Y36585D01*
X351371D01*
X354020Y37295D01*
X356395Y38666D01*
X358334Y40605D01*
X359705Y42980D01*
X360415Y45629D01*
Y48371D01*
X359705Y51020D01*
X358334Y53395D01*
X356395Y55334D01*
X354020Y56705D01*
X351371Y57415D01*
D02*
G37*
G36*
X326371D02*
X323629D01*
X320980Y56705D01*
X318605Y55334D01*
X316666Y53395D01*
X315295Y51020D01*
X314585Y48371D01*
Y45629D01*
X315295Y42980D01*
X316666Y40605D01*
X318605Y38666D01*
X320980Y37295D01*
X323629Y36585D01*
X326371D01*
X329020Y37295D01*
X331395Y38666D01*
X333334Y40605D01*
X334705Y42980D01*
X335415Y45629D01*
Y48371D01*
X334705Y51020D01*
X333334Y53395D01*
X331395Y55334D01*
X329020Y56705D01*
X326371Y57415D01*
D02*
G37*
G36*
X301371D02*
X298629D01*
X295980Y56705D01*
X293605Y55334D01*
X291666Y53395D01*
X290295Y51020D01*
X289585Y48371D01*
Y45629D01*
X290295Y42980D01*
X291666Y40605D01*
X293605Y38666D01*
X295980Y37295D01*
X298629Y36585D01*
X301371D01*
X304020Y37295D01*
X306395Y38666D01*
X308334Y40605D01*
X309705Y42980D01*
X310415Y45629D01*
Y48371D01*
X309705Y51020D01*
X308334Y53395D01*
X306395Y55334D01*
X304020Y56705D01*
X301371Y57415D01*
D02*
G37*
G36*
X276371D02*
X273629D01*
X270980Y56705D01*
X268605Y55334D01*
X266666Y53395D01*
X265295Y51020D01*
X264585Y48371D01*
Y45629D01*
X265295Y42980D01*
X266666Y40605D01*
X268605Y38666D01*
X270980Y37295D01*
X273629Y36585D01*
X276371D01*
X279020Y37295D01*
X281395Y38666D01*
X283334Y40605D01*
X284705Y42980D01*
X285415Y45629D01*
Y48371D01*
X284705Y51020D01*
X283334Y53395D01*
X281395Y55334D01*
X279020Y56705D01*
X276371Y57415D01*
D02*
G37*
G36*
X251371D02*
X248629D01*
X245980Y56705D01*
X243605Y55334D01*
X241666Y53395D01*
X240295Y51020D01*
X239585Y48371D01*
Y45629D01*
X240295Y42980D01*
X241666Y40605D01*
X243605Y38666D01*
X245980Y37295D01*
X248629Y36585D01*
X251371D01*
X254020Y37295D01*
X256395Y38666D01*
X258334Y40605D01*
X259705Y42980D01*
X260415Y45629D01*
Y48371D01*
X259705Y51020D01*
X258334Y53395D01*
X256395Y55334D01*
X254020Y56705D01*
X251371Y57415D01*
D02*
G37*
G36*
X226371D02*
X223629D01*
X220980Y56705D01*
X218605Y55334D01*
X216666Y53395D01*
X215295Y51020D01*
X214585Y48371D01*
Y45629D01*
X215295Y42980D01*
X216666Y40605D01*
X218605Y38666D01*
X220980Y37295D01*
X223629Y36585D01*
X226371D01*
X229020Y37295D01*
X231395Y38666D01*
X233334Y40605D01*
X234705Y42980D01*
X235415Y45629D01*
Y48371D01*
X234705Y51020D01*
X233334Y53395D01*
X231395Y55334D01*
X229020Y56705D01*
X226371Y57415D01*
D02*
G37*
G36*
X201371D02*
X198629D01*
X195980Y56705D01*
X193605Y55334D01*
X191666Y53395D01*
X190295Y51020D01*
X189585Y48371D01*
Y45629D01*
X190295Y42980D01*
X191666Y40605D01*
X193605Y38666D01*
X195980Y37295D01*
X198629Y36585D01*
X201371D01*
X204020Y37295D01*
X206395Y38666D01*
X208334Y40605D01*
X209705Y42980D01*
X210415Y45629D01*
Y48371D01*
X209705Y51020D01*
X208334Y53395D01*
X206395Y55334D01*
X204020Y56705D01*
X201371Y57415D01*
D02*
G37*
G36*
X176371D02*
X173629D01*
X170980Y56705D01*
X168605Y55334D01*
X166666Y53395D01*
X165295Y51020D01*
X164585Y48371D01*
Y45629D01*
X165295Y42980D01*
X166666Y40605D01*
X168605Y38666D01*
X170980Y37295D01*
X173629Y36585D01*
X176371D01*
X179020Y37295D01*
X181395Y38666D01*
X183334Y40605D01*
X184705Y42980D01*
X185415Y45629D01*
Y48371D01*
X184705Y51020D01*
X183334Y53395D01*
X181395Y55334D01*
X179020Y56705D01*
X176371Y57415D01*
D02*
G37*
G36*
X151371D02*
X148629D01*
X145980Y56705D01*
X143605Y55334D01*
X141666Y53395D01*
X140295Y51020D01*
X139585Y48371D01*
Y45629D01*
X140295Y42980D01*
X141666Y40605D01*
X143605Y38666D01*
X145980Y37295D01*
X148629Y36585D01*
X151371D01*
X154020Y37295D01*
X156395Y38666D01*
X158334Y40605D01*
X159705Y42980D01*
X160415Y45629D01*
Y48371D01*
X159705Y51020D01*
X158334Y53395D01*
X156395Y55334D01*
X154020Y56705D01*
X151371Y57415D01*
D02*
G37*
G36*
X126371D02*
X123629D01*
X120980Y56705D01*
X118605Y55334D01*
X116666Y53395D01*
X115295Y51020D01*
X114585Y48371D01*
Y45629D01*
X115295Y42980D01*
X116666Y40605D01*
X118605Y38666D01*
X120980Y37295D01*
X123629Y36585D01*
X126371D01*
X129020Y37295D01*
X131395Y38666D01*
X133334Y40605D01*
X134705Y42980D01*
X135415Y45629D01*
Y48371D01*
X134705Y51020D01*
X133334Y53395D01*
X131395Y55334D01*
X129020Y56705D01*
X126371Y57415D01*
D02*
G37*
G36*
X101371D02*
X98629D01*
X95980Y56705D01*
X93605Y55334D01*
X91666Y53395D01*
X90295Y51020D01*
X89585Y48371D01*
Y45629D01*
X90295Y42980D01*
X91666Y40605D01*
X93605Y38666D01*
X95980Y37295D01*
X98629Y36585D01*
X101371D01*
X104020Y37295D01*
X106395Y38666D01*
X108334Y40605D01*
X109705Y42980D01*
X110415Y45629D01*
Y48371D01*
X109705Y51020D01*
X108334Y53395D01*
X106395Y55334D01*
X104020Y56705D01*
X101371Y57415D01*
D02*
G37*
G36*
X76371D02*
X73629D01*
X70980Y56705D01*
X68605Y55334D01*
X66666Y53395D01*
X65295Y51020D01*
X64585Y48371D01*
Y45629D01*
X65295Y42980D01*
X66666Y40605D01*
X68605Y38666D01*
X70980Y37295D01*
X73629Y36585D01*
X76371D01*
X79020Y37295D01*
X81395Y38666D01*
X83334Y40605D01*
X84705Y42980D01*
X85415Y45629D01*
Y48371D01*
X84705Y51020D01*
X83334Y53395D01*
X81395Y55334D01*
X79020Y56705D01*
X76371Y57415D01*
D02*
G37*
G36*
X51371D02*
X48629D01*
X45980Y56705D01*
X43605Y55334D01*
X41666Y53395D01*
X40295Y51020D01*
X39585Y48371D01*
Y45629D01*
X40295Y42980D01*
X41666Y40605D01*
X43605Y38666D01*
X45980Y37295D01*
X48629Y36585D01*
X51371D01*
X54020Y37295D01*
X56395Y38666D01*
X58334Y40605D01*
X59705Y42980D01*
X60415Y45629D01*
Y48371D01*
X59705Y51020D01*
X58334Y53395D01*
X56395Y55334D01*
X54020Y56705D01*
X51371Y57415D01*
D02*
G37*
G36*
X26371D02*
X23629D01*
X20980Y56705D01*
X18605Y55334D01*
X16666Y53395D01*
X15295Y51020D01*
X14585Y48371D01*
Y45629D01*
X15295Y42980D01*
X16666Y40605D01*
X18605Y38666D01*
X20980Y37295D01*
X23629Y36585D01*
X26371D01*
X29020Y37295D01*
X31395Y38666D01*
X33334Y40605D01*
X34705Y42980D01*
X35415Y45629D01*
Y48371D01*
X34705Y51020D01*
X33334Y53395D01*
X31395Y55334D01*
X29020Y56705D01*
X26371Y57415D01*
D02*
G37*
G36*
X351371Y32415D02*
X351270D01*
Y23270D01*
X360415D01*
Y23371D01*
X359705Y26020D01*
X358334Y28395D01*
X356395Y30334D01*
X354020Y31705D01*
X351371Y32415D01*
D02*
G37*
G36*
X276371D02*
X276270D01*
Y23270D01*
X285415D01*
Y23371D01*
X284705Y26020D01*
X283334Y28395D01*
X281395Y30334D01*
X279020Y31705D01*
X276371Y32415D01*
D02*
G37*
G36*
X348730D02*
X348629D01*
X345980Y31705D01*
X343605Y30334D01*
X341666Y28395D01*
X340295Y26020D01*
X339585Y23371D01*
Y23270D01*
X348730D01*
Y32415D01*
D02*
G37*
G36*
X273730D02*
X273629D01*
X270980Y31705D01*
X268605Y30334D01*
X266666Y28395D01*
X265295Y26020D01*
X264585Y23371D01*
Y23270D01*
X273730D01*
Y32415D01*
D02*
G37*
G36*
X601394Y28540D02*
X599606D01*
X597879Y28077D01*
X596331Y27183D01*
X595067Y25919D01*
X594173Y24371D01*
X593710Y22644D01*
Y20856D01*
X594173Y19129D01*
X595067Y17581D01*
X596331Y16317D01*
X597879Y15423D01*
X599606Y14960D01*
X601394D01*
X603121Y15423D01*
X604669Y16317D01*
X605933Y17581D01*
X606827Y19129D01*
X607290Y20856D01*
Y22644D01*
X606827Y24371D01*
X605933Y25919D01*
X604669Y27183D01*
X603121Y28077D01*
X601394Y28540D01*
D02*
G37*
G36*
X571394D02*
X569606D01*
X567879Y28077D01*
X566331Y27183D01*
X565067Y25919D01*
X564173Y24371D01*
X563710Y22644D01*
Y20856D01*
X564173Y19129D01*
X565067Y17581D01*
X566331Y16317D01*
X567879Y15423D01*
X569606Y14960D01*
X571394D01*
X573121Y15423D01*
X574669Y16317D01*
X575933Y17581D01*
X576827Y19129D01*
X577290Y20856D01*
Y22644D01*
X576827Y24371D01*
X575933Y25919D01*
X574669Y27183D01*
X573121Y28077D01*
X571394Y28540D01*
D02*
G37*
G36*
X501371Y32415D02*
X498629D01*
X495980Y31705D01*
X493605Y30334D01*
X491666Y28395D01*
X490295Y26020D01*
X489585Y23371D01*
Y20629D01*
X490295Y17980D01*
X491666Y15605D01*
X493605Y13666D01*
X495980Y12295D01*
X498629Y11585D01*
X501371D01*
X504020Y12295D01*
X506395Y13666D01*
X508334Y15605D01*
X509705Y17980D01*
X510415Y20629D01*
Y23371D01*
X509705Y26020D01*
X508334Y28395D01*
X506395Y30334D01*
X504020Y31705D01*
X501371Y32415D01*
D02*
G37*
G36*
X476371D02*
X473629D01*
X470980Y31705D01*
X468605Y30334D01*
X466666Y28395D01*
X465295Y26020D01*
X464585Y23371D01*
Y20629D01*
X465295Y17980D01*
X466666Y15605D01*
X468605Y13666D01*
X470980Y12295D01*
X473629Y11585D01*
X476371D01*
X479020Y12295D01*
X481395Y13666D01*
X483334Y15605D01*
X484705Y17980D01*
X485415Y20629D01*
Y23371D01*
X484705Y26020D01*
X483334Y28395D01*
X481395Y30334D01*
X479020Y31705D01*
X476371Y32415D01*
D02*
G37*
G36*
X451371D02*
X448629D01*
X445980Y31705D01*
X443605Y30334D01*
X441666Y28395D01*
X440295Y26020D01*
X439585Y23371D01*
Y20629D01*
X440295Y17980D01*
X441666Y15605D01*
X443605Y13666D01*
X445980Y12295D01*
X448629Y11585D01*
X451371D01*
X454020Y12295D01*
X456395Y13666D01*
X458334Y15605D01*
X459705Y17980D01*
X460415Y20629D01*
Y23371D01*
X459705Y26020D01*
X458334Y28395D01*
X456395Y30334D01*
X454020Y31705D01*
X451371Y32415D01*
D02*
G37*
G36*
X426371D02*
X423629D01*
X420980Y31705D01*
X418605Y30334D01*
X416666Y28395D01*
X415295Y26020D01*
X414585Y23371D01*
Y20629D01*
X415295Y17980D01*
X416666Y15605D01*
X418605Y13666D01*
X420980Y12295D01*
X423629Y11585D01*
X426371D01*
X429020Y12295D01*
X431395Y13666D01*
X433334Y15605D01*
X434705Y17980D01*
X435415Y20629D01*
Y23371D01*
X434705Y26020D01*
X433334Y28395D01*
X431395Y30334D01*
X429020Y31705D01*
X426371Y32415D01*
D02*
G37*
G36*
X401371D02*
X398629D01*
X395980Y31705D01*
X393605Y30334D01*
X391666Y28395D01*
X390295Y26020D01*
X389585Y23371D01*
Y20629D01*
X390295Y17980D01*
X391666Y15605D01*
X393605Y13666D01*
X395980Y12295D01*
X398629Y11585D01*
X401371D01*
X404020Y12295D01*
X406395Y13666D01*
X408334Y15605D01*
X409705Y17980D01*
X410415Y20629D01*
Y23371D01*
X409705Y26020D01*
X408334Y28395D01*
X406395Y30334D01*
X404020Y31705D01*
X401371Y32415D01*
D02*
G37*
G36*
X376371D02*
X373629D01*
X370980Y31705D01*
X368605Y30334D01*
X366666Y28395D01*
X365295Y26020D01*
X364585Y23371D01*
Y20629D01*
X365295Y17980D01*
X366666Y15605D01*
X368605Y13666D01*
X370980Y12295D01*
X373629Y11585D01*
X376371D01*
X379020Y12295D01*
X381395Y13666D01*
X383334Y15605D01*
X384705Y17980D01*
X385415Y20629D01*
Y23371D01*
X384705Y26020D01*
X383334Y28395D01*
X381395Y30334D01*
X379020Y31705D01*
X376371Y32415D01*
D02*
G37*
G36*
X360415Y20730D02*
X351270D01*
Y11585D01*
X351371D01*
X354020Y12295D01*
X356395Y13666D01*
X358334Y15605D01*
X359705Y17980D01*
X360415Y20629D01*
Y20730D01*
D02*
G37*
G36*
X348730D02*
X339585D01*
Y20629D01*
X340295Y17980D01*
X341666Y15605D01*
X343605Y13666D01*
X345980Y12295D01*
X348629Y11585D01*
X348730D01*
Y20730D01*
D02*
G37*
G36*
X326371Y32415D02*
X323629D01*
X320980Y31705D01*
X318605Y30334D01*
X316666Y28395D01*
X315295Y26020D01*
X314585Y23371D01*
Y20629D01*
X315295Y17980D01*
X316666Y15605D01*
X318605Y13666D01*
X320980Y12295D01*
X323629Y11585D01*
X326371D01*
X329020Y12295D01*
X331395Y13666D01*
X333334Y15605D01*
X334705Y17980D01*
X335415Y20629D01*
Y23371D01*
X334705Y26020D01*
X333334Y28395D01*
X331395Y30334D01*
X329020Y31705D01*
X326371Y32415D01*
D02*
G37*
G36*
X301371D02*
X298629D01*
X295980Y31705D01*
X293605Y30334D01*
X291666Y28395D01*
X290295Y26020D01*
X289585Y23371D01*
Y20629D01*
X290295Y17980D01*
X291666Y15605D01*
X293605Y13666D01*
X295980Y12295D01*
X298629Y11585D01*
X301371D01*
X304020Y12295D01*
X306395Y13666D01*
X308334Y15605D01*
X309705Y17980D01*
X310415Y20629D01*
Y23371D01*
X309705Y26020D01*
X308334Y28395D01*
X306395Y30334D01*
X304020Y31705D01*
X301371Y32415D01*
D02*
G37*
G36*
X285415Y20730D02*
X276270D01*
Y11585D01*
X276371D01*
X279020Y12295D01*
X281395Y13666D01*
X283334Y15605D01*
X284705Y17980D01*
X285415Y20629D01*
Y20730D01*
D02*
G37*
G36*
X273730D02*
X264585D01*
Y20629D01*
X265295Y17980D01*
X266666Y15605D01*
X268605Y13666D01*
X270980Y12295D01*
X273629Y11585D01*
X273730D01*
Y20730D01*
D02*
G37*
G36*
X251371Y32415D02*
X248629D01*
X245980Y31705D01*
X243605Y30334D01*
X241666Y28395D01*
X240295Y26020D01*
X239585Y23371D01*
Y20629D01*
X240295Y17980D01*
X241666Y15605D01*
X243605Y13666D01*
X245980Y12295D01*
X248629Y11585D01*
X251371D01*
X254020Y12295D01*
X256395Y13666D01*
X258334Y15605D01*
X259705Y17980D01*
X260415Y20629D01*
Y23371D01*
X259705Y26020D01*
X258334Y28395D01*
X256395Y30334D01*
X254020Y31705D01*
X251371Y32415D01*
D02*
G37*
G36*
X226371D02*
X223629D01*
X220980Y31705D01*
X218605Y30334D01*
X216666Y28395D01*
X215295Y26020D01*
X214585Y23371D01*
Y20629D01*
X215295Y17980D01*
X216666Y15605D01*
X218605Y13666D01*
X220980Y12295D01*
X223629Y11585D01*
X226371D01*
X229020Y12295D01*
X231395Y13666D01*
X233334Y15605D01*
X234705Y17980D01*
X235415Y20629D01*
Y23371D01*
X234705Y26020D01*
X233334Y28395D01*
X231395Y30334D01*
X229020Y31705D01*
X226371Y32415D01*
D02*
G37*
G36*
X201371D02*
X198629D01*
X195980Y31705D01*
X193605Y30334D01*
X191666Y28395D01*
X190295Y26020D01*
X189585Y23371D01*
Y20629D01*
X190295Y17980D01*
X191666Y15605D01*
X193605Y13666D01*
X195980Y12295D01*
X198629Y11585D01*
X201371D01*
X204020Y12295D01*
X206395Y13666D01*
X208334Y15605D01*
X209705Y17980D01*
X210415Y20629D01*
Y23371D01*
X209705Y26020D01*
X208334Y28395D01*
X206395Y30334D01*
X204020Y31705D01*
X201371Y32415D01*
D02*
G37*
G36*
X176371D02*
X173629D01*
X170980Y31705D01*
X168605Y30334D01*
X166666Y28395D01*
X165295Y26020D01*
X164585Y23371D01*
Y20629D01*
X165295Y17980D01*
X166666Y15605D01*
X168605Y13666D01*
X170980Y12295D01*
X173629Y11585D01*
X176371D01*
X179020Y12295D01*
X181395Y13666D01*
X183334Y15605D01*
X184705Y17980D01*
X185415Y20629D01*
Y23371D01*
X184705Y26020D01*
X183334Y28395D01*
X181395Y30334D01*
X179020Y31705D01*
X176371Y32415D01*
D02*
G37*
G36*
X151371D02*
X148629D01*
X145980Y31705D01*
X143605Y30334D01*
X141666Y28395D01*
X140295Y26020D01*
X139585Y23371D01*
Y20629D01*
X140295Y17980D01*
X141666Y15605D01*
X143605Y13666D01*
X145980Y12295D01*
X148629Y11585D01*
X151371D01*
X154020Y12295D01*
X156395Y13666D01*
X158334Y15605D01*
X159705Y17980D01*
X160415Y20629D01*
Y23371D01*
X159705Y26020D01*
X158334Y28395D01*
X156395Y30334D01*
X154020Y31705D01*
X151371Y32415D01*
D02*
G37*
G36*
X126371D02*
X123629D01*
X120980Y31705D01*
X118605Y30334D01*
X116666Y28395D01*
X115295Y26020D01*
X114585Y23371D01*
Y20629D01*
X115295Y17980D01*
X116666Y15605D01*
X118605Y13666D01*
X120980Y12295D01*
X123629Y11585D01*
X126371D01*
X129020Y12295D01*
X131395Y13666D01*
X133334Y15605D01*
X134705Y17980D01*
X135415Y20629D01*
Y23371D01*
X134705Y26020D01*
X133334Y28395D01*
X131395Y30334D01*
X129020Y31705D01*
X126371Y32415D01*
D02*
G37*
G36*
X101371D02*
X98629D01*
X95980Y31705D01*
X93605Y30334D01*
X91666Y28395D01*
X90295Y26020D01*
X89585Y23371D01*
Y20629D01*
X90295Y17980D01*
X91666Y15605D01*
X93605Y13666D01*
X95980Y12295D01*
X98629Y11585D01*
X101371D01*
X104020Y12295D01*
X106395Y13666D01*
X108334Y15605D01*
X109705Y17980D01*
X110415Y20629D01*
Y23371D01*
X109705Y26020D01*
X108334Y28395D01*
X106395Y30334D01*
X104020Y31705D01*
X101371Y32415D01*
D02*
G37*
G36*
X76371D02*
X73629D01*
X70980Y31705D01*
X68605Y30334D01*
X66666Y28395D01*
X65295Y26020D01*
X64585Y23371D01*
Y20629D01*
X65295Y17980D01*
X66666Y15605D01*
X68605Y13666D01*
X70980Y12295D01*
X73629Y11585D01*
X76371D01*
X79020Y12295D01*
X81395Y13666D01*
X83334Y15605D01*
X84705Y17980D01*
X85415Y20629D01*
Y23371D01*
X84705Y26020D01*
X83334Y28395D01*
X81395Y30334D01*
X79020Y31705D01*
X76371Y32415D01*
D02*
G37*
G36*
X51371D02*
X48629D01*
X45980Y31705D01*
X43605Y30334D01*
X41666Y28395D01*
X40295Y26020D01*
X39585Y23371D01*
Y20629D01*
X40295Y17980D01*
X41666Y15605D01*
X43605Y13666D01*
X45980Y12295D01*
X48629Y11585D01*
X51371D01*
X54020Y12295D01*
X56395Y13666D01*
X58334Y15605D01*
X59705Y17980D01*
X60415Y20629D01*
Y23371D01*
X59705Y26020D01*
X58334Y28395D01*
X56395Y30334D01*
X54020Y31705D01*
X51371Y32415D01*
D02*
G37*
G36*
X26371D02*
X23629D01*
X20980Y31705D01*
X18605Y30334D01*
X16666Y28395D01*
X15295Y26020D01*
X14585Y23371D01*
Y20629D01*
X15295Y17980D01*
X16666Y15605D01*
X18605Y13666D01*
X20980Y12295D01*
X23629Y11585D01*
X26371D01*
X29020Y12295D01*
X31395Y13666D01*
X33334Y15605D01*
X34705Y17980D01*
X35415Y20629D01*
Y23371D01*
X34705Y26020D01*
X33334Y28395D01*
X31395Y30334D01*
X29020Y31705D01*
X26371Y32415D01*
D02*
G37*
%LPD*%
D15*
X402742Y291250D02*
Y296250D01*
Y291250D02*
X402766D01*
X399278D02*
X402742D01*
X398244Y290215D02*
X399278Y291250D01*
X412439Y290354D02*
X412766Y290028D01*
Y286250D02*
Y290028D01*
X397766Y286250D02*
X402742D01*
X391250Y285750D02*
X391750Y286250D01*
X397766D01*
X388976Y305774D02*
X389452Y306250D01*
X392766D01*
X412766D02*
X416650D01*
X388797Y266190D02*
X388857Y266250D01*
X397766D01*
X412766D02*
X416556Y270040D01*
Y286605D01*
X413121D02*
X416556D01*
X412766Y286250D02*
X413121Y286605D01*
X412742Y276250D02*
X412766Y276274D01*
X407742Y276250D02*
X412742D01*
X412766Y276274D02*
Y286250D01*
X402766Y291250D02*
X407766D01*
Y286250D02*
X412742D01*
X402742D02*
X407766D01*
Y291250D01*
Y286250D02*
Y286250D01*
X407742Y301250D02*
Y306250D01*
X407766D02*
X412766D01*
X407742Y266250D02*
Y276250D01*
X407766Y266250D02*
X412766D01*
X402766D02*
X407766D01*
X397766D02*
X402766D01*
X397742Y301250D02*
Y306250D01*
X397742D02*
X397742Y306250D01*
X392766Y306250D02*
X397742D01*
X407742Y301250D02*
X407742D01*
X402742Y296250D02*
X407742Y301250D01*
X397742D02*
X402742Y296250D01*
X412742D01*
X402742Y281250D02*
Y286250D01*
D18*
X397766Y306250D02*
D03*
X412766Y266250D02*
D03*
X407766D02*
D03*
X402766D02*
D03*
X397766D02*
D03*
X407766Y271250D02*
D03*
Y276250D02*
D03*
X412766D02*
D03*
X402766Y281250D02*
D03*
X412766Y286250D02*
D03*
X407766D02*
D03*
X402766D02*
D03*
X397766D02*
D03*
X407766Y291250D02*
D03*
X402766D02*
D03*
Y296250D02*
D03*
X407766D02*
D03*
X412766D02*
D03*
X407766Y301250D02*
D03*
X397766D02*
D03*
X412766Y306250D02*
D03*
X407766D02*
D03*
X392766D02*
D03*
X330266Y246250D02*
D03*
X325266D02*
D03*
X320266D02*
D03*
X310266D02*
D03*
Y286250D02*
D03*
X330266Y306250D02*
D03*
X325266D02*
D03*
X320266D02*
D03*
X310266D02*
D03*
Y271250D02*
D03*
D20*
X277000Y291750D02*
D03*
D22*
X227500Y286250D02*
D03*
D23*
X388000Y210964D02*
D03*
X629250Y192214D02*
D03*
X325750Y143714D02*
D03*
X150750Y363429D02*
D03*
X174000Y110429D02*
D03*
D24*
X404536Y357500D02*
D03*
X364714Y225500D02*
D03*
D25*
X411500Y215739D02*
D03*
X472250Y268506D02*
D03*
D26*
X453000Y192000D02*
D03*
X405500Y329071D02*
D03*
X434250Y226964D02*
D03*
X114250Y282036D02*
D03*
D27*
X488506Y338500D02*
D03*
X266994Y189500D02*
D03*
X448506Y253000D02*
D03*
X134989Y77250D02*
D03*
D28*
X310536Y221250D02*
D03*
X454214Y231000D02*
D03*
X440036Y274250D02*
D03*
X435786Y316155D02*
D03*
D29*
X438666Y294500D02*
D03*
D31*
X559750Y155500D02*
D03*
X375250Y94250D02*
D03*
D34*
X491250Y361500D02*
D03*
D35*
X553250Y344500D02*
D03*
D36*
X585000Y189000D02*
D03*
X570000Y285500D02*
D03*
X603000Y284000D02*
D03*
X451750Y74750D02*
D03*
X412500Y74000D02*
D03*
X273000Y112000D02*
D03*
D37*
X524000Y145500D02*
D03*
D39*
X545750Y205250D02*
D03*
X349850Y149960D02*
D03*
X146250Y128500D02*
D03*
D40*
X613750Y81500D02*
D03*
D43*
X272250Y72250D02*
D03*
D44*
X177500Y78000D02*
D03*
D46*
X100900Y203500D02*
D03*
D47*
X56250Y232500D02*
D03*
D48*
X41250Y317260D02*
D03*
D49*
X607500Y189483D02*
D03*
X305250Y146483D02*
D03*
D50*
X452000Y344750D02*
D03*
X122750Y319000D02*
D03*
D51*
X193692Y206075D02*
D03*
X145693Y212425D02*
D03*
D52*
X224324Y189457D02*
D03*
X123750Y216207D02*
D03*
D54*
X197750Y111464D02*
D03*
X112500Y124536D02*
D03*
D55*
X179000Y292750D02*
D03*
D56*
X171500Y310242D02*
D03*
D58*
X337000Y322000D02*
D03*
X176250Y96000D02*
D03*
D59*
X67164Y113500D02*
D03*
D60*
X69457Y130250D02*
D03*
D61*
X67250Y144000D02*
D03*
D62*
X367000Y283250D02*
D03*
X384750Y293750D02*
D03*
X103250Y319250D02*
D03*
D63*
X82750Y319237D02*
D03*
D84*
X25000Y22000D02*
D03*
Y47000D02*
D03*
X50000Y22000D02*
D03*
Y47000D02*
D03*
X75000Y22000D02*
D03*
Y47000D02*
D03*
X100000Y22000D02*
D03*
Y47000D02*
D03*
X125000Y22000D02*
D03*
Y47000D02*
D03*
X150000Y22000D02*
D03*
Y47000D02*
D03*
X175000Y22000D02*
D03*
Y47000D02*
D03*
X200000Y22000D02*
D03*
Y47000D02*
D03*
X225000Y22000D02*
D03*
Y47000D02*
D03*
X250000Y22000D02*
D03*
Y47000D02*
D03*
X275000Y22000D02*
D03*
Y47000D02*
D03*
X300000Y22000D02*
D03*
Y47000D02*
D03*
X325000Y22000D02*
D03*
Y47000D02*
D03*
X350000Y22000D02*
D03*
Y47000D02*
D03*
X375000Y22000D02*
D03*
Y47000D02*
D03*
X400000Y22000D02*
D03*
Y47000D02*
D03*
X425000Y22000D02*
D03*
Y47000D02*
D03*
X450000Y22000D02*
D03*
Y47000D02*
D03*
X475000Y22000D02*
D03*
Y47000D02*
D03*
X500000Y22000D02*
D03*
Y47000D02*
D03*
D86*
X29500Y254500D02*
D03*
Y184500D02*
D03*
D87*
X56500Y244500D02*
D03*
Y194500D02*
D03*
D88*
X570500Y21750D02*
D03*
X600500D02*
D03*
D89*
X478647Y160853D02*
D03*
X367500Y334750D02*
D03*
D90*
X555615Y145838D02*
D03*
X398011Y234283D02*
D03*
X576750Y64500D02*
D03*
X286250Y229000D02*
D03*
X212500Y219250D02*
D03*
X343250Y109500D02*
D03*
X342500Y121500D02*
D03*
X336250Y97500D02*
D03*
X284750Y278366D02*
D03*
X353500Y67500D02*
D03*
X384706Y234232D02*
D03*
X404826Y187326D02*
D03*
X354750Y335000D02*
D03*
X291500Y205000D02*
D03*
X364750Y198322D02*
D03*
X374750Y211750D02*
D03*
X293250Y241000D02*
D03*
D91*
X215500Y293750D02*
D03*
D92*
X239522Y104750D02*
D03*
D93*
X29500Y229500D02*
D03*
Y209500D02*
D03*
D94*
X376700Y330598D02*
D03*
X390200Y340598D02*
D03*
D95*
X102414Y184500D02*
D03*
X196043Y247750D02*
D03*
D96*
X343754Y226750D02*
D03*
D97*
X542470Y351000D02*
D03*
D98*
X603492Y336250D02*
D03*
D99*
X529750Y75500D02*
D03*
D100*
X83750Y177250D02*
D03*
M02*
